<svg xmlns="http://www.w3.org/2000/svg" viewBox="0 0 720 744" font-family="ui-monospace, SFMono-Regular, Menlo, monospace" font-size="11">
<rect width="720" height="744" fill="white"/>
<text x="40" y="30" font-size="15" font-weight="bold">carrier power-up sequence — staged bring-up (PASS)</text>
<text x="40" y="52" font-size="11" fill="#6b7280">derived from the power-tree netlist; matches carrier/docs/BRINGUP.md staging. Arrows = rail dependency (parent -&gt; child).</text>
<text x="40" y="76" font-size="12" font-weight="bold" fill="#92400e">stage 0 — always-on (pre-DIP / pre-PD)</text>
<text x="40" y="450" font-size="12" font-weight="bold" fill="#1e3a8a">stages 1-3 — rail chain (close one DIP at a time)</text>
<rect x="40" y="84" width="250" height="46" rx="8" fill="#fef3c7" stroke="#92400e" stroke-width="1.5"/>
<text x="50" y="101" font-weight="bold" font-size="12">+3V3_SC  (3.3 V)</text>
<text x="50" y="118" fill="#374151" font-size="10">load 0.000 A / lim 0.30 A</text>
<rect x="40" y="156" width="250" height="46" rx="8" fill="#fef3c7" stroke="#92400e" stroke-width="1.5"/>
<text x="50" y="173" font-weight="bold" font-size="12">+5V_DBG  (5 V)</text>
<text x="50" y="190" fill="#374151" font-size="10">load 0.000 A / lim 0.50 A</text>
<rect x="40" y="228" width="250" height="46" rx="8" fill="#fef3c7" stroke="#92400e" stroke-width="1.5"/>
<text x="50" y="245" font-weight="bold" font-size="12">+5V_SOM  (4.65 V)</text>
<text x="50" y="262" fill="#374151" font-size="10">load 0.000 A / lim 0.00 A</text>
<rect x="40" y="300" width="250" height="46" rx="8" fill="#fef3c7" stroke="#92400e" stroke-width="1.5"/>
<text x="50" y="317" font-weight="bold" font-size="12">+VBUS_IN  (20 V)</text>
<text x="50" y="334" fill="#374151" font-size="10">load 0.000 A / lim 3.00 A</text>
<rect x="40" y="372" width="250" height="46" rx="8" fill="#fef3c7" stroke="#92400e" stroke-width="1.5"/>
<text x="50" y="389" font-weight="bold" font-size="12">+VIN  (20 V)</text>
<text x="50" y="406" fill="#374151" font-size="10">load 0.000 A / lim 0.00 A</text>
<rect x="40" y="458" width="250" height="46" rx="8" fill="#eff6ff" stroke="#1e3a8a" stroke-width="1.5"/>
<text x="50" y="475" font-weight="bold" font-size="12">+5V_REG  (5 V)</text>
<text x="50" y="492" fill="#374151" font-size="10">load 0.053 A / lim 6.00 A  ·  EN_5V0</text>
<rect x="40" y="530" width="250" height="46" rx="8" fill="#eff6ff" stroke="#1e3a8a" stroke-width="1.5"/>
<text x="50" y="547" font-weight="bold" font-size="12">+3V3_REG  (3.3 V)</text>
<text x="50" y="564" fill="#374151" font-size="10">load 0.067 A / lim 6.00 A  ·  EN_3V3</text>
<rect x="40" y="602" width="250" height="46" rx="8" fill="#eff6ff" stroke="#1e3a8a" stroke-width="1.5"/>
<text x="50" y="619" font-weight="bold" font-size="12">+1V8_REG  (1.8 V)</text>
<text x="50" y="636" fill="#374151" font-size="10">load 0.001 A / lim 0.60 A  ·  EN_1V8</text>
</svg>
