#VRML V2.0 utf8
# generated by schgen part add
Shape{appearance Appearance{material Material{diffuseColor 0.8274509803921568 0.6666666666666666 0.12941176470588237 transparency 0.0}}geometry IndexedFaceSet{ccw TRUE solid FALSE coord Coordinate{point [2.2638 -0.2953 3.3858, 2.2638 -0.4921 3.3858, 2.4606 -0.2953 3.3858, 2.4606 -0.4921 3.3858, 2.4606 -0.4921 1.9685, 2.2638 -0.4921 1.9685, 2.2638 -0.2953 1.9685, 2.4606 -0.2953 1.9685, 1.4764 -0.2953 3.3858, 1.4764 -0.4921 3.3858, 1.6732 -0.2953 3.3858, 1.6732 -0.4921 3.3858, 1.6732 -0.4921 1.9685, 1.4764 -0.4921 1.9685, 1.4764 -0.2953 1.9685, 1.6732 -0.2953 1.9685, 0.689 -0.2953 3.3858, 0.689 -0.4921 3.3858, 0.8858 -0.2953 3.3858, 0.8858 -0.4921 3.3858, 0.8858 -0.4921 1.9685, 0.689 -0.4921 1.9685, 0.689 -0.2953 1.9685, 0.8858 -0.2953 1.9685, -0.0984 -0.2953 3.3858, -0.0984 -0.4921 3.3858, 0.0984 -0.2953 3.3858, 0.0984 -0.4921 3.3858, 0.0984 -0.4921 1.9685, -0.0984 -0.4921 1.9685, -0.0984 -0.2953 1.9685, 0.0984 -0.2953 1.9685, -0.8858 -0.2953 3.3858, -0.8858 -0.4921 3.3858, -0.689 -0.2953 3.3858, -0.689 -0.4921 3.3858, -0.689 -0.4921 1.9685, -0.8858 -0.4921 1.9685, -0.8858 -0.2953 1.9685, -0.689 -0.2953 1.9685, -1.6732 -0.2953 3.3858, -1.6732 -0.4921 3.3858, -1.4764 -0.2953 3.3858, -1.4764 -0.4921 3.3858, -1.4764 -0.4921 1.9685, -1.6732 -0.4921 1.9685, -1.6732 -0.2953 1.9685, -1.4764 -0.2953 1.9685, -2.4606 -0.2953 3.3858, -2.4606 -0.4921 3.3858, -2.2638 -0.2953 3.3858, -2.2638 -0.4921 3.3858, -2.2638 -0.4921 1.9685, -2.4606 -0.4921 1.9685, -2.4606 -0.2953 1.9685, -2.2638 -0.2953 1.9685, 2.2638 0.4921 3.3858, 2.2638 0.2953 3.3858, 2.4606 0.4921 3.3858, 2.4606 0.2953 3.3858, 2.4606 0.2953 1.9685, 2.2638 0.2953 1.9685, 2.2638 0.4921 1.9685, 2.4606 0.4921 1.9685, 1.4764 0.4921 3.3858, 1.4764 0.2953 3.3858, 1.6732 0.4921 3.3858, 1.6732 0.2953 3.3858, 1.6732 0.2953 1.9685, 1.4764 0.2953 1.9685, 1.4764 0.4921 1.9685, 1.6732 0.4921 1.9685, 0.689 0.4921 3.3858, 0.689 0.2953 3.3858, 0.8858 0.4921 3.3858, 0.8858 0.2953 3.3858, 0.8858 0.2953 1.9685, 0.689 0.2953 1.9685, 0.689 0.4921 1.9685, 0.8858 0.4921 1.9685, -0.0984 0.4921 3.3858, -0.0984 0.2953 3.3858, 0.0984 0.4921 3.3858, 0.0984 0.2953 3.3858, 0.0984 0.2953 1.9685, -0.0984 0.2953 1.9685, -0.0984 0.4921 1.9685, 0.0984 0.4921 1.9685, -0.8858 0.4921 3.3858, -0.8858 0.2953 3.3858, -0.689 0.4921 3.3858, -0.689 0.2953 3.3858, -0.689 0.2953 1.9685, -0.8858 0.2953 1.9685, -0.8858 0.4921 1.9685, -0.689 0.4921 1.9685]} coordIndex [0,1,2,-1,2,1,3,-1,3,1,4,-1,4,1,5,-1,1,0,5,-1,5,0,6,-1,0,2,6,-1,6,2,7,-1,2,3,7,-1,7,3,4,-1,8,9,10,-1,10,9,11,-1,11,9,12,-1,12,9,13,-1,9,8,13,-1,13,8,14,-1,8,10,14,-1,14,10,15,-1,10,11,15,-1,15,11,12,-1,16,17,18,-1,18,17,19,-1,19,17,20,-1,20,17,21,-1,17,16,21,-1,21,16,22,-1,16,18,22,-1,22,18,23,-1,18,19,23,-1,23,19,20,-1,24,25,26,-1,26,25,27,-1,27,25,28,-1,28,25,29,-1,25,24,29,-1,29,24,30,-1,24,26,30,-1,30,26,31,-1,26,27,31,-1,31,27,28,-1,32,33,34,-1,34,33,35,-1,35,33,36,-1,36,33,37,-1,33,32,37,-1,37,32,38,-1,32,34,38,-1,38,34,39,-1,34,35,39,-1,39,35,36,-1,40,41,42,-1,42,41,43,-1,43,41,44,-1,44,41,45,-1,41,40,45,-1,45,40,46,-1,40,42,46,-1,46,42,47,-1,42,43,47,-1,47,43,44,-1,48,49,50,-1,50,49,51,-1,51,49,52,-1,52,49,53,-1,49,48,53,-1,53,48,54,-1,48,50,54,-1,54,50,55,-1,50,51,55,-1,55,51,52,-1,56,57,58,-1,58,57,59,-1,59,57,60,-1,60,57,61,-1,57,56,61,-1,61,56,62,-1,56,58,62,-1,62,58,63,-1,58,59,63,-1,63,59,60,-1,64,65,66,-1,66,65,67,-1,67,65,68,-1,68,65,69,-1,65,64,69,-1,69,64,70,-1,64,66,70,-1,70,66,71,-1,66,67,71,-1,71,67,68,-1,72,73,74,-1,74,73,75,-1,75,73,76,-1,76,73,77,-1,73,72,77,-1,77,72,78,-1,72,74,78,-1,78,74,79,-1,74,75,79,-1,79,75,76,-1,80,81,82,-1,82,81,83,-1,83,81,84,-1,84,81,85,-1,81,80,85,-1,85,80,86,-1,80,82,86,-1,86,82,87,-1,82,83,87,-1,87,83,84,-1,88,89,90,-1,90,89,91,-1,91,89,92,-1,92,89,93,-1,89,88,93,-1,93,88,94,-1,88,90,94,-1,94,90,95,-1,90,91,95,-1,95,91,92,-1]}}
Shape{appearance Appearance{material Material{diffuseColor 0.20784313725490197 0.20784313725490197 0.20784313725490197 transparency 0.0}}geometry IndexedFaceSet{ccw TRUE solid FALSE coord Coordinate{point [-0.4724 -0.9843 1.9685, -0.4724 -1.2402 1.9685, -0.3937 -1.2402 1.9685, 2.6919 -0.9843 1.9685, 2.9232 -0.9843 1.9685, 2.9232 -0.8661 1.9685, 2.6919 -0.8661 1.9685, 1.9685 -0.9843 1.9685, 1.9685 -0.8661 1.9685, 1.1811 -0.9843 1.9685, 1.1811 -0.8661 1.9685, 0.4724 -0.9843 1.9685, 0.3937 -0.8661 1.9685, 0.4724 -1.2402 1.9685, -2.9232 -0.8661 1.9685, -2.9232 -0.9843 1.9685, -1.9685 -0.8661 1.9685, -1.9685 -0.9843 1.9685, -1.1811 -0.8661 1.9685, -1.1811 -0.9843 1.9685, -0.3937 -0.8661 1.9685, 0.3937 -1.2402 1.9685, -2.4606 -0.2953 1.9685, -2.9232 -0.0 1.9685, -2.4606 -0.4921 1.9685, -2.2638 -0.4921 1.9685, -2.2638 -0.2953 1.9685, -1.9685 -0.0 1.9685, -1.6732 -0.2953 1.9685, -1.6732 -0.4921 1.9685, -1.4764 -0.4921 1.9685, -1.4764 -0.2953 1.9685, -1.1811 -0.0 1.9685, -0.8858 -0.2953 1.9685, -0.8858 -0.4921 1.9685, -0.689 -0.4921 1.9685, -0.689 -0.2953 1.9685, -0.3937 -0.0 1.9685, -0.0984 -0.2953 1.9685, -0.0984 -0.4921 1.9685, 0.0984 -0.4921 1.9685, 0.0984 -0.2953 1.9685, 0.3937 -0.0 1.9685, 0.689 -0.2953 1.9685, 0.689 -0.4921 1.9685, 0.8858 -0.4921 1.9685, 0.8858 -0.2953 1.9685, 1.1811 -0.0 1.9685, 1.4764 -0.2953 1.9685, 1.4764 -0.4921 1.9685, 1.6732 -0.4921 1.9685, 1.6732 -0.2953 1.9685, 1.9685 -0.0 1.9685, 2.2638 -0.2953 1.9685, 2.2638 -0.4921 1.9685, 2.4606 -0.4921 1.9685, 2.4606 -0.2953 1.9685, 2.6919 -0.0 1.9685, -2.4606 0.4921 1.9685, -2.9232 0.9843 1.9685, -2.4606 0.2953 1.9685, -2.2638 0.2953 1.9685, -2.2638 0.4921 1.9685, -1.9685 0.9843 1.9685, -1.6732 0.4921 1.9685, -1.6732 0.2953 1.9685, -1.4764 0.2953 1.9685, -1.4764 0.4921 1.9685, -1.1811 0.9843 1.9685, -0.8858 0.4921 1.9685, -0.8858 0.2953 1.9685, -0.689 0.2953 1.9685, -0.689 0.4921 1.9685, -0.3937 0.9843 1.9685, -0.0984 0.4921 1.9685, -0.0984 0.2953 1.9685, 0.0984 0.2953 1.9685, 0.0984 0.4921 1.9685, 0.3937 0.9843 1.9685, 0.689 0.4921 1.9685, 0.689 0.2953 1.9685, 0.8858 0.2953 1.9685, 0.8858 0.4921 1.9685, 1.1811 0.9843 1.9685, 1.4764 0.4921 1.9685, 1.4764 0.2953 1.9685, 1.6732 0.2953 1.9685, 1.6732 0.4921 1.9685, 1.9685 0.9843 1.9685, 2.2638 0.4921 1.9685, 2.2638 0.2953 1.9685, 2.4606 0.2953 1.9685, 2.4606 0.4921 1.9685, 2.6919 0.9843 1.9685, 2.9232 -0.0 1.9685, 2.9232 0.9843 1.9685, 2.9232 -0.9843 3.5039, 0.4724 -0.9843 3.5039, -2.9232 0.7874 1.6535, -3.2776 1.2402 1.6535, 2.9232 0.7874 1.6535, 3.2776 1.2402 1.6535, 2.9232 -0.7874 1.6535, 3.2776 -1.2402 1.6535, -2.9232 -0.7874 1.6535, -3.2776 -1.2402 1.6535, 3.2776 1.2402 3.5039, 3.2776 -1.2402 3.5039, -3.2776 1.2402 3.5039, -3.2776 -1.2402 3.5039, 0.4724 -1.2402 3.5039, -0.4724 -1.2402 3.5039, 2.9232 0.9843 3.5039, -2.9232 0.9843 3.5039, -2.9232 -0.9843 3.5039, -0.4724 -0.9843 3.5039, -2.9232 0.7874 0.9843, -2.9232 -0.0 0.9843, -2.9232 -0.6398 0.9843, -2.9232 -0.7874 0.9843, 2.9232 0.7874 0.9843, 2.9232 -0.0 0.9843, 2.9232 -0.6398 0.9843, 2.9232 -0.7874 0.9843, -2.6919 -0.7874 0.9843, -2.6919 -0.6398 0.9843, -1.9685 -0.7874 0.9843, -1.9685 -0.6398 0.9843, -1.1811 -0.7874 0.9843, -1.1811 -0.6398 0.9843, -0.3937 -0.7874 0.9843, -0.3937 -0.6398 0.9843, 0.3937 -0.7874 0.9843, 0.3937 -0.6398 0.9843, 1.1811 -0.7874 0.9843, 1.1811 -0.6398 0.9843, 1.9685 -0.7874 0.9843, 1.9685 -0.6398 0.9843, 2.2638 -0.4921 0.9843, 2.4606 -0.4921 0.9843, 2.2638 -0.2953 0.9843, 1.9685 -0.0 0.9843, 2.4606 -0.2953 0.9843, 1.4764 -0.2953 0.9843, 1.1811 -0.0 0.9843, 1.6732 -0.2953 0.9843, 1.6732 -0.4921 0.9843, 1.4764 -0.4921 0.9843, 0.689 -0.2953 0.9843, 0.3937 -0.0 0.9843, 0.8858 -0.2953 0.9843, 0.8858 -0.4921 0.9843, 0.689 -0.4921 0.9843, -0.0984 -0.2953 0.9843, -0.3937 -0.0 0.9843, 0.0984 -0.2953 0.9843, 0.0984 -0.4921 0.9843, -0.0984 -0.4921 0.9843, -0.8858 -0.2953 0.9843, -1.1811 -0.0 0.9843, -0.689 -0.2953 0.9843, -0.689 -0.4921 0.9843, -0.8858 -0.4921 0.9843, -1.6732 -0.2953 0.9843, -1.9685 -0.0 0.9843, -1.4764 -0.2953 0.9843, -1.4764 -0.4921 0.9843, -1.6732 -0.4921 0.9843, -2.4606 -0.2953 0.9843, -2.6919 -0.0 0.9843, -2.2638 -0.2953 0.9843, -2.2638 -0.4921 0.9843, -2.4606 -0.4921 0.9843, 2.2638 0.4921 0.9843, 1.9685 0.7874 0.9843, 2.4606 0.4921 0.9843, 2.4606 0.2953 0.9843, 2.2638 0.2953 0.9843, 1.4764 0.4921 0.9843, 1.1811 0.7874 0.9843, 1.6732 0.4921 0.9843, 1.6732 0.2953 0.9843, 1.4764 0.2953 0.9843, 0.689 0.4921 0.9843, 0.3937 0.7874 0.9843, 0.8858 0.4921 0.9843, 0.8858 0.2953 0.9843, 0.689 0.2953 0.9843, -0.0984 0.4921 0.9843, -0.3937 0.7874 0.9843, 0.0984 0.4921 0.9843, 0.0984 0.2953 0.9843, -0.0984 0.2953 0.9843, -0.8858 0.4921 0.9843, -1.1811 0.7874 0.9843, -0.689 0.4921 0.9843, -0.689 0.2953 0.9843, -0.8858 0.2953 0.9843, -1.6732 0.4921 0.9843, -1.9685 0.7874 0.9843, -1.4764 0.4921 0.9843, -1.4764 0.2953 0.9843, -1.6732 0.2953 0.9843, -2.4606 0.4921 0.9843, -2.6919 0.7874 0.9843, -2.2638 0.4921 0.9843, -2.2638 0.2953 0.9843, -2.4606 0.2953 0.9843]} coordIndex [0,1,2,-1,3,4,5,-1,3,6,7,-1,7,6,8,-1,7,8,9,-1,9,8,10,-1,9,10,11,-1,11,10,12,-1,11,12,13,-1,14,15,16,-1,16,15,17,-1,16,17,18,-1,18,17,19,-1,18,19,20,-1,19,0,20,-1,20,0,2,-1,20,2,12,-1,12,2,21,-1,12,21,13,-1,22,23,24,-1,24,23,14,-1,24,14,25,-1,25,14,16,-1,25,16,26,-1,26,16,27,-1,26,27,22,-1,22,27,23,-1,28,27,29,-1,29,27,16,-1,29,16,30,-1,30,16,18,-1,30,18,31,-1,31,18,32,-1,31,32,28,-1,28,32,27,-1,33,32,34,-1,34,32,18,-1,34,18,35,-1,35,18,20,-1,35,20,36,-1,36,20,37,-1,36,37,33,-1,33,37,32,-1,38,37,39,-1,39,37,20,-1,39,20,40,-1,40,20,12,-1,40,12,41,-1,41,12,42,-1,41,42,38,-1,38,42,37,-1,43,42,44,-1,44,42,12,-1,44,12,45,-1,45,12,10,-1,45,10,46,-1,46,10,47,-1,46,47,43,-1,43,47,42,-1,48,47,49,-1,49,47,10,-1,49,10,50,-1,50,10,8,-1,50,8,51,-1,51,8,52,-1,51,52,48,-1,48,52,47,-1,53,52,54,-1,54,52,8,-1,54,8,55,-1,55,8,6,-1,55,6,56,-1,56,6,57,-1,56,57,53,-1,53,57,52,-1,58,59,60,-1,60,59,23,-1,60,23,61,-1,61,23,27,-1,61,27,62,-1,62,27,63,-1,62,63,58,-1,58,63,59,-1,64,63,65,-1,65,63,27,-1,65,27,66,-1,66,27,32,-1,66,32,67,-1,67,32,68,-1,67,68,64,-1,64,68,63,-1,69,68,70,-1,70,68,32,-1,70,32,71,-1,71,32,37,-1,71,37,72,-1,72,37,73,-1,72,73,69,-1,69,73,68,-1,74,73,75,-1,75,73,37,-1,75,37,76,-1,76,37,42,-1,76,42,77,-1,77,42,78,-1,77,78,74,-1,74,78,73,-1,79,78,80,-1,80,78,42,-1,80,42,81,-1,81,42,47,-1,81,47,82,-1,82,47,83,-1,82,83,79,-1,79,83,78,-1,84,83,85,-1,85,83,47,-1,85,47,86,-1,86,47,52,-1,86,52,87,-1,87,52,88,-1,87,88,84,-1,84,88,83,-1,89,88,90,-1,90,88,52,-1,90,52,91,-1,91,52,57,-1,91,57,92,-1,92,57,93,-1,92,93,89,-1,89,93,88,-1,3,5,6,-1,6,5,94,-1,6,94,57,-1,57,94,95,-1,57,95,93,-1,4,3,96,-1,96,3,7,-1,96,7,97,-1,97,7,9,-1,97,9,11,-1,98,99,100,-1,100,99,101,-1,100,101,102,-1,102,101,103,-1,102,103,104,-1,104,103,105,-1,104,105,98,-1,98,105,99,-1,106,107,101,-1,101,107,103,-1,108,106,99,-1,99,106,101,-1,109,108,105,-1,105,108,99,-1,103,107,110,-1,111,109,1,-1,1,109,105,-1,110,13,103,-1,103,13,21,-1,103,21,105,-1,105,21,2,-1,105,2,1,-1,97,110,96,-1,96,110,107,-1,96,107,112,-1,112,107,106,-1,112,106,113,-1,113,106,108,-1,113,108,114,-1,114,108,109,-1,114,109,115,-1,115,109,111,-1,104,98,116,-1,116,117,104,-1,104,117,118,-1,104,118,119,-1,120,100,121,-1,121,100,102,-1,121,102,122,-1,122,102,123,-1,124,119,118,-1,124,125,126,-1,126,125,127,-1,126,127,128,-1,128,127,129,-1,128,129,130,-1,130,129,131,-1,130,131,132,-1,132,131,133,-1,132,133,134,-1,134,133,135,-1,134,135,136,-1,136,135,137,-1,137,138,139,-1,138,137,140,-1,140,137,141,-1,140,141,142,-1,142,141,121,-1,142,121,139,-1,139,121,122,-1,139,122,137,-1,137,122,123,-1,137,123,136,-1,143,144,145,-1,145,144,141,-1,145,141,146,-1,146,141,137,-1,146,137,147,-1,147,137,135,-1,147,135,143,-1,143,135,144,-1,148,149,150,-1,150,149,144,-1,150,144,151,-1,151,144,135,-1,151,135,152,-1,152,135,133,-1,152,133,148,-1,148,133,149,-1,153,154,155,-1,155,154,149,-1,155,149,156,-1,156,149,133,-1,156,133,157,-1,157,133,131,-1,157,131,153,-1,153,131,154,-1,158,159,160,-1,160,159,154,-1,160,154,161,-1,161,154,131,-1,161,131,162,-1,162,131,129,-1,162,129,158,-1,158,129,159,-1,163,164,165,-1,165,164,159,-1,165,159,166,-1,166,159,129,-1,166,129,167,-1,167,129,127,-1,167,127,163,-1,163,127,164,-1,168,169,170,-1,170,169,164,-1,170,164,171,-1,171,164,127,-1,171,127,172,-1,172,127,125,-1,172,125,168,-1,168,125,169,-1,173,174,175,-1,175,174,120,-1,175,120,176,-1,176,120,121,-1,176,121,177,-1,177,121,141,-1,177,141,173,-1,173,141,174,-1,178,179,180,-1,180,179,174,-1,180,174,181,-1,181,174,141,-1,181,141,182,-1,182,141,144,-1,182,144,178,-1,178,144,179,-1,183,184,185,-1,185,184,179,-1,185,179,186,-1,186,179,144,-1,186,144,187,-1,187,144,149,-1,187,149,183,-1,183,149,184,-1,188,189,190,-1,190,189,184,-1,190,184,191,-1,191,184,149,-1,191,149,192,-1,192,149,154,-1,192,154,188,-1,188,154,189,-1,193,194,195,-1,195,194,189,-1,195,189,196,-1,196,189,154,-1,196,154,197,-1,197,154,159,-1,197,159,193,-1,193,159,194,-1,198,199,200,-1,200,199,194,-1,200,194,201,-1,201,194,159,-1,201,159,202,-1,202,159,164,-1,202,164,198,-1,198,164,199,-1,203,204,205,-1,205,204,199,-1,205,199,206,-1,206,199,164,-1,206,164,207,-1,207,164,169,-1,207,169,203,-1,203,169,204,-1,124,118,125,-1,125,118,117,-1,125,117,169,-1,169,117,116,-1,169,116,204,-1,100,120,174,-1,174,179,100,-1,100,179,184,-1,100,184,98,-1,98,184,189,-1,98,189,194,-1,194,199,98,-1,98,199,204,-1,98,204,116,-1,119,124,104,-1,104,124,126,-1,132,102,130,-1,130,102,104,-1,130,104,128,-1,128,104,126,-1,132,134,102,-1,102,134,136,-1,102,136,123,-1,112,95,94,-1,112,94,96,-1,96,94,5,-1,96,5,4,-1,115,0,19,-1,115,19,114,-1,114,19,17,-1,114,17,15,-1,59,113,23,-1,23,113,114,-1,23,114,14,-1,14,114,15,-1,113,59,63,-1,63,68,113,-1,113,68,73,-1,113,73,112,-1,112,73,78,-1,112,78,83,-1,83,88,112,-1,112,88,93,-1,112,93,95,-1,97,11,110,-1,110,11,13,-1,111,1,115,-1,115,1,0,-1]}}
Shape{appearance Appearance{material Material{diffuseColor 0.8274509803921568 0.6666666666666666 0.12941176470588237 transparency 0.0}}geometry IndexedFaceSet{ccw TRUE solid FALSE coord Coordinate{point [-2.2638 0.4921 3.3858, -2.2638 0.2953 3.3858, -2.2638 0.4921 1.9685, -2.2638 0.2953 1.9685, -2.4606 0.4921 3.3858, -2.4606 0.4921 1.9685, -2.4606 0.2953 3.3858, -2.4606 0.2953 1.9685]} coordIndex [0,1,2,-1,2,1,3,-1,4,0,5,-1,5,0,2,-1,6,4,7,-1,7,4,5,-1,1,6,3,-1,3,6,7,-1,4,6,0,-1,0,6,1,-1]}}
Shape{appearance Appearance{material Material{diffuseColor 0.6666666666666666 0.6666666666666666 0.6666666666666666 transparency 0.0}}geometry IndexedFaceSet{ccw TRUE solid FALSE coord Coordinate{point [-2.2638 0.2953 0.0, -2.2638 0.4921 0.0, -2.2638 0.2953 0.9843, -2.2638 0.4921 0.9843, -2.4606 0.2953 0.0, -2.4606 0.2953 0.9843, -2.4606 0.4921 0.0, -2.4606 0.4921 0.9843]} coordIndex [0,1,2,-1,2,1,3,-1,4,0,5,-1,5,0,2,-1,6,4,7,-1,7,4,5,-1,1,6,3,-1,3,6,7,-1,4,6,0,-1,0,6,1,-1]}}
Shape{appearance Appearance{material Material{diffuseColor 0.8274509803921568 0.6666666666666666 0.12941176470588237 transparency 0.0}}geometry IndexedFaceSet{ccw TRUE solid FALSE coord Coordinate{point [-1.4764 0.4921 3.3858, -1.4764 0.2953 3.3858, -1.4764 0.4921 1.9685, -1.4764 0.2953 1.9685, -1.6732 0.4921 3.3858, -1.6732 0.4921 1.9685, -1.6732 0.2953 3.3858, -1.6732 0.2953 1.9685]} coordIndex [0,1,2,-1,2,1,3,-1,4,0,5,-1,5,0,2,-1,6,4,7,-1,7,4,5,-1,1,6,3,-1,3,6,7,-1,4,6,0,-1,0,6,1,-1]}}
Shape{appearance Appearance{material Material{diffuseColor 0.6666666666666666 0.6666666666666666 0.6666666666666666 transparency 0.0}}geometry IndexedFaceSet{ccw TRUE solid FALSE coord Coordinate{point [-1.4764 0.2953 0.0, -1.4764 0.4921 0.0, -1.4764 0.2953 0.9843, -1.4764 0.4921 0.9843, -1.6732 0.2953 0.0, -1.6732 0.2953 0.9843, -1.6732 0.4921 0.0, -1.6732 0.4921 0.9843, -0.689 0.2953 0.0, -0.689 0.4921 0.0, -0.689 0.2953 0.9843, -0.689 0.4921 0.9843, -0.8858 0.2953 0.0, -0.8858 0.2953 0.9843, -0.8858 0.4921 0.0, -0.8858 0.4921 0.9843, 0.0984 0.2953 0.0, 0.0984 0.4921 0.0, 0.0984 0.2953 0.9843, 0.0984 0.4921 0.9843, -0.0984 0.2953 0.0, -0.0984 0.2953 0.9843, -0.0984 0.4921 0.0, -0.0984 0.4921 0.9843, 0.8858 0.2953 0.0, 0.8858 0.4921 0.0, 0.8858 0.2953 0.9843, 0.8858 0.4921 0.9843, 0.689 0.2953 0.0, 0.689 0.2953 0.9843, 0.689 0.4921 0.0, 0.689 0.4921 0.9843, 1.6732 0.2953 0.0, 1.6732 0.4921 0.0, 1.6732 0.2953 0.9843, 1.6732 0.4921 0.9843, 1.4764 0.2953 0.0, 1.4764 0.2953 0.9843, 1.4764 0.4921 0.0, 1.4764 0.4921 0.9843, 2.4606 0.2953 0.0, 2.4606 0.4921 0.0, 2.4606 0.2953 0.9843, 2.4606 0.4921 0.9843, 2.2638 0.2953 0.0, 2.2638 0.2953 0.9843, 2.2638 0.4921 0.0, 2.2638 0.4921 0.9843, -2.2638 -0.4921 0.0, -2.2638 -0.2953 0.0, -2.2638 -0.4921 0.9843, -2.2638 -0.2953 0.9843, -2.4606 -0.4921 0.0, -2.4606 -0.4921 0.9843, -2.4606 -0.2953 0.0, -2.4606 -0.2953 0.9843, -1.4764 -0.4921 0.0, -1.4764 -0.2953 0.0, -1.4764 -0.4921 0.9843, -1.4764 -0.2953 0.9843, -1.6732 -0.4921 0.0, -1.6732 -0.4921 0.9843, -1.6732 -0.2953 0.0, -1.6732 -0.2953 0.9843, -0.689 -0.4921 0.0, -0.689 -0.2953 0.0, -0.689 -0.4921 0.9843, -0.689 -0.2953 0.9843, -0.8858 -0.4921 0.0, -0.8858 -0.4921 0.9843, -0.8858 -0.2953 0.0, -0.8858 -0.2953 0.9843, 0.0984 -0.4921 0.0, 0.0984 -0.2953 0.0, 0.0984 -0.4921 0.9843, 0.0984 -0.2953 0.9843, -0.0984 -0.4921 0.0, -0.0984 -0.4921 0.9843, -0.0984 -0.2953 0.0, -0.0984 -0.2953 0.9843, 0.8858 -0.4921 0.0, 0.8858 -0.2953 0.0, 0.8858 -0.4921 0.9843, 0.8858 -0.2953 0.9843, 0.689 -0.4921 0.0, 0.689 -0.4921 0.9843, 0.689 -0.2953 0.0, 0.689 -0.2953 0.9843, 1.6732 -0.4921 0.0, 1.6732 -0.2953 0.0, 1.6732 -0.4921 0.9843, 1.6732 -0.2953 0.9843, 1.4764 -0.4921 0.0, 1.4764 -0.4921 0.9843, 1.4764 -0.2953 0.0, 1.4764 -0.2953 0.9843, 2.4606 -0.4921 0.0, 2.4606 -0.2953 0.0, 2.4606 -0.4921 0.9843, 2.4606 -0.2953 0.9843, 2.2638 -0.4921 0.0, 2.2638 -0.4921 0.9843, 2.2638 -0.2953 0.0, 2.2638 -0.2953 0.9843]} coordIndex [0,1,2,-1,2,1,3,-1,4,0,5,-1,5,0,2,-1,6,4,7,-1,7,4,5,-1,1,6,3,-1,3,6,7,-1,4,6,0,-1,0,6,1,-1,8,9,10,-1,10,9,11,-1,12,8,13,-1,13,8,10,-1,14,12,15,-1,15,12,13,-1,9,14,11,-1,11,14,15,-1,12,14,8,-1,8,14,9,-1,16,17,18,-1,18,17,19,-1,20,16,21,-1,21,16,18,-1,22,20,23,-1,23,20,21,-1,17,22,19,-1,19,22,23,-1,20,22,16,-1,16,22,17,-1,24,25,26,-1,26,25,27,-1,28,24,29,-1,29,24,26,-1,30,28,31,-1,31,28,29,-1,25,30,27,-1,27,30,31,-1,28,30,24,-1,24,30,25,-1,32,33,34,-1,34,33,35,-1,36,32,37,-1,37,32,34,-1,38,36,39,-1,39,36,37,-1,33,38,35,-1,35,38,39,-1,36,38,32,-1,32,38,33,-1,40,41,42,-1,42,41,43,-1,44,40,45,-1,45,40,42,-1,46,44,47,-1,47,44,45,-1,41,46,43,-1,43,46,47,-1,44,46,40,-1,40,46,41,-1,48,49,50,-1,50,49,51,-1,52,48,53,-1,53,48,50,-1,54,52,55,-1,55,52,53,-1,49,54,51,-1,51,54,55,-1,52,54,48,-1,48,54,49,-1,56,57,58,-1,58,57,59,-1,60,56,61,-1,61,56,58,-1,62,60,63,-1,63,60,61,-1,57,62,59,-1,59,62,63,-1,60,62,56,-1,56,62,57,-1,64,65,66,-1,66,65,67,-1,68,64,69,-1,69,64,66,-1,70,68,71,-1,71,68,69,-1,65,70,67,-1,67,70,71,-1,68,70,64,-1,64,70,65,-1,72,73,74,-1,74,73,75,-1,76,72,77,-1,77,72,74,-1,78,76,79,-1,79,76,77,-1,73,78,75,-1,75,78,79,-1,76,78,72,-1,72,78,73,-1,80,81,82,-1,82,81,83,-1,84,80,85,-1,85,80,82,-1,86,84,87,-1,87,84,85,-1,81,86,83,-1,83,86,87,-1,84,86,80,-1,80,86,81,-1,88,89,90,-1,90,89,91,-1,92,88,93,-1,93,88,90,-1,94,92,95,-1,95,92,93,-1,89,94,91,-1,91,94,95,-1,92,94,88,-1,88,94,89,-1,96,97,98,-1,98,97,99,-1,100,96,101,-1,101,96,98,-1,102,100,103,-1,103,100,101,-1,97,102,99,-1,99,102,103,-1,100,102,96,-1,96,102,97,-1]}}