#VRML V2.0 utf8
# generated by schgen part add
Shape{appearance Appearance{material Material{diffuseColor 0.25098039215686274 0.25098039215686274 0.25098039215686274 transparency 0.0}}geometry IndexedFaceSet{ccw TRUE solid FALSE coord Coordinate{point [0.5512 0.374 0.0079, 0.7677 0.374 0.0079, 0.7677 0.0787 0.0079, -0.2966 -0.0155 0.0079, -0.2966 -0.0241 0.0079, -0.3042 -0.0287 0.0079, -0.2953 0.6693 0.0079, -0.2953 0.4921 0.0079, -0.3042 0.6693 0.0079, -0.2966 0.0484 0.0079, -0.2966 0.0378 0.0079, -0.2877 0.0416 0.0079, -0.2951 -0.0163 0.0079, -0.2781 0.0428 0.0079, -0.2704 0.042 0.0079, -0.1969 0.4921 0.0079, -0.0748 0.0787 0.0079, 0.2559 0.374 0.0079, 0.2559 0.6693 0.0079, 0.5512 0.6693 0.0079, 0.0984 0.374 0.0079, 0.0984 0.6693 0.0079, -0.1969 0.6693 0.0079, -0.2645 0.0398 0.0079, -0.259 0.0362 0.0079, -0.2543 0.0309 0.0079, -0.2485 0.0103 0.0079, -0.2493 0.0018 0.0079, -0.2515 -0.005 0.0079, -0.269 -0.0197 0.0079, -0.2763 -0.0205 0.0079, -0.2633 -0.0176 0.0079, -0.2584 -0.0143 0.0079, -0.2547 -0.0104 0.0079, -0.2868 -0.0194 0.0079, -0.251 0.0249 0.0079, -0.2489 0.0164 0.0079, -0.2576 -0.0255 0.0079, -0.2313 -0.0282 0.0079, -0.2652 -0.0282 0.0079, -0.2703 -0.0287 0.0079, -0.2421 0.0298 0.0079, -0.2468 0.0371 0.0079, -0.2015 0.0505 0.0079, -0.1909 0.0505 0.0079, -0.1909 -0.0282 0.0079, -0.0748 -0.0287 0.0079, -0.2512 -0.0215 0.0079, -0.2453 -0.0153 0.0079, -0.2313 -0.0196 0.0079, -0.2411 -0.0078 0.0079, -0.2015 -0.0196 0.0079, -0.2539 0.044 0.0079, -0.2613 0.0483 0.0079, -0.2701 0.0508 0.0079, -0.2387 0.0005 0.0079, -0.238 0.0097 0.0079, -0.2391 0.0209 0.0079, -0.278 0.0515 0.0079, -0.2875 0.0508 0.0079, -0.2953 -0.6693 0.0079, -0.3042 -0.6693 0.0079, -0.2953 -0.4921 0.0079, 0.7677 -0.0787 0.0079, 0.7677 -0.374 0.0079, -0.0748 -0.0787 0.0079, 0.5512 -0.374 0.0079, -0.277 -0.0291 0.0079, -0.2802 -0.0287 0.0079, -0.2882 -0.0276 0.0079, -0.2749 -0.0292 0.0079, 0.0984 -0.374 0.0079, 0.2559 -0.374 0.0079, 0.2559 -0.6693 0.0079, 0.5512 -0.6693 0.0079, -0.1969 -0.4921 0.0079, -0.1969 -0.6693 0.0079, 0.0984 -0.6693 0.0079, -0.3542 -0.0282 0.0079, -0.3119 -0.0282 0.0079, -0.4387 -0.0282 0.0079, -0.429 -0.0066 0.0079, -0.4245 -0.0137 0.0079, -0.3119 0.0505 0.0079, -0.3523 0.0419 0.0079, -0.3225 0.0419 0.0079, -0.3225 0.016 0.0079, -0.418 -0.0199 0.0079, -0.4098 -0.0247 0.0079, -0.4007 -0.0274 0.0079, -0.5906 0.6693 0.0079, -0.4921 0.6693 0.0079, -0.5906 0.4528 0.0079, -0.4921 0.4921 0.0079, -0.6693 0.374 0.0079, -0.7677 0.2559 0.0079, -0.7677 0.374 0.0079, -0.5906 0.2559 0.0079, -0.3695 0.0505 0.0079, -0.3503 0.016 0.0079, -0.3503 0.0073 0.0079, -0.3225 0.0073 0.0079, -0.3225 -0.0196 0.0079, -0.3542 -0.0196 0.0079, -0.3695 -0.0282 0.0079, -0.3909 -0.0282 0.0079, -0.3937 0.6693 0.0079, -0.3937 0.4921 0.0079, -0.3523 0.0505 0.0079, -0.5906 0.0591 0.0079, -0.479 0.0505 0.0079, -0.5906 -0.0287 0.0079, -0.5097 -0.0282 0.0079, -0.4982 -0.0282 0.0079, -0.4502 -0.0282 0.0079, -0.7677 0.0591 0.0079, -0.7677 0.1575 0.0079, -0.5906 0.1575 0.0079, -0.4684 0.0505 0.0079, -0.3918 0.0505 0.0079, -0.4266 0.0341 0.0079, -0.4302 0.0273 0.0079, -0.4323 0.0195 0.0079, -0.4329 0.0121 0.0079, -0.4318 0.0016 0.0079, -0.4031 0.0493 0.0079, -0.4123 0.0461 0.0079, -0.4209 0.0403 0.0079, -0.421 0.0403 0.0079, -0.3937 -0.6693 0.0079, -0.3937 -0.4921 0.0079, -0.4921 -0.6693 0.0079, -0.5906 -0.6693 0.0079, -0.4921 -0.4921 0.0079, -0.5906 -0.374 0.0079, -0.7677 -0.374 0.0079, -0.7677 -0.2559 0.0079, -0.5906 -0.2559 0.0079, -0.5906 -0.1575 0.0079, -0.4902 -0.0061 0.0079, -0.4577 -0.0061 0.0079, -0.5906 -0.0591 0.0079, -0.7677 -0.0591 0.0079, -0.7677 -0.1575 0.0079, -0.5906 0.689 0.0472, -0.4921 0.689 0.0472, -0.5906 0.6693 0.0472, -0.4921 0.6693 0.0472, -0.7677 0.374 0.0472, -0.7677 0.2559 0.0472, -0.7874 0.374 0.0472, -0.7874 0.2559 0.0472, 0.7087 0.6693 0.0472, 0.7087 0.689 0.0472, 0.7677 0.6693 0.0472, 0.7874 0.689 0.0472, 0.7677 0.5315 0.0472, 0.7874 0.5315 0.0472, 0.7874 0.374 0.0472, 0.7874 0.0787 0.0472, 0.7677 0.374 0.0472, 0.7677 0.0787 0.0472, -0.7677 0.5315 0.0079, -0.7677 0.6693 0.0079, -0.7283 0.5315 0.0079, -0.7283 0.6693 0.0079, 0.7087 0.6693 0.0079, 0.7677 0.6693 0.0079, -0.7677 0.5315 0.0472, -0.7874 0.5315 0.0472, -0.7677 0.6693 0.0472, -0.7874 0.689 0.0472, -0.7283 0.6693 0.0472, -0.7283 0.689 0.0472, -0.1969 0.689 0.0472, 0.0984 0.689 0.0472, -0.1969 0.6693 0.0472, 0.0984 0.6693 0.0472, -0.3937 0.689 0.0472, -0.2953 0.689 0.0472, -0.3937 0.6693 0.0472, -0.2953 0.6693 0.0472, -0.7677 -0.2559 0.0472, -0.7677 -0.374 0.0472, -0.7874 -0.2559 0.0472, -0.7874 -0.374 0.0472, 0.5512 0.6693 0.0472, 0.2559 0.6693 0.0472, 0.5512 0.689 0.0472, 0.2559 0.689 0.0472, -0.7874 -0.1575 0.0472, -0.7874 -0.0591 0.0472, -0.7677 -0.1575 0.0472, -0.7677 -0.0591 0.0472, -0.7677 0.1575 0.0472, -0.7677 0.0591 0.0472, -0.7874 0.1575 0.0472, -0.7874 0.0591 0.0472, 0.7677 0.5315 0.0079, 0.7677 -0.5315 0.0472, 0.7874 -0.5315 0.0472, 0.7677 -0.6693 0.0472, 0.7874 -0.689 0.0472, 0.7087 -0.6693 0.0472, 0.7087 -0.689 0.0472, 0.7874 -0.0787 0.0472, 0.7874 -0.374 0.0472, 0.7677 -0.0787 0.0472, 0.7677 -0.374 0.0472, 0.7087 -0.6693 0.0079, 0.7677 -0.6693 0.0079, 0.7677 -0.5315 0.0079, 0.7087 -0.5315 0.0079, 0.5512 -0.689 0.0472, 0.2559 -0.689 0.0472, 0.5512 -0.6693 0.0472, 0.2559 -0.6693 0.0472, -0.3937 -0.6693 0.0472, -0.2953 -0.6693 0.0472, -0.3937 -0.689 0.0472, -0.2953 -0.689 0.0472, 0.0984 -0.689 0.0472, -0.1969 -0.689 0.0472, 0.0984 -0.6693 0.0472, -0.1969 -0.6693 0.0472, -0.4921 -0.689 0.0472, -0.5906 -0.689 0.0472, -0.4921 -0.6693 0.0472, -0.5906 -0.6693 0.0472, 0.7087 0.5315 0.0079, -0.7283 -0.6693 0.0472, -0.7283 -0.689 0.0472, -0.7677 -0.6693 0.0472, -0.7874 -0.689 0.0472, -0.7677 -0.5315 0.0472, -0.7874 -0.5315 0.0472, 0.7874 -0.374 0.0866, 0.7874 -0.689 0.3622, 0.7874 0.0787 0.0866, 0.7874 0.374 0.0866, 0.7874 -0.0787 0.0866, 0.7874 -0.5315 0.0866, 0.7874 0.5315 0.0866, 0.7874 0.689 0.3622, 0.7087 0.689 0.0866, 0.5512 0.689 0.0866, 0.2559 0.689 0.0866, -0.7874 0.689 0.3622, 0.0984 0.689 0.0866, -0.2953 0.689 0.0866, -0.3937 0.689 0.0866, -0.4921 0.689 0.0866, -0.1969 0.689 0.0866, -0.7283 0.689 0.0866, -0.5906 0.689 0.0866, -0.7874 -0.0591 0.0866, -0.7874 0.374 0.0866, -0.7874 0.2559 0.0866, -0.7874 0.5315 0.0866, -0.7874 -0.689 0.3622, -0.7874 0.1575 0.0866, -0.7874 -0.1575 0.0866, -0.7874 -0.2559 0.0866, -0.7874 0.0591 0.0866, -0.7874 -0.5315 0.0866, -0.7874 -0.374 0.0866, -0.1969 -0.689 0.0866, 0.0984 -0.689 0.0866, 0.2559 -0.689 0.0866, -0.5906 -0.689 0.0866, -0.7283 -0.689 0.0866, -0.4921 -0.689 0.0866, -0.3937 -0.689 0.0866, -0.2953 -0.689 0.0866, 0.7087 -0.689 0.0866, 0.5512 -0.689 0.0866, -0.6082 0.564 0.3622, -0.6002 0.5535 0.3622, -0.5952 0.5413 0.3622, -0.6002 0.5029 0.3622, -0.5952 0.5151 0.3622, -0.5934 0.5282 0.3622, -0.644 0.4776 0.3622, -0.6571 0.4794 0.3622, -0.6693 0.4844 0.3622, -0.6798 0.4924 0.3622, -0.6929 0.5413 0.3622, -0.6878 0.5535 0.3622, -0.6798 0.564 0.3622, -0.6693 0.572 0.3622, -0.6309 0.5771 0.3622, -0.6187 0.572 0.3622, -0.6082 0.4924 0.3622, -0.6187 0.4844 0.3622, -0.6309 0.4794 0.3622, -0.6878 0.5029 0.3622, -0.6929 0.5151 0.3622, -0.6946 0.5282 0.3622, -0.6571 0.5771 0.3622, -0.644 0.5788 0.3622]} coordIndex [0,1,2,-1,3,4,5,-1,6,7,8,-1,8,7,9,-1,8,9,10,-1,3,11,12,-1,12,11,13,-1,12,13,14,-1,15,2,7,-1,7,2,16,-1,17,18,19,-1,19,0,17,-1,17,0,2,-1,17,2,20,-1,20,2,15,-1,20,15,21,-1,21,15,22,-1,14,23,12,-1,12,23,24,-1,12,24,25,-1,26,27,12,-1,12,27,28,-1,29,30,31,-1,31,30,32,-1,28,33,12,-1,12,33,32,-1,12,32,34,-1,34,32,30,-1,25,35,12,-1,12,35,36,-1,12,36,26,-1,37,38,39,-1,39,38,40,-1,41,42,43,-1,43,42,7,-1,43,7,44,-1,44,7,16,-1,44,16,45,-1,45,16,46,-1,37,47,38,-1,38,47,48,-1,38,48,49,-1,49,48,50,-1,49,50,51,-1,42,52,7,-1,7,52,53,-1,7,53,54,-1,50,55,51,-1,51,55,56,-1,51,56,43,-1,43,56,57,-1,43,57,41,-1,54,58,7,-1,7,58,59,-1,7,59,9,-1,60,61,62,-1,62,61,5,-1,63,64,65,-1,65,64,66,-1,67,62,68,-1,68,62,5,-1,68,5,69,-1,69,5,4,-1,38,45,40,-1,40,45,46,-1,40,46,70,-1,70,46,65,-1,71,65,72,-1,72,65,66,-1,72,66,73,-1,73,66,74,-1,67,70,62,-1,62,70,65,-1,62,65,75,-1,75,65,71,-1,75,71,76,-1,76,71,77,-1,78,79,5,-1,80,81,82,-1,79,83,5,-1,5,83,8,-1,5,8,3,-1,3,8,10,-1,3,10,11,-1,84,85,86,-1,82,87,80,-1,80,87,88,-1,80,88,89,-1,90,91,92,-1,92,91,93,-1,92,93,94,-1,95,96,97,-1,97,96,94,-1,98,99,100,-1,101,102,100,-1,100,102,103,-1,100,103,98,-1,98,103,78,-1,98,78,104,-1,104,78,5,-1,104,5,105,-1,106,8,107,-1,107,8,83,-1,107,83,93,-1,93,83,108,-1,93,108,94,-1,94,108,84,-1,109,110,111,-1,111,110,112,-1,111,112,113,-1,89,105,80,-1,80,105,5,-1,80,5,114,-1,115,116,109,-1,109,116,117,-1,109,117,110,-1,110,117,97,-1,110,97,118,-1,86,99,84,-1,84,99,98,-1,84,98,94,-1,94,98,119,-1,118,120,121,-1,121,122,118,-1,118,122,123,-1,118,123,80,-1,80,123,124,-1,80,124,81,-1,119,125,94,-1,94,125,126,-1,94,126,97,-1,97,126,127,-1,97,127,118,-1,118,127,128,-1,118,128,120,-1,61,129,130,-1,131,132,133,-1,133,132,134,-1,135,136,134,-1,134,136,137,-1,134,137,133,-1,133,137,130,-1,61,130,5,-1,5,130,137,-1,5,137,138,-1,139,140,113,-1,113,140,114,-1,113,114,111,-1,111,114,5,-1,111,5,141,-1,141,5,138,-1,141,138,142,-1,142,138,143,-1,144,145,146,-1,146,145,147,-1,148,149,150,-1,150,149,151,-1,146,147,90,-1,90,147,91,-1,96,95,148,-1,148,95,149,-1,152,153,154,-1,154,153,155,-1,154,155,156,-1,156,155,157,-1,158,159,160,-1,160,159,161,-1,160,161,1,-1,1,161,2,-1,162,163,164,-1,164,163,165,-1,152,154,166,-1,166,154,167,-1,168,169,170,-1,170,169,171,-1,170,171,172,-1,172,171,173,-1,165,163,172,-1,172,163,170,-1,174,175,176,-1,176,175,177,-1,176,177,22,-1,22,177,21,-1,178,179,180,-1,180,179,181,-1,180,181,106,-1,106,181,6,-1,182,183,184,-1,184,183,185,-1,136,135,182,-1,182,135,183,-1,186,187,188,-1,188,187,189,-1,168,170,162,-1,162,170,163,-1,190,191,192,-1,192,191,193,-1,192,193,143,-1,143,193,142,-1,194,195,196,-1,196,195,197,-1,198,167,156,-1,156,167,154,-1,199,200,201,-1,201,200,202,-1,201,202,203,-1,203,202,204,-1,205,206,207,-1,207,206,208,-1,209,210,203,-1,203,210,201,-1,211,210,212,-1,212,210,209,-1,199,201,211,-1,211,201,210,-1,213,214,215,-1,215,214,216,-1,215,216,74,-1,74,216,73,-1,217,218,219,-1,219,218,220,-1,129,60,217,-1,217,60,218,-1,221,222,223,-1,223,222,224,-1,223,224,77,-1,77,224,76,-1,225,226,227,-1,227,226,228,-1,227,228,131,-1,131,228,132,-1,116,115,194,-1,194,115,195,-1,167,198,166,-1,166,198,229,-1,230,231,232,-1,232,231,233,-1,232,233,234,-1,234,233,235,-1,236,206,205,-1,237,202,200,-1,159,158,238,-1,238,158,239,-1,205,240,236,-1,236,240,237,-1,236,237,241,-1,241,237,200,-1,157,155,242,-1,242,155,243,-1,242,243,239,-1,239,243,237,-1,239,237,238,-1,238,237,240,-1,155,153,244,-1,188,189,245,-1,245,189,246,-1,155,244,243,-1,243,244,245,-1,243,245,247,-1,247,245,246,-1,247,246,248,-1,249,179,178,-1,250,251,247,-1,178,250,249,-1,249,250,247,-1,249,247,252,-1,252,247,248,-1,252,248,174,-1,174,248,175,-1,173,171,253,-1,253,171,247,-1,253,247,254,-1,254,247,251,-1,254,251,144,-1,144,251,145,-1,247,171,169,-1,255,191,190,-1,150,151,256,-1,256,151,257,-1,169,258,247,-1,247,258,256,-1,247,256,259,-1,259,256,257,-1,259,257,260,-1,261,262,259,-1,190,261,255,-1,255,261,259,-1,255,259,263,-1,263,259,260,-1,263,260,197,-1,197,260,196,-1,235,233,264,-1,264,233,259,-1,264,259,265,-1,265,259,262,-1,265,262,185,-1,185,262,184,-1,266,222,221,-1,267,268,237,-1,269,259,270,-1,270,259,233,-1,270,233,231,-1,226,225,269,-1,269,225,271,-1,269,271,259,-1,259,271,272,-1,259,272,237,-1,221,267,266,-1,266,267,237,-1,266,237,273,-1,273,237,272,-1,273,272,220,-1,220,272,219,-1,204,202,274,-1,274,202,237,-1,274,237,275,-1,275,237,268,-1,275,268,213,-1,213,268,214,-1,276,277,243,-1,243,277,278,-1,279,237,280,-1,280,237,243,-1,280,243,281,-1,281,243,278,-1,282,283,259,-1,259,283,284,-1,259,284,285,-1,286,287,247,-1,247,287,288,-1,247,288,289,-1,247,290,243,-1,243,290,291,-1,243,291,276,-1,279,292,237,-1,237,292,293,-1,237,293,259,-1,259,293,294,-1,259,294,282,-1,285,295,259,-1,259,295,296,-1,259,296,247,-1,247,296,297,-1,247,297,286,-1,289,298,247,-1,247,298,299,-1,247,299,290,-1]}}
Shape{appearance Appearance{material Material{diffuseColor 0.7529411764705882 0.7529411764705882 0.7529411764705882 transparency 0.0}}geometry IndexedFaceSet{ccw TRUE solid FALSE coord Coordinate{point [-0.5934 0.5282 0.3618, -0.5934 0.5282 0.3622, -0.5952 0.5413 0.3618, -0.5952 0.5413 0.3622, -0.6002 0.5535 0.3618, -0.6002 0.5535 0.3622, -0.6082 0.564 0.3618, -0.6082 0.564 0.3622, -0.6187 0.572 0.3618, -0.6187 0.572 0.3622, -0.6309 0.5771 0.3618, -0.6309 0.5771 0.3622, -0.644 0.5788 0.3618, -0.644 0.5788 0.3622, -0.6571 0.5771 0.3618, -0.6571 0.5771 0.3622, -0.6693 0.572 0.3618, -0.6693 0.572 0.3622, -0.6798 0.564 0.3618, -0.6798 0.564 0.3622, -0.6878 0.5535 0.3618, -0.6878 0.5535 0.3622, -0.6929 0.5413 0.3618, -0.6929 0.5413 0.3622, -0.6946 0.5282 0.3618, -0.6946 0.5282 0.3622, -0.6929 0.5151 0.3618, -0.6929 0.5151 0.3622, -0.6878 0.5029 0.3618, -0.6878 0.5029 0.3622, -0.6798 0.4924 0.3618, -0.6798 0.4924 0.3622, -0.6693 0.4844 0.3618, -0.6693 0.4844 0.3622, -0.6571 0.4794 0.3618, -0.6571 0.4794 0.3622, -0.644 0.4776 0.3618, -0.644 0.4776 0.3622, -0.6309 0.4794 0.3618, -0.6309 0.4794 0.3622, -0.6187 0.4844 0.3618, -0.6187 0.4844 0.3622, -0.6082 0.4924 0.3618, -0.6082 0.4924 0.3622, -0.6002 0.5029 0.3618, -0.6002 0.5029 0.3622, -0.5952 0.5151 0.3618, -0.5952 0.5151 0.3622, -0.644 0.5282 0.3618]} coordIndex [0,1,2,-1,2,1,3,-1,2,3,4,-1,4,3,5,-1,4,5,6,-1,6,5,7,-1,6,7,8,-1,8,7,9,-1,8,9,10,-1,10,9,11,-1,10,11,12,-1,12,11,13,-1,12,13,14,-1,14,13,15,-1,14,15,16,-1,16,15,17,-1,16,17,18,-1,18,17,19,-1,18,19,20,-1,20,19,21,-1,20,21,22,-1,22,21,23,-1,22,23,24,-1,24,23,25,-1,24,25,26,-1,26,25,27,-1,26,27,28,-1,28,27,29,-1,28,29,30,-1,30,29,31,-1,30,31,32,-1,32,31,33,-1,32,33,34,-1,34,33,35,-1,34,35,36,-1,36,35,37,-1,36,37,38,-1,38,37,39,-1,38,39,40,-1,40,39,41,-1,40,41,42,-1,42,41,43,-1,42,43,44,-1,44,43,45,-1,44,45,46,-1,46,45,47,-1,46,47,0,-1,0,47,1,-1,44,46,48,-1,48,46,0,-1,48,0,2,-1,38,40,48,-1,48,40,42,-1,48,42,44,-1,32,34,48,-1,48,34,36,-1,48,36,38,-1,26,28,48,-1,48,28,30,-1,48,30,32,-1,20,22,48,-1,48,22,24,-1,48,24,26,-1,14,16,48,-1,48,16,18,-1,48,18,20,-1,8,10,48,-1,48,10,12,-1,48,12,14,-1,2,4,48,-1,48,4,6,-1,48,6,8,-1]}}
Shape{appearance Appearance{material Material{diffuseColor 0.25098039215686274 0.25098039215686274 0.25098039215686274 transparency 0.0}}geometry IndexedFaceSet{ccw TRUE solid FALSE coord Coordinate{point [0.5512 0.6693 0.0079, 0.2559 0.6693 0.0079, 0.5512 0.6693 0.0472, 0.2559 0.6693 0.0472, 0.7677 -0.0787 0.0472, 0.7677 -0.374 0.0472, 0.7677 -0.0787 0.0079, 0.7677 -0.374 0.0079, -0.7283 -0.6693 0.0472, -0.7677 -0.6693 0.0472, -0.7283 -0.6693 0.0079, -0.7677 -0.6693 0.0079, -0.7677 -0.5315 0.0079, -0.7677 -0.5315 0.0472, -0.7283 -0.5315 0.0079]} coordIndex [0,1,2,-1,2,1,3,-1,4,5,6,-1,6,5,7,-1,8,9,10,-1,10,9,11,-1,12,11,13,-1,13,11,9,-1,10,11,14,-1,14,11,12,-1]}}
Shape{appearance Appearance{material Material{diffuseColor 1.0 1.0 0.5019607843137255 transparency 0.0}}geometry IndexedFaceSet{ccw TRUE solid FALSE coord Coordinate{point [-0.7913 -0.374 0.0866, -0.7913 -0.5315 0.0866, -0.7874 -0.374 0.0866, -0.7874 -0.5315 0.0866, -0.7283 -0.6929 0.0866, -0.5906 -0.6929 0.0866, -0.7283 -0.689 0.0866, -0.5906 -0.689 0.0866, -0.5906 -0.374 0.0, -0.5906 -0.374 0.0079, -0.5906 -0.6929 0.0, -0.5906 -0.6693 0.0079, -0.5906 -0.689 0.0472, -0.5906 -0.6693 0.0472, -0.7913 -0.374 0.0, -0.7874 -0.374 0.0472, -0.7677 -0.374 0.0079, -0.7677 -0.374 0.0472, -0.7283 -0.5315 0.0, -0.7283 -0.5315 0.0079, -0.7913 -0.5315 0.0, -0.7677 -0.5315 0.0079, -0.7874 -0.5315 0.0472, -0.7677 -0.5315 0.0472, -0.7283 -0.6929 0.0, -0.7283 -0.689 0.0472, -0.7283 -0.6693 0.0079, -0.7283 -0.6693 0.0472, -0.2953 -0.6929 0.0866, -0.1969 -0.6929 0.0866, -0.2953 -0.689 0.0866, -0.1969 -0.689 0.0866, -0.1969 -0.4921 0.0, -0.1969 -0.4921 0.0079, -0.1969 -0.6929 0.0, -0.1969 -0.6693 0.0079, -0.1969 -0.689 0.0472, -0.1969 -0.6693 0.0472, -0.2953 -0.4921 0.0079, -0.2953 -0.4921 0.0, -0.2953 -0.689 0.0472, -0.2953 -0.6693 0.0472, -0.2953 -0.6693 0.0079, -0.2953 -0.6929 0.0, -0.4921 -0.689 0.0866, -0.4921 -0.6929 0.0866, -0.3937 -0.689 0.0866, -0.3937 -0.6929 0.0866, -0.3937 -0.6929 0.0, -0.4921 -0.6929 0.0, -0.3937 -0.4921 0.0, -0.3937 -0.4921 0.0079, -0.3937 -0.6693 0.0079, -0.3937 -0.689 0.0472, -0.3937 -0.6693 0.0472, -0.4921 -0.4921 0.0079, -0.4921 -0.4921 0.0, -0.4921 -0.689 0.0472, -0.4921 -0.6693 0.0472, -0.4921 -0.6693 0.0079, 0.0984 -0.6929 0.0866, 0.2559 -0.6929 0.0866, 0.0984 -0.689 0.0866, 0.2559 -0.689 0.0866, 0.2559 -0.374 0.0, 0.2559 -0.374 0.0079, 0.2559 -0.6929 0.0, 0.2559 -0.6693 0.0079, 0.2559 -0.689 0.0472, 0.2559 -0.6693 0.0472, 0.0984 -0.374 0.0079, 0.0984 -0.374 0.0, 0.0984 -0.689 0.0472, 0.0984 -0.6693 0.0472, 0.0984 -0.6693 0.0079, 0.0984 -0.6929 0.0, 0.7874 -0.5315 0.0866, 0.7913 -0.5315 0.0866, 0.7874 -0.374 0.0866, 0.7913 -0.374 0.0866, 0.5512 -0.689 0.0866, 0.5512 -0.6929 0.0866, 0.7087 -0.689 0.0866, 0.7087 -0.6929 0.0866, 0.7913 -0.5315 0.0, 0.7874 -0.5315 0.0472, 0.7087 -0.5315 0.0079, 0.7087 -0.5315 0.0, 0.7677 -0.5315 0.0079, 0.7677 -0.5315 0.0472, 0.7874 -0.374 0.0472, 0.7913 -0.374 0.0, 0.7677 -0.374 0.0472, 0.7677 -0.374 0.0079, 0.5512 -0.374 0.0079, 0.5512 -0.374 0.0, 0.7087 -0.6929 0.0, 0.5512 -0.6929 0.0, 0.7087 -0.6693 0.0079, 0.7087 -0.689 0.0472, 0.7087 -0.6693 0.0472, 0.5512 -0.689 0.0472, 0.5512 -0.6693 0.0472, 0.5512 -0.6693 0.0079, 0.7874 -0.0787 0.0866, 0.7913 -0.0787 0.0866, 0.7874 0.0787 0.0866, 0.7913 0.0787 0.0866, -0.0748 0.0787 0.0, -0.0748 0.0787 0.0079, 0.7913 0.0787 0.0, 0.7677 0.0787 0.0079, 0.7874 0.0787 0.0472, 0.7677 0.0787 0.0472, 0.7913 -0.0787 0.0, 0.7874 -0.0787 0.0472, -0.0748 -0.0787 0.0079, -0.0748 -0.0787 0.0, 0.7677 -0.0787 0.0079, 0.7677 -0.0787 0.0472, -0.7913 0.0591 0.0866, -0.7913 -0.0591 0.0866, -0.7874 0.0591 0.0866, -0.7874 -0.0591 0.0866, -0.7913 -0.0591 0.0, -0.7913 0.0591 0.0, -0.7874 -0.0591 0.0472, -0.7677 -0.0591 0.0472, -0.7677 -0.0591 0.0079, -0.5906 -0.0591 0.0079, -0.5906 -0.0591 0.0, -0.5906 0.0591 0.0079, -0.5906 0.0591 0.0, -0.7874 0.0591 0.0472, -0.7677 0.0591 0.0079, -0.7677 0.0591 0.0472, -0.7874 0.2559 0.0866, -0.7913 0.2559 0.0866, -0.7874 0.1575 0.0866, -0.7913 0.1575 0.0866, -0.5906 0.1575 0.0079, -0.5906 0.1575 0.0, -0.5906 0.2559 0.0079, -0.5906 0.2559 0.0, -0.7874 0.2559 0.0472, -0.7677 0.2559 0.0472, -0.7677 0.2559 0.0079, -0.7913 0.2559 0.0, -0.7913 0.1575 0.0, -0.7677 0.1575 0.0079, -0.7874 0.1575 0.0472, -0.7677 0.1575 0.0472, -0.7913 -0.1575 0.0866, -0.7913 -0.2559 0.0866, -0.7874 -0.1575 0.0866, -0.7874 -0.2559 0.0866, -0.7913 -0.2559 0.0, -0.7913 -0.1575 0.0, -0.5906 -0.2559 0.0, -0.5906 -0.2559 0.0079, -0.7677 -0.2559 0.0079, -0.7874 -0.2559 0.0472, -0.7677 -0.2559 0.0472, -0.5906 -0.1575 0.0079, -0.5906 -0.1575 0.0, -0.7874 -0.1575 0.0472, -0.7677 -0.1575 0.0472, -0.7677 -0.1575 0.0079, 0.2559 0.689 0.0866, 0.2559 0.6929 0.0866, 0.0984 0.689 0.0866, 0.0984 0.6929 0.0866, 0.0984 0.374 0.0, 0.0984 0.374 0.0079, 0.0984 0.6929 0.0, 0.0984 0.6693 0.0079, 0.0984 0.689 0.0472, 0.0984 0.6693 0.0472, 0.2559 0.6929 0.0, 0.2559 0.689 0.0472, 0.2559 0.374 0.0079, 0.2559 0.374 0.0, 0.2559 0.6693 0.0079, 0.2559 0.6693 0.0472, -0.1969 0.6929 0.0866, -0.2953 0.6929 0.0866, -0.1969 0.689 0.0866, -0.2953 0.689 0.0866, -0.2953 0.4921 0.0079, -0.2953 0.4921 0.0, -0.1969 0.4921 0.0079, -0.1969 0.4921 0.0, -0.1969 0.689 0.0472, -0.1969 0.6693 0.0472, -0.1969 0.6693 0.0079, -0.1969 0.6929 0.0, -0.2953 0.6929 0.0, -0.2953 0.6693 0.0079, -0.2953 0.689 0.0472, -0.2953 0.6693 0.0472, -0.3937 0.689 0.0866, -0.3937 0.6929 0.0866, -0.4921 0.689 0.0866, -0.4921 0.6929 0.0866, -0.4921 0.4921 0.0, -0.4921 0.4921 0.0079, -0.4921 0.6929 0.0, -0.4921 0.6693 0.0079, -0.4921 0.689 0.0472, -0.4921 0.6693 0.0472, -0.3937 0.4921 0.0079, -0.3937 0.4921 0.0, -0.3937 0.689 0.0472, -0.3937 0.6693 0.0472, -0.3937 0.6693 0.0079, -0.3937 0.6929 0.0, 0.7913 0.374 0.0866, 0.7913 0.5315 0.0866, 0.7874 0.374 0.0866, 0.7874 0.5315 0.0866, 0.7087 0.6929 0.0866, 0.5512 0.6929 0.0866, 0.7087 0.689 0.0866, 0.5512 0.689 0.0866, 0.7087 0.6929 0.0, 0.7087 0.689 0.0472, 0.7087 0.5315 0.0079, 0.7087 0.5315 0.0, 0.7087 0.6693 0.0079, 0.7087 0.6693 0.0472, 0.5512 0.374 0.0, 0.5512 0.374 0.0079, 0.5512 0.6929 0.0, 0.5512 0.6693 0.0079, 0.5512 0.689 0.0472, 0.5512 0.6693 0.0472, 0.7874 0.374 0.0472, 0.7677 0.374 0.0472, 0.7677 0.374 0.0079, 0.7913 0.374 0.0, 0.7913 0.5315 0.0, 0.7677 0.5315 0.0079, 0.7874 0.5315 0.0472, 0.7677 0.5315 0.0472, -0.5906 0.689 0.0866, -0.5906 0.6929 0.0866, -0.7283 0.689 0.0866, -0.7283 0.6929 0.0866, -0.7874 0.5315 0.0866, -0.7913 0.5315 0.0866, -0.7874 0.374 0.0866, -0.7913 0.374 0.0866, -0.6693 0.374 0.0, -0.6693 0.374 0.0079, -0.7913 0.374 0.0, -0.7677 0.374 0.0079, -0.7874 0.374 0.0472, -0.7677 0.374 0.0472, -0.5906 0.6929 0.0, -0.5906 0.689 0.0472, -0.5906 0.4528 0.0079, -0.5906 0.4528 0.0, -0.5906 0.6693 0.0079, -0.5906 0.6693 0.0472, -0.7283 0.6929 0.0, -0.7283 0.5315 0.0, -0.7283 0.5315 0.0079, -0.7283 0.6693 0.0079, -0.7283 0.689 0.0472, -0.7283 0.6693 0.0472, -0.7874 0.5315 0.0472, -0.7677 0.5315 0.0472, -0.7677 0.5315 0.0079, -0.7913 0.5315 0.0]} coordIndex [0,1,2,-1,2,1,3,-1,4,5,6,-1,6,5,7,-1,8,9,10,-1,10,9,11,-1,7,5,12,-1,12,5,10,-1,12,10,13,-1,13,10,11,-1,14,0,15,-1,15,0,2,-1,9,8,16,-1,16,8,14,-1,16,14,17,-1,17,14,15,-1,18,19,20,-1,20,19,21,-1,3,1,22,-1,22,1,20,-1,22,20,23,-1,23,20,21,-1,24,4,25,-1,25,4,6,-1,19,18,26,-1,26,18,24,-1,26,24,27,-1,27,24,25,-1,10,5,24,-1,24,5,4,-1,20,1,14,-1,14,1,0,-1,20,14,18,-1,18,14,8,-1,18,8,24,-1,24,8,10,-1,28,29,30,-1,30,29,31,-1,32,33,34,-1,34,33,35,-1,31,29,36,-1,36,29,34,-1,36,34,37,-1,37,34,35,-1,33,32,38,-1,38,32,39,-1,40,41,42,-1,38,39,42,-1,42,39,43,-1,42,43,40,-1,40,43,28,-1,40,28,30,-1,34,29,43,-1,43,29,28,-1,43,39,34,-1,34,39,32,-1,44,45,46,-1,46,45,47,-1,48,47,49,-1,49,47,45,-1,50,51,48,-1,48,51,52,-1,46,47,53,-1,53,47,48,-1,53,48,54,-1,54,48,52,-1,51,50,55,-1,55,50,56,-1,57,58,59,-1,55,56,59,-1,59,56,49,-1,59,49,57,-1,57,49,45,-1,57,45,44,-1,56,50,49,-1,49,50,48,-1,60,61,62,-1,62,61,63,-1,64,65,66,-1,66,65,67,-1,63,61,68,-1,68,61,66,-1,68,66,69,-1,69,66,67,-1,65,64,70,-1,70,64,71,-1,72,73,74,-1,70,71,74,-1,74,71,75,-1,74,75,72,-1,72,75,60,-1,72,60,62,-1,66,61,75,-1,75,61,60,-1,75,71,66,-1,66,71,64,-1,76,77,78,-1,78,77,79,-1,80,81,82,-1,82,81,83,-1,84,77,85,-1,85,77,76,-1,86,87,88,-1,88,87,84,-1,88,84,89,-1,89,84,85,-1,78,79,90,-1,90,79,91,-1,92,90,93,-1,93,90,91,-1,93,91,94,-1,94,91,95,-1,96,83,97,-1,97,83,81,-1,87,86,96,-1,96,86,98,-1,82,83,99,-1,99,83,96,-1,99,96,100,-1,100,96,98,-1,91,79,84,-1,84,79,77,-1,101,102,103,-1,94,95,103,-1,103,95,97,-1,103,97,101,-1,101,97,81,-1,101,81,80,-1,96,97,87,-1,87,97,95,-1,87,95,84,-1,84,95,91,-1,104,105,106,-1,106,105,107,-1,108,109,110,-1,110,109,111,-1,106,107,112,-1,112,107,110,-1,112,110,113,-1,113,110,111,-1,114,105,115,-1,115,105,104,-1,116,117,118,-1,118,117,114,-1,118,114,119,-1,119,114,115,-1,110,107,114,-1,114,107,105,-1,109,108,116,-1,116,108,117,-1,117,108,114,-1,114,108,110,-1,120,121,122,-1,122,121,123,-1,124,121,125,-1,125,121,120,-1,123,121,126,-1,126,121,124,-1,127,126,128,-1,128,126,124,-1,128,124,129,-1,129,124,130,-1,129,130,131,-1,131,130,132,-1,125,120,133,-1,133,120,122,-1,131,132,134,-1,134,132,125,-1,134,125,135,-1,135,125,133,-1,132,130,125,-1,125,130,124,-1,136,137,138,-1,138,137,139,-1,140,141,142,-1,142,141,143,-1,144,145,146,-1,142,143,146,-1,146,143,147,-1,146,147,144,-1,144,147,137,-1,144,137,136,-1,148,139,147,-1,147,139,137,-1,141,140,148,-1,148,140,149,-1,138,139,150,-1,150,139,148,-1,150,148,151,-1,151,148,149,-1,148,147,141,-1,141,147,143,-1,152,153,154,-1,154,153,155,-1,156,153,157,-1,157,153,152,-1,158,159,156,-1,156,159,160,-1,155,153,161,-1,161,153,156,-1,161,156,162,-1,162,156,160,-1,159,158,163,-1,163,158,164,-1,165,166,167,-1,163,164,167,-1,167,164,157,-1,167,157,165,-1,165,157,152,-1,165,152,154,-1,164,158,157,-1,157,158,156,-1,168,169,170,-1,170,169,171,-1,172,173,174,-1,174,173,175,-1,170,171,176,-1,176,171,174,-1,176,174,177,-1,177,174,175,-1,178,169,179,-1,179,169,168,-1,180,181,182,-1,182,181,178,-1,182,178,183,-1,183,178,179,-1,173,172,180,-1,180,172,181,-1,174,171,178,-1,178,171,169,-1,178,181,174,-1,174,181,172,-1,184,185,186,-1,186,185,187,-1,188,189,190,-1,190,189,191,-1,192,193,194,-1,190,191,194,-1,194,191,195,-1,194,195,192,-1,192,195,184,-1,192,184,186,-1,196,185,195,-1,195,185,184,-1,189,188,196,-1,196,188,197,-1,187,185,198,-1,198,185,196,-1,198,196,199,-1,199,196,197,-1,196,195,189,-1,189,195,191,-1,200,201,202,-1,202,201,203,-1,204,205,206,-1,206,205,207,-1,202,203,208,-1,208,203,206,-1,208,206,209,-1,209,206,207,-1,205,204,210,-1,210,204,211,-1,212,213,214,-1,210,211,214,-1,214,211,215,-1,214,215,212,-1,212,215,201,-1,212,201,200,-1,206,203,215,-1,215,203,201,-1,215,211,206,-1,206,211,204,-1,216,217,218,-1,218,217,219,-1,220,221,222,-1,222,221,223,-1,224,220,225,-1,225,220,222,-1,226,227,228,-1,228,227,224,-1,228,224,229,-1,229,224,225,-1,230,231,232,-1,232,231,233,-1,223,221,234,-1,234,221,232,-1,234,232,235,-1,235,232,233,-1,232,221,224,-1,224,221,220,-1,236,237,238,-1,231,230,238,-1,238,230,239,-1,238,239,236,-1,236,239,216,-1,236,216,218,-1,240,217,239,-1,239,217,216,-1,227,226,240,-1,240,226,241,-1,219,217,242,-1,242,217,240,-1,242,240,243,-1,243,240,241,-1,240,239,227,-1,227,239,230,-1,227,230,224,-1,224,230,232,-1,244,245,246,-1,246,245,247,-1,248,249,250,-1,250,249,251,-1,252,253,254,-1,254,253,255,-1,250,251,256,-1,256,251,254,-1,256,254,257,-1,257,254,255,-1,258,245,259,-1,259,245,244,-1,260,261,262,-1,262,261,258,-1,262,258,263,-1,263,258,259,-1,264,247,258,-1,258,247,245,-1,265,266,264,-1,264,266,267,-1,246,247,268,-1,268,247,264,-1,268,264,269,-1,269,264,267,-1,270,271,272,-1,266,265,272,-1,272,265,273,-1,272,273,270,-1,270,273,249,-1,270,249,248,-1,254,251,273,-1,273,251,249,-1,264,258,265,-1,265,258,261,-1,261,252,265,-1,265,252,254,-1,265,254,273,-1,252,261,253,-1,253,261,260,-1]}}
Shape{appearance Appearance{material Material{diffuseColor 1.0 1.0 1.0 transparency 0.0}}geometry IndexedFaceSet{ccw TRUE solid FALSE coord Coordinate{point [-0.479 0.0505 0.0083, -0.5097 -0.0282 0.0083, -0.479 0.0505 0.0079, -0.5097 -0.0282 0.0079, -0.4982 -0.0282 0.0083, -0.4982 -0.0282 0.0079, -0.4902 -0.0061 0.0083, -0.4902 -0.0061 0.0079, -0.4577 -0.0061 0.0083, -0.4577 -0.0061 0.0079, -0.4502 -0.0282 0.0083, -0.4502 -0.0282 0.0079, -0.4387 -0.0282 0.0083, -0.4387 -0.0282 0.0079, -0.4684 0.0505 0.0083, -0.4684 0.0505 0.0079, -0.4604 0.0025 0.0083, -0.4867 0.0025 0.0083, -0.4721 0.0354 0.0083, -0.4729 0.0381 0.0083, -0.4734 0.0409 0.0083, -0.4736 0.0409 0.0083, -0.4741 0.0381 0.0083, -0.4748 0.0354 0.0083, -0.4604 0.0025 0.0079, -0.4867 0.0025 0.0079, -0.4721 0.0354 0.0079, -0.4729 0.0381 0.0079, -0.4734 0.0409 0.0079, -0.4736 0.0409 0.0079, -0.4741 0.0381 0.0079, -0.4748 0.0354 0.0079, -0.3909 -0.0282 0.0083, -0.3695 -0.0282 0.0083, -0.3909 -0.0282 0.0079, -0.3695 -0.0282 0.0079, -0.3695 0.0505 0.0083, -0.3695 0.0505 0.0079, -0.3918 0.0505 0.0083, -0.3918 0.0505 0.0079, -0.4329 0.0121 0.0083, -0.4329 0.0121 0.0079, -0.4323 0.0195 0.0079, -0.4323 0.0195 0.0083, -0.4302 0.0273 0.0079, -0.4302 0.0273 0.0083, -0.4266 0.0341 0.0079, -0.4266 0.0341 0.0083, -0.421 0.0403 0.0079, -0.421 0.0403 0.0083, -0.4209 0.0403 0.0079, -0.4209 0.0403 0.0083, -0.4123 0.0461 0.0079, -0.4123 0.0461 0.0083, -0.4031 0.0493 0.0079, -0.4031 0.0493 0.0083, -0.4007 -0.0274 0.0079, -0.4007 -0.0274 0.0083, -0.4098 -0.0247 0.0079, -0.4098 -0.0247 0.0083, -0.418 -0.0199 0.0079, -0.418 -0.0199 0.0083, -0.4245 -0.0137 0.0079, -0.4245 -0.0137 0.0083, -0.429 -0.0066 0.0079, -0.429 -0.0066 0.0083, -0.4318 0.0016 0.0079, -0.4318 0.0016 0.0083, -0.4171 0.0308 0.0083, -0.4133 0.0349 0.0083, -0.4075 0.0386 0.0083, -0.401 0.0409 0.0083, -0.3917 0.0419 0.0083, -0.3801 0.0419 0.0083, -0.3801 -0.0196 0.0083, -0.3913 -0.0196 0.0083, -0.3996 -0.0188 0.0083, -0.4062 -0.0167 0.0083, -0.4116 -0.0135 0.0083, -0.416 -0.0092 0.0083, -0.4193 -0.0038 0.0083, -0.4216 0.0036 0.0083, -0.4224 0.0119 0.0083, -0.4217 0.0198 0.0083, -0.4198 0.026 0.0083, -0.3917 0.0419 0.0079, -0.3801 0.0419 0.0079, -0.401 0.0409 0.0079, -0.4075 0.0386 0.0079, -0.4133 0.0349 0.0079, -0.4171 0.0308 0.0079, -0.4198 0.026 0.0079, -0.4217 0.0198 0.0079, -0.4224 0.0119 0.0079, -0.4216 0.0036 0.0079, -0.4193 -0.0038 0.0079, -0.416 -0.0092 0.0079, -0.4116 -0.0135 0.0079, -0.4062 -0.0167 0.0079, -0.3996 -0.0188 0.0079, -0.3913 -0.0196 0.0079, -0.3801 -0.0196 0.0079, -0.3542 -0.0196 0.0083, -0.3542 -0.0282 0.0083, -0.3542 -0.0196 0.0079, -0.3542 -0.0282 0.0079, -0.3119 -0.0282 0.0083, -0.3119 -0.0282 0.0079, -0.3119 0.0505 0.0083, -0.3119 0.0505 0.0079, -0.3523 0.0505 0.0083, -0.3523 0.0505 0.0079, -0.3523 0.0419 0.0083, -0.3523 0.0419 0.0079, -0.3225 0.0419 0.0083, -0.3225 0.0419 0.0079, -0.3225 0.016 0.0083, -0.3225 0.016 0.0079, -0.3503 0.016 0.0083, -0.3503 0.016 0.0079, -0.3503 0.0073 0.0083, -0.3503 0.0073 0.0079, -0.3225 0.0073 0.0083, -0.3225 0.0073 0.0079, -0.3225 -0.0196 0.0083, -0.3225 -0.0196 0.0079, -0.2966 -0.0155 0.0083, -0.2966 -0.0241 0.0083, -0.2966 -0.0155 0.0079, -0.2966 -0.0241 0.0079, -0.2882 -0.0276 0.0083, -0.2749 -0.0292 0.0083, -0.2749 -0.0292 0.0079, -0.277 -0.0291 0.0079, -0.277 -0.0291 0.0083, -0.2802 -0.0287 0.0079, -0.2882 -0.0276 0.0079, -0.2703 -0.0287 0.0079, -0.2652 -0.0282 0.0083, -0.2652 -0.0282 0.0079, -0.2576 -0.0255 0.0083, -0.2576 -0.0255 0.0079, -0.2512 -0.0215 0.0083, -0.2512 -0.0215 0.0079, -0.2453 -0.0153 0.0083, -0.2453 -0.0153 0.0079, -0.2411 -0.0078 0.0083, -0.2411 -0.0078 0.0079, -0.2387 0.0005 0.0083, -0.2387 0.0005 0.0079, -0.238 0.0097 0.0083, -0.238 0.0097 0.0079, -0.278 0.0515 0.0083, -0.278 0.0515 0.0079, -0.2701 0.0508 0.0079, -0.2701 0.0508 0.0083, -0.2613 0.0483 0.0079, -0.2613 0.0483 0.0083, -0.2539 0.044 0.0079, -0.2539 0.044 0.0083, -0.2468 0.0371 0.0079, -0.2468 0.0371 0.0083, -0.2421 0.0298 0.0079, -0.2421 0.0298 0.0083, -0.2391 0.0209 0.0079, -0.2391 0.0209 0.0083, -0.2966 0.0484 0.0083, -0.2966 0.0484 0.0079, -0.2875 0.0508 0.0079, -0.2875 0.0508 0.0083, -0.2966 0.0378 0.0083, -0.2966 0.0378 0.0079, -0.2781 0.0428 0.0083, -0.2781 0.0428 0.0079, -0.2877 0.0416 0.0079, -0.2877 0.0416 0.0083, -0.2485 0.0103 0.0083, -0.2485 0.0103 0.0079, -0.2489 0.0164 0.0079, -0.2489 0.0164 0.0083, -0.251 0.0249 0.0079, -0.251 0.0249 0.0083, -0.2543 0.0309 0.0079, -0.2543 0.0309 0.0083, -0.259 0.0362 0.0079, -0.259 0.0362 0.0083, -0.2645 0.0398 0.0079, -0.2645 0.0398 0.0083, -0.2704 0.042 0.0079, -0.2704 0.042 0.0083, -0.2763 -0.0205 0.0083, -0.2763 -0.0205 0.0079, -0.269 -0.0197 0.0079, -0.269 -0.0197 0.0083, -0.2633 -0.0176 0.0079, -0.2633 -0.0176 0.0083, -0.2584 -0.0143 0.0079, -0.2584 -0.0143 0.0083, -0.2547 -0.0104 0.0079, -0.2547 -0.0104 0.0083, -0.2515 -0.005 0.0079, -0.2515 -0.005 0.0083, -0.2493 0.0018 0.0079, -0.2493 0.0018 0.0083, -0.2951 -0.0163 0.0079, -0.2951 -0.0163 0.0083, -0.2868 -0.0194 0.0079, -0.2868 -0.0194 0.0083, -0.2313 -0.0196 0.0083, -0.2313 -0.0282 0.0083, -0.2313 -0.0196 0.0079, -0.2313 -0.0282 0.0079, -0.1909 -0.0282 0.0083, -0.1909 -0.0282 0.0079, -0.1909 0.0505 0.0083, -0.1909 0.0505 0.0079, -0.2015 0.0505 0.0083, -0.2015 0.0505 0.0079, -0.2015 -0.0196 0.0083, -0.2015 -0.0196 0.0079]} coordIndex [0,1,2,-1,2,1,3,-1,1,4,3,-1,3,4,5,-1,4,6,5,-1,5,6,7,-1,6,8,7,-1,7,8,9,-1,8,10,9,-1,9,10,11,-1,10,12,11,-1,11,12,13,-1,12,14,13,-1,13,14,15,-1,14,0,15,-1,15,0,2,-1,16,8,17,-1,17,8,6,-1,18,14,16,-1,16,14,12,-1,16,12,8,-1,8,12,10,-1,18,19,14,-1,14,19,20,-1,14,20,0,-1,0,20,21,-1,0,21,22,-1,22,23,0,-1,0,23,17,-1,0,17,1,-1,1,17,6,-1,1,6,4,-1,16,17,24,-1,24,17,25,-1,18,16,26,-1,26,16,24,-1,18,26,27,-1,18,27,19,-1,19,27,28,-1,19,28,20,-1,21,20,29,-1,29,20,28,-1,21,29,30,-1,21,30,22,-1,22,30,31,-1,22,31,23,-1,17,23,25,-1,25,23,31,-1,32,33,34,-1,34,33,35,-1,33,36,35,-1,35,36,37,-1,36,38,37,-1,37,38,39,-1,40,41,42,-1,40,42,43,-1,43,42,44,-1,43,44,45,-1,45,44,46,-1,45,46,47,-1,47,46,48,-1,47,48,49,-1,49,48,50,-1,49,50,51,-1,51,50,52,-1,51,52,53,-1,53,52,54,-1,53,54,55,-1,55,54,39,-1,55,39,38,-1,32,34,56,-1,32,56,57,-1,57,56,58,-1,57,58,59,-1,59,58,60,-1,59,60,61,-1,61,60,62,-1,61,62,63,-1,63,62,64,-1,63,64,65,-1,65,64,66,-1,65,66,67,-1,67,66,41,-1,67,41,40,-1,45,47,68,-1,68,47,49,-1,68,49,69,-1,69,49,51,-1,69,51,70,-1,70,51,53,-1,70,53,71,-1,71,53,55,-1,71,55,72,-1,72,55,38,-1,72,38,73,-1,73,38,36,-1,73,36,74,-1,74,36,33,-1,74,33,75,-1,75,33,32,-1,75,32,76,-1,76,32,57,-1,76,57,77,-1,77,57,59,-1,77,59,78,-1,78,59,61,-1,78,61,79,-1,79,61,63,-1,79,63,80,-1,80,63,65,-1,80,65,81,-1,81,65,67,-1,81,67,82,-1,82,67,40,-1,82,40,83,-1,83,40,43,-1,83,43,84,-1,84,43,45,-1,84,45,68,-1,72,73,85,-1,85,73,86,-1,72,85,87,-1,72,87,71,-1,71,87,88,-1,71,88,70,-1,70,88,89,-1,70,89,69,-1,69,89,90,-1,69,90,68,-1,68,90,91,-1,68,91,84,-1,84,91,92,-1,84,92,83,-1,83,92,93,-1,83,93,82,-1,82,93,94,-1,82,94,81,-1,81,94,95,-1,81,95,80,-1,80,95,96,-1,80,96,79,-1,79,96,97,-1,79,97,78,-1,78,97,98,-1,78,98,77,-1,77,98,99,-1,77,99,76,-1,76,99,100,-1,76,100,75,-1,74,75,101,-1,101,75,100,-1,73,74,86,-1,86,74,101,-1,102,103,104,-1,104,103,105,-1,103,106,105,-1,105,106,107,-1,106,108,107,-1,107,108,109,-1,108,110,109,-1,109,110,111,-1,110,112,111,-1,111,112,113,-1,112,114,113,-1,113,114,115,-1,114,116,115,-1,115,116,117,-1,116,118,117,-1,117,118,119,-1,118,120,119,-1,119,120,121,-1,120,122,121,-1,121,122,123,-1,122,124,123,-1,123,124,125,-1,124,102,125,-1,125,102,104,-1,106,103,102,-1,102,124,106,-1,106,124,122,-1,106,122,108,-1,112,110,114,-1,114,110,108,-1,114,108,116,-1,116,108,122,-1,116,122,118,-1,118,122,120,-1,126,127,128,-1,128,127,129,-1,129,127,130,-1,131,132,133,-1,131,133,134,-1,134,133,135,-1,134,135,130,-1,130,135,136,-1,130,136,129,-1,132,131,137,-1,137,131,138,-1,137,138,139,-1,139,138,140,-1,139,140,141,-1,141,140,142,-1,141,142,143,-1,143,142,144,-1,143,144,145,-1,145,144,146,-1,145,146,147,-1,147,146,148,-1,147,148,149,-1,149,148,150,-1,149,150,151,-1,152,153,154,-1,152,154,155,-1,155,154,156,-1,155,156,157,-1,157,156,158,-1,157,158,159,-1,159,158,160,-1,159,160,161,-1,161,160,162,-1,161,162,163,-1,163,162,164,-1,163,164,165,-1,165,164,151,-1,165,151,150,-1,166,167,168,-1,166,168,169,-1,169,168,153,-1,169,153,152,-1,166,170,167,-1,167,170,171,-1,172,173,174,-1,172,174,175,-1,175,174,171,-1,175,171,170,-1,176,177,178,-1,176,178,179,-1,179,178,180,-1,179,180,181,-1,181,180,182,-1,181,182,183,-1,183,182,184,-1,183,184,185,-1,185,184,186,-1,185,186,187,-1,187,186,188,-1,187,188,189,-1,189,188,173,-1,189,173,172,-1,190,191,192,-1,190,192,193,-1,193,192,194,-1,193,194,195,-1,195,194,196,-1,195,196,197,-1,197,196,198,-1,197,198,199,-1,199,198,200,-1,199,200,201,-1,201,200,202,-1,201,202,203,-1,203,202,177,-1,203,177,176,-1,126,128,204,-1,126,204,205,-1,205,204,206,-1,205,206,207,-1,207,206,191,-1,207,191,190,-1,193,131,190,-1,190,131,134,-1,190,134,207,-1,207,134,130,-1,207,130,205,-1,205,130,127,-1,205,127,126,-1,170,166,175,-1,175,166,169,-1,175,169,172,-1,172,169,152,-1,172,152,189,-1,189,152,155,-1,189,155,187,-1,187,155,157,-1,187,157,185,-1,185,157,159,-1,185,159,183,-1,183,159,161,-1,183,161,181,-1,181,161,163,-1,181,163,179,-1,179,163,165,-1,179,165,176,-1,176,165,150,-1,176,150,203,-1,203,150,148,-1,203,148,201,-1,201,148,146,-1,201,146,199,-1,199,146,144,-1,199,144,197,-1,197,144,142,-1,197,142,195,-1,195,142,140,-1,195,140,193,-1,193,140,138,-1,193,138,131,-1,208,209,210,-1,210,209,211,-1,209,212,211,-1,211,212,213,-1,212,214,213,-1,213,214,215,-1,214,216,215,-1,215,216,217,-1,216,218,217,-1,217,218,219,-1,218,208,219,-1,219,208,210,-1,216,214,218,-1,218,214,212,-1,218,212,208,-1,208,212,209,-1]}}
Shape{appearance Appearance{material Material{diffuseColor 0.25098039215686274 0.25098039215686274 0.25098039215686274 transparency 0.0}}geometry IndexedFaceSet{ccw TRUE solid FALSE coord Coordinate{point [-0.4604 0.0025 0.0079, -0.4867 0.0025 0.0079, -0.4721 0.0354 0.0079, -0.4748 0.0354 0.0079, -0.4729 0.0381 0.0079, -0.4741 0.0381 0.0079, -0.4734 0.0409 0.0079, -0.4736 0.0409 0.0079, -0.3801 0.0419 0.0079, -0.3801 -0.0196 0.0079, -0.3917 0.0419 0.0079, -0.3913 -0.0196 0.0079, -0.3996 -0.0188 0.0079, -0.4224 0.0119 0.0079, -0.4217 0.0198 0.0079, -0.4198 0.026 0.0079, -0.401 0.0409 0.0079, -0.4062 -0.0167 0.0079, -0.4116 -0.0135 0.0079, -0.416 -0.0092 0.0079, -0.4193 -0.0038 0.0079, -0.4216 0.0036 0.0079, -0.4171 0.0308 0.0079, -0.4133 0.0349 0.0079, -0.4075 0.0386 0.0079]} coordIndex [0,1,2,-1,2,1,3,-1,2,3,4,-1,4,3,5,-1,4,5,6,-1,6,5,7,-1,8,9,10,-1,10,9,11,-1,10,11,12,-1,13,14,10,-1,10,14,15,-1,10,15,16,-1,12,17,10,-1,10,17,18,-1,10,18,19,-1,19,20,10,-1,10,20,21,-1,10,21,13,-1,22,23,15,-1,15,23,24,-1,15,24,16,-1]}}