<svg xmlns="http://www.w3.org/2000/svg" viewBox="0 0 1466 888" font-family="ui-monospace, SFMono-Regular, Menlo, monospace" font-size="11">
<defs><pattern id="keepout" width="6" height="6" patternUnits="userSpaceOnUse" patternTransform="rotate(45)"><line x1="0" y1="0" x2="0" y2="6" stroke="#dc2626" stroke-width="1.2"/></pattern></defs>
<rect width="1466" height="888" fill="white"/>
<text x="46.0" y="26" font-size="16" font-weight="bold">carrier floorplan — SUGGESTION, not constraint</text>
<text x="46.0" y="44" fill="#6b7280">to scale; derived from the netlists + som/Zynq_SoM.kicad_pcb — regenerate with `schgen floorplan`; the user owns the outline (PLAN.md round 2)</text>
<rect x="46.0" y="64.0" width="990" height="768" fill="#fcfcfd" stroke="#111827" stroke-width="2" stroke-dasharray="9,5"/>
<line x1="106.0" y1="64.0" x2="106.0" y2="832.0" stroke="#eceef1" stroke-width="1"/>
<text x="106.0" y="60.0" fill="#9ca3af" font-size="8" text-anchor="middle">10</text>
<line x1="166.0" y1="64.0" x2="166.0" y2="832.0" stroke="#eceef1" stroke-width="1"/>
<text x="166.0" y="60.0" fill="#9ca3af" font-size="8" text-anchor="middle">20</text>
<line x1="226.0" y1="64.0" x2="226.0" y2="832.0" stroke="#eceef1" stroke-width="1"/>
<text x="226.0" y="60.0" fill="#9ca3af" font-size="8" text-anchor="middle">30</text>
<line x1="286.0" y1="64.0" x2="286.0" y2="832.0" stroke="#eceef1" stroke-width="1"/>
<text x="286.0" y="60.0" fill="#9ca3af" font-size="8" text-anchor="middle">40</text>
<line x1="346.0" y1="64.0" x2="346.0" y2="832.0" stroke="#eceef1" stroke-width="1"/>
<text x="346.0" y="60.0" fill="#9ca3af" font-size="8" text-anchor="middle">50</text>
<line x1="406.0" y1="64.0" x2="406.0" y2="832.0" stroke="#eceef1" stroke-width="1"/>
<text x="406.0" y="60.0" fill="#9ca3af" font-size="8" text-anchor="middle">60</text>
<line x1="466.0" y1="64.0" x2="466.0" y2="832.0" stroke="#eceef1" stroke-width="1"/>
<text x="466.0" y="60.0" fill="#9ca3af" font-size="8" text-anchor="middle">70</text>
<line x1="526.0" y1="64.0" x2="526.0" y2="832.0" stroke="#eceef1" stroke-width="1"/>
<text x="526.0" y="60.0" fill="#9ca3af" font-size="8" text-anchor="middle">80</text>
<line x1="586.0" y1="64.0" x2="586.0" y2="832.0" stroke="#eceef1" stroke-width="1"/>
<text x="586.0" y="60.0" fill="#9ca3af" font-size="8" text-anchor="middle">90</text>
<line x1="646.0" y1="64.0" x2="646.0" y2="832.0" stroke="#eceef1" stroke-width="1"/>
<text x="646.0" y="60.0" fill="#9ca3af" font-size="8" text-anchor="middle">100</text>
<line x1="706.0" y1="64.0" x2="706.0" y2="832.0" stroke="#eceef1" stroke-width="1"/>
<text x="706.0" y="60.0" fill="#9ca3af" font-size="8" text-anchor="middle">110</text>
<line x1="766.0" y1="64.0" x2="766.0" y2="832.0" stroke="#eceef1" stroke-width="1"/>
<text x="766.0" y="60.0" fill="#9ca3af" font-size="8" text-anchor="middle">120</text>
<line x1="826.0" y1="64.0" x2="826.0" y2="832.0" stroke="#eceef1" stroke-width="1"/>
<text x="826.0" y="60.0" fill="#9ca3af" font-size="8" text-anchor="middle">130</text>
<line x1="886.0" y1="64.0" x2="886.0" y2="832.0" stroke="#eceef1" stroke-width="1"/>
<text x="886.0" y="60.0" fill="#9ca3af" font-size="8" text-anchor="middle">140</text>
<line x1="946.0" y1="64.0" x2="946.0" y2="832.0" stroke="#eceef1" stroke-width="1"/>
<text x="946.0" y="60.0" fill="#9ca3af" font-size="8" text-anchor="middle">150</text>
<line x1="1006.0" y1="64.0" x2="1006.0" y2="832.0" stroke="#eceef1" stroke-width="1"/>
<text x="1006.0" y="60.0" fill="#9ca3af" font-size="8" text-anchor="middle">160</text>
<line x1="46.0" y1="124.0" x2="1036.0" y2="124.0" stroke="#eceef1" stroke-width="1"/>
<text x="40.0" y="127.0" fill="#9ca3af" font-size="8" text-anchor="end">10</text>
<line x1="46.0" y1="184.0" x2="1036.0" y2="184.0" stroke="#eceef1" stroke-width="1"/>
<text x="40.0" y="187.0" fill="#9ca3af" font-size="8" text-anchor="end">20</text>
<line x1="46.0" y1="244.0" x2="1036.0" y2="244.0" stroke="#eceef1" stroke-width="1"/>
<text x="40.0" y="247.0" fill="#9ca3af" font-size="8" text-anchor="end">30</text>
<line x1="46.0" y1="304.0" x2="1036.0" y2="304.0" stroke="#eceef1" stroke-width="1"/>
<text x="40.0" y="307.0" fill="#9ca3af" font-size="8" text-anchor="end">40</text>
<line x1="46.0" y1="364.0" x2="1036.0" y2="364.0" stroke="#eceef1" stroke-width="1"/>
<text x="40.0" y="367.0" fill="#9ca3af" font-size="8" text-anchor="end">50</text>
<line x1="46.0" y1="424.0" x2="1036.0" y2="424.0" stroke="#eceef1" stroke-width="1"/>
<text x="40.0" y="427.0" fill="#9ca3af" font-size="8" text-anchor="end">60</text>
<line x1="46.0" y1="484.0" x2="1036.0" y2="484.0" stroke="#eceef1" stroke-width="1"/>
<text x="40.0" y="487.0" fill="#9ca3af" font-size="8" text-anchor="end">70</text>
<line x1="46.0" y1="544.0" x2="1036.0" y2="544.0" stroke="#eceef1" stroke-width="1"/>
<text x="40.0" y="547.0" fill="#9ca3af" font-size="8" text-anchor="end">80</text>
<line x1="46.0" y1="604.0" x2="1036.0" y2="604.0" stroke="#eceef1" stroke-width="1"/>
<text x="40.0" y="607.0" fill="#9ca3af" font-size="8" text-anchor="end">90</text>
<line x1="46.0" y1="664.0" x2="1036.0" y2="664.0" stroke="#eceef1" stroke-width="1"/>
<text x="40.0" y="667.0" fill="#9ca3af" font-size="8" text-anchor="end">100</text>
<line x1="46.0" y1="724.0" x2="1036.0" y2="724.0" stroke="#eceef1" stroke-width="1"/>
<text x="40.0" y="727.0" fill="#9ca3af" font-size="8" text-anchor="end">110</text>
<line x1="46.0" y1="784.0" x2="1036.0" y2="784.0" stroke="#eceef1" stroke-width="1"/>
<text x="40.0" y="787.0" fill="#9ca3af" font-size="8" text-anchor="end">120</text>
<text x="46.0" y="848.0" fill="#6b7280">derived outline 165 x 128 mm (SoM + connector bands + component area + perimeter keepout)</text>
<rect x="826.0" y="232.0" width="67.32" height="115.062" rx="3" fill="#f9fafb" stroke="#374151" stroke-width="1.4"/>
<text x="859.7" y="289.5" text-anchor="middle" font-size="11.0" font-weight="bold">board_aux</text>
<text x="859.7" y="299.5" text-anchor="middle" font-size="7.5" fill="#6b7280">17p</text>
<rect x="952.0" y="466.0" width="73.956" height="45" rx="3" fill="#eff6ff" stroke="#1e3a8a" stroke-width="1.4"/>
<text x="989.0" y="488.5" text-anchor="middle" font-size="10.0" font-weight="bold">board_qwiic</text>
<text x="989.0" y="498.5" text-anchor="middle" font-size="7.5" fill="#6b7280">2p</text>
<rect x="112.0" y="154.0" width="136.8" height="121.2" rx="3" fill="#f9fafb" stroke="#374151" stroke-width="1.4"/>
<text x="180.4" y="214.6" text-anchor="middle" font-size="11.0" font-weight="bold">board_services</text>
<text x="180.4" y="224.6" text-anchor="middle" font-size="7.5" fill="#6b7280">9p</text>
<rect x="604.0" y="586.0" width="52.08" height="91.8" rx="3" fill="#ecfdf5" stroke="#047857" stroke-width="1.4"/>
<text x="630.0" y="631.9" text-anchor="middle" font-size="7.4" font-weight="bold">bringup_en</text>
<text x="630.0" y="641.9" text-anchor="middle" font-size="7.5" fill="#6b7280">15p</text>
<rect x="826.0" y="472.0" width="105.42" height="151.2" rx="3" fill="#ecfdf5" stroke="#047857" stroke-width="1.4"/>
<text x="878.7" y="547.6" text-anchor="middle" font-size="8.9" font-weight="bold">bringup_en_modules</text>
<text x="878.7" y="557.6" text-anchor="middle" font-size="7.5" fill="#6b7280">54p</text>
<rect x="916.0" y="628.0" width="115.8" height="110.796" rx="3" fill="#ecfdf5" stroke="#047857" stroke-width="1.4"/>
<text x="973.9" y="683.4" text-anchor="middle" font-size="11.0" font-weight="bold">bringup_modules</text>
<text x="973.9" y="693.4" text-anchor="middle" font-size="7.5" fill="#6b7280">70p</text>
<circle cx="916" cy="628" r="7" fill="white" stroke="#111827" stroke-width="1.2"/>
<text x="916" y="631" text-anchor="middle" font-size="9" font-weight="bold">12</text>
<rect x="706.0" y="280.0" width="115.8" height="303.78" rx="3" fill="#ecfdf5" stroke="#047857" stroke-width="1.4"/>
<text x="763.9" y="431.9" text-anchor="middle" font-size="11.0" font-weight="bold">bringup_rails</text>
<text x="763.9" y="441.9" text-anchor="middle" font-size="7.5" fill="#6b7280">23p</text>
<circle cx="706" cy="280" r="7" fill="white" stroke="#111827" stroke-width="1.2"/>
<text x="706" y="283" text-anchor="middle" font-size="9" font-weight="bold">13</text>
<rect x="55.0" y="277.0" width="181.62" height="131.4" rx="3" fill="#eff6ff" stroke="#1e3a8a" stroke-width="1.4"/>
<rect x="55.0" y="280.3" width="39.3" height="124.8" fill="#bfdbfe" stroke="#1e3a8a" stroke-width="1.2"/>
<text x="145.8" y="342.7" text-anchor="middle" font-size="11.0" font-weight="bold">camera</text>
<text x="145.8" y="352.7" text-anchor="middle" font-size="7.5" fill="#6b7280">13p</text>
<circle cx="55" cy="277" r="7" fill="white" stroke="#111827" stroke-width="1.2"/>
<text x="55" y="280" text-anchor="middle" font-size="9" font-weight="bold">6</text>
<rect x="460.0" y="586.0" width="106.5" height="179.664" rx="3" fill="#f9fafb" stroke="#374151" stroke-width="1.4"/>
<text x="513.2" y="675.8" text-anchor="middle" font-size="11.0" font-weight="bold">debug_boot</text>
<text x="513.2" y="685.8" text-anchor="middle" font-size="7.5" fill="#6b7280">10p</text>
<circle cx="460" cy="586" r="7" fill="white" stroke="#111827" stroke-width="1.2"/>
<text x="460" y="589" text-anchor="middle" font-size="9" font-weight="bold">14</text>
<rect x="604.0" y="184.0" width="85.8" height="123.96" rx="3" fill="#f9fafb" stroke="#374151" stroke-width="1.4" stroke-dasharray="5,4"/>
<rect x="604" y="184" width="85.8" height="61.98" fill="url(#keepout)" opacity="0.5"/>
<text x="646.9" y="246.0" text-anchor="middle" font-size="11.0" font-weight="bold">ethernet</text>
<text x="646.9" y="256.0" text-anchor="middle" font-size="7.5" fill="#6b7280">10p</text>
<circle cx="604" cy="184" r="7" fill="white" stroke="#111827" stroke-width="1.2"/>
<text x="604" y="187" text-anchor="middle" font-size="9" font-weight="bold">15</text>
<rect x="286.0" y="292.0" width="92.94" height="317.46" rx="3" fill="#f9fafb" stroke="#374151" stroke-width="1.4"/>
<text x="332.5" y="450.7" text-anchor="middle" font-size="11.0" font-weight="bold">fmc</text>
<text x="332.5" y="460.7" text-anchor="middle" font-size="7.5" fill="#6b7280">8p</text>
<circle cx="286" cy="292" r="7" fill="white" stroke="#111827" stroke-width="1.2"/>
<text x="286" y="295" text-anchor="middle" font-size="9" font-weight="bold">16</text>
<rect x="106.0" y="682.0" width="105.42" height="140.016" rx="3" fill="#eff6ff" stroke="#1e3a8a" stroke-width="1.4"/>
<rect x="113.6" y="752.2" width="90.18" height="69.78" fill="#bfdbfe" stroke="#1e3a8a" stroke-width="1.2"/>
<text x="158.7" y="752.0" text-anchor="middle" font-size="11.0" font-weight="bold">hdmi_rx</text>
<text x="158.7" y="762.0" text-anchor="middle" font-size="7.5" fill="#6b7280">10p</text>
<circle cx="106" cy="682" r="7" fill="white" stroke="#111827" stroke-width="1.2"/>
<text x="106" y="685" text-anchor="middle" font-size="9" font-weight="bold">8</text>
<rect x="406.0" y="586.0" width="47.22" height="62.4" rx="3" fill="#f9fafb" stroke="#374151" stroke-width="1.4"/>
<text x="429.6" y="617.2" text-anchor="middle" font-size="7.0" font-weight="bold">hdmi_rx_term</text>
<text x="429.6" y="627.2" text-anchor="middle" font-size="7.5" fill="#6b7280">10p</text>
<rect x="331.0" y="679.0" width="123.42" height="143.076" rx="3" fill="#eff6ff" stroke="#1e3a8a" stroke-width="1.4"/>
<rect x="347.6" y="752.3" width="90.18" height="69.78" fill="#bfdbfe" stroke="#1e3a8a" stroke-width="1.2"/>
<text x="392.7" y="750.5" text-anchor="middle" font-size="11.0" font-weight="bold">hdmi_tx</text>
<text x="392.7" y="760.5" text-anchor="middle" font-size="7.5" fill="#6b7280">12p</text>
<circle cx="331" cy="679" r="7" fill="white" stroke="#111827" stroke-width="1.2"/>
<text x="331" y="682" text-anchor="middle" font-size="9" font-weight="bold">9</text>
<rect x="55.0" y="412.0" width="215.778" height="160.2" rx="3" fill="#eff6ff" stroke="#1e3a8a" stroke-width="1.4"/>
<rect x="55.0" y="413.8" width="38.4" height="156.6" fill="#bfdbfe" stroke="#1e3a8a" stroke-width="1.2"/>
<text x="162.9" y="492.1" text-anchor="middle" font-size="11.0" font-weight="bold">lcd</text>
<text x="162.9" y="502.1" text-anchor="middle" font-size="7.5" fill="#6b7280">19p</text>
<circle cx="55" cy="412" r="7" fill="white" stroke="#111827" stroke-width="1.2"/>
<text x="55" y="415" text-anchor="middle" font-size="9" font-weight="bold">7</text>
<rect x="694.0" y="586.0" width="78" height="78" rx="3" fill="#f9fafb" stroke="#374151" stroke-width="1.4"/>
<text x="733.0" y="625.0" text-anchor="middle" font-size="11.0" font-weight="bold">mechanical</text>
<text x="733.0" y="635.0" text-anchor="middle" font-size="7.5" fill="#6b7280">4p</text>
<rect x="346.0" y="73.0" width="115.8" height="151.686" rx="3" fill="#eff6ff" stroke="#1e3a8a" stroke-width="1.4"/>
<rect x="357.5" y="73.0" width="92.76" height="90.3" fill="#bfdbfe" stroke="#1e3a8a" stroke-width="1.2"/>
<text x="403.9" y="148.8" text-anchor="middle" font-size="11.0" font-weight="bold">microsd</text>
<text x="403.9" y="158.8" text-anchor="middle" font-size="7.5" fill="#6b7280">15p</text>
<circle cx="346" cy="73" r="7" fill="white" stroke="#111827" stroke-width="1.2"/>
<text x="346" y="76" text-anchor="middle" font-size="9" font-weight="bold">1</text>
<rect x="463.0" y="73.0" width="138.66" height="139.86" rx="3" fill="#eff6ff" stroke="#1e3a8a" stroke-width="1.4"/>
<rect x="505.4" y="73.0" width="53.82" height="47.1" fill="#bfdbfe" stroke="#1e3a8a" stroke-width="1.2"/>
<text x="532.3" y="142.9" text-anchor="middle" font-size="11.0" font-weight="bold">pd_input</text>
<text x="532.3" y="152.9" text-anchor="middle" font-size="7.5" fill="#6b7280">13p</text>
<circle cx="463" cy="73" r="7" fill="white" stroke="#111827" stroke-width="1.2"/>
<text x="463" y="76" text-anchor="middle" font-size="9" font-weight="bold">2</text>
<rect x="574.0" y="682.0" width="201.48" height="141.054" rx="3" fill="#eff6ff" stroke="#1e3a8a" stroke-width="1.4"/>
<rect x="578.2" y="744.8" width="94.44" height="78.24" fill="#bfdbfe" stroke="#1e3a8a" stroke-width="1.2"/>
<rect x="676.8" y="744.8" width="94.44" height="78.24" fill="#bfdbfe" stroke="#1e3a8a" stroke-width="1.2"/>
<text x="674.7" y="752.5" text-anchor="middle" font-size="11.0" font-weight="bold">pmod</text>
<text x="674.7" y="762.5" text-anchor="middle" font-size="7.5" fill="#6b7280">22p</text>
<circle cx="574" cy="682" r="7" fill="white" stroke="#111827" stroke-width="1.2"/>
<text x="574" y="685" text-anchor="middle" font-size="9" font-weight="bold">10</text>
<rect x="778.0" y="643.0" width="131.04" height="178.638" rx="3" fill="#eff6ff" stroke="#1e3a8a" stroke-width="1.4"/>
<rect x="796.3" y="743.4" width="94.44" height="78.24" fill="#bfdbfe" stroke="#1e3a8a" stroke-width="1.2"/>
<text x="843.5" y="732.3" text-anchor="middle" font-size="11.0" font-weight="bold">pmod_expansion</text>
<text x="843.5" y="742.3" text-anchor="middle" font-size="7.5" fill="#6b7280">15p</text>
<circle cx="778" cy="643" r="7" fill="white" stroke="#111827" stroke-width="1.2"/>
<text x="778" y="646" text-anchor="middle" font-size="9" font-weight="bold">11</text>
<rect x="898.0" y="184.0" width="118.44" height="161.76" rx="3" fill="#ecfdf5" stroke="#047857" stroke-width="1.4"/>
<text x="957.2" y="264.9" text-anchor="middle" font-size="11.0" font-weight="bold">power</text>
<text x="957.2" y="274.9" text-anchor="middle" font-size="7.5" fill="#6b7280">51p</text>
<circle cx="898" cy="184" r="7" fill="white" stroke="#111827" stroke-width="1.2"/>
<text x="898" y="187" text-anchor="middle" font-size="9" font-weight="bold">17</text>
<rect x="544.0" y="226.0" width="54.84" height="82.968" rx="3" fill="#ecfdf5" stroke="#047857" stroke-width="1.4"/>
<text x="571.4" y="267.5" text-anchor="middle" font-size="8.8" font-weight="bold">power_mon</text>
<text x="571.4" y="277.5" text-anchor="middle" font-size="7.5" fill="#6b7280">10p</text>
<circle cx="544" cy="226" r="7" fill="white" stroke="#111827" stroke-width="1.2"/>
<text x="544" y="229" text-anchor="middle" font-size="9" font-weight="bold">18</text>
<rect x="694.0" y="178.0" width="72.3" height="97.8" rx="3" fill="#ecfdf5" stroke="#047857" stroke-width="1.4"/>
<text x="730.2" y="226.9" text-anchor="middle" font-size="11.0" font-weight="bold">power_som</text>
<text x="730.2" y="236.9" text-anchor="middle" font-size="7.5" fill="#6b7280">23p</text>
<rect x="862.0" y="349.0" width="164.22" height="116.4" rx="3" fill="#eff6ff" stroke="#1e3a8a" stroke-width="1.4"/>
<text x="944.1" y="407.2" text-anchor="middle" font-size="11.0" font-weight="bold">rj45_connector</text>
<text x="944.1" y="417.2" text-anchor="middle" font-size="7.5" fill="#6b7280">3p</text>
<rect x="490.0" y="256.0" width="47.22" height="53.64" rx="3" fill="#f9fafb" stroke="#374151" stroke-width="1.4" stroke-dasharray="5,4"/>
<text x="513.6" y="282.8" text-anchor="middle" font-size="7.0" font-weight="bold">uart_bridge</text>
<text x="513.6" y="292.8" text-anchor="middle" font-size="7.5" fill="#6b7280">10p</text>
<circle cx="490" cy="256" r="7" fill="white" stroke="#111827" stroke-width="1.2"/>
<text x="490" y="259" text-anchor="middle" font-size="9" font-weight="bold">19</text>
<rect x="256.0" y="94.0" width="84.96" height="194.724" rx="3" fill="#f9fafb" stroke="#374151" stroke-width="1.4"/>
<text x="298.5" y="191.4" text-anchor="middle" font-size="11.0" font-weight="bold">usb_jtag</text>
<text x="298.5" y="201.4" text-anchor="middle" font-size="7.5" fill="#6b7280">19p</text>
<rect x="697.0" y="73.0" width="65.7" height="96.228" rx="3" fill="#eff6ff" stroke="#1e3a8a" stroke-width="1.4"/>
<rect x="702.9" y="73.0" width="53.82" height="47.1" fill="#bfdbfe" stroke="#1e3a8a" stroke-width="1.2"/>
<text x="729.8" y="121.1" text-anchor="middle" font-size="7.0" font-weight="bold">usb_jtag_connector</text>
<text x="729.8" y="131.1" text-anchor="middle" font-size="7.5" fill="#6b7280">6p</text>
<circle cx="697" cy="73" r="7" fill="white" stroke="#111827" stroke-width="1.2"/>
<text x="697" y="76" text-anchor="middle" font-size="9" font-weight="bold">4</text>
<rect x="436.0" y="268.0" width="47.22" height="41.88" rx="3" fill="#f9fafb" stroke="#374151" stroke-width="1.4"/>
<text x="459.6" y="288.9" text-anchor="middle" font-size="11.0" font-weight="bold">usb_pd</text>
<text x="459.6" y="298.9" text-anchor="middle" font-size="7.5" fill="#6b7280">6p</text>
<circle cx="436" cy="268" r="7" fill="white" stroke="#111827" stroke-width="1.2"/>
<text x="436" y="271" text-anchor="middle" font-size="9" font-weight="bold">20</text>
<rect x="766.0" y="73.0" width="65.7" height="96.228" rx="3" fill="#eff6ff" stroke="#1e3a8a" stroke-width="1.4"/>
<rect x="771.9" y="73.0" width="53.82" height="47.1" fill="#bfdbfe" stroke="#1e3a8a" stroke-width="1.2"/>
<text x="798.8" y="121.1" text-anchor="middle" font-size="7.0" font-weight="bold">usb_uart_connector</text>
<text x="798.8" y="131.1" text-anchor="middle" font-size="7.5" fill="#6b7280">5p</text>
<circle cx="766" cy="73" r="7" fill="white" stroke="#111827" stroke-width="1.2"/>
<text x="766" y="76" text-anchor="middle" font-size="9" font-weight="bold">5</text>
<rect x="604.0" y="73.0" width="92.94" height="96.228" rx="3" fill="#eff6ff" stroke="#1e3a8a" stroke-width="1.4"/>
<rect x="623.6" y="73.0" width="53.82" height="47.1" fill="#bfdbfe" stroke="#1e3a8a" stroke-width="1.2"/>
<text x="650.5" y="121.1" text-anchor="middle" font-size="11.0" font-weight="bold">usbc_otg</text>
<text x="650.5" y="131.1" text-anchor="middle" font-size="7.5" fill="#6b7280">11p</text>
<circle cx="604" cy="73" r="7" fill="white" stroke="#111827" stroke-width="1.2"/>
<text x="604" y="76" text-anchor="middle" font-size="9" font-weight="bold">3</text>
<rect x="214.0" y="574.0" width="70.08" height="250.56" rx="3" fill="#f9fafb" stroke="#374151" stroke-width="1.4"/>
<text x="249.0" y="699.3" text-anchor="middle" font-size="11.0" font-weight="bold">user_io</text>
<text x="249.0" y="709.3" text-anchor="middle" font-size="7.5" fill="#6b7280">17p</text>
<circle cx="214" cy="574" r="7" fill="white" stroke="#111827" stroke-width="1.2"/>
<text x="214" y="577" text-anchor="middle" font-size="9" font-weight="bold">21</text>
<rect x="391.0" y="322.0" width="300" height="252" rx="8" fill="#fef3c7" stroke="#92400e" stroke-width="2" opacity="0.95"/>
<text x="541" y="442" text-anchor="middle" font-size="13" font-weight="bold" fill="#92400e">Zynq SoM 50 x 42</text>
<text x="541" y="458" text-anchor="middle" font-size="8.5" fill="#92400e">(bottom view: DF40 positions mirrored from the SoM PCB)</text>
<rect x="457.6" y="331.7" width="118.8" height="22.68" fill="#92400e"/>
<text x="517.0" y="346.5" text-anchor="middle" font-size="10" font-weight="bold" fill="white">J1</text>
<rect x="457.6" y="541.7" width="118.8" height="22.68" fill="#92400e"/>
<text x="517.0" y="556.5" text-anchor="middle" font-size="10" font-weight="bold" fill="white">J2</text>
<rect x="397.7" y="388.6" width="22.68" height="118.8" fill="#92400e"/>
<text x="409.0" y="451.5" text-anchor="middle" font-size="10" font-weight="bold" fill="white" transform="rotate(-90 409.0 451.5)">J3</text>
<line x1="46.0" y1="862.0" x2="166.0" y2="862.0" stroke="#111827" stroke-width="3"/>
<text x="106.0" y="876.0" text-anchor="middle" fill="#6b7280">20 mm</text>
<text x="1066" y="68" font-size="13" font-weight="bold">placement notes (derived)</text>
<circle cx="1074" cy="86" r="8" fill="white" stroke="#111827" stroke-width="1.2"/>
<text x="1074" y="89" text-anchor="middle" font-size="9" font-weight="bold">1</text>
<text x="1090" y="90">SDIO 1.8V island: TXS02612 splits 1.8V / 3.3V sides</text>
<circle cx="1074" cy="108" r="8" fill="white" stroke="#111827" stroke-width="1.2"/>
<text x="1074" y="111" text-anchor="middle" font-size="9" font-weight="bold">2</text>
<text x="1090" y="112">power inlet: VBUS-&gt;TVS-&gt;bulk-&gt;+VIN; CC pair to FUSB302</text>
<circle cx="1074" cy="130" r="8" fill="white" stroke="#111827" stroke-width="1.2"/>
<text x="1074" y="133" text-anchor="middle" font-size="9" font-weight="bold">3</text>
<text x="1090" y="134">USB-C OTG: 90R HS pair short + matched; ESD at conn</text>
<circle cx="1074" cy="152" r="8" fill="white" stroke="#111827" stroke-width="1.2"/>
<text x="1074" y="155" text-anchor="middle" font-size="9" font-weight="bold">4</text>
<text x="1090" y="156">USB-C OTG: 90R HS pair short + matched; ESD at conn</text>
<circle cx="1074" cy="174" r="8" fill="white" stroke="#111827" stroke-width="1.2"/>
<text x="1074" y="177" text-anchor="middle" font-size="9" font-weight="bold">5</text>
<text x="1090" y="178">USB-C OTG: 90R HS pair short + matched; ESD at conn</text>
<circle cx="1074" cy="196" r="8" fill="white" stroke="#111827" stroke-width="1.2"/>
<text x="1074" y="199" text-anchor="middle" font-size="9" font-weight="bold">6</text>
<text x="1090" y="200">camera FFC: 3 CSI-2 pairs 100R to J3 side</text>
<circle cx="1074" cy="218" r="8" fill="white" stroke="#111827" stroke-width="1.2"/>
<text x="1074" y="221" text-anchor="middle" font-size="9" font-weight="bold">7</text>
<text x="1090" y="222">LCD FFC exit; backlight boost loop tight</text>
<circle cx="1074" cy="240" r="8" fill="white" stroke="#111827" stroke-width="1.2"/>
<text x="1074" y="243" text-anchor="middle" font-size="9" font-weight="bold">8</text>
<text x="1090" y="244">4 TMDS pairs 100R; companion IC at connector</text>
<circle cx="1074" cy="262" r="8" fill="white" stroke="#111827" stroke-width="1.2"/>
<text x="1074" y="265" text-anchor="middle" font-size="9" font-weight="bold">9</text>
<text x="1090" y="266">4 TMDS pairs 100R; companion IC at connector</text>
<circle cx="1074" cy="284" r="8" fill="white" stroke="#111827" stroke-width="1.2"/>
<text x="1074" y="287" text-anchor="middle" font-size="9" font-weight="bold">10</text>
<text x="1090" y="288">PMOD pair on gated +3V3_PMOD rail</text>
<circle cx="1074" cy="306" r="8" fill="white" stroke="#111827" stroke-width="1.2"/>
<text x="1074" y="309" text-anchor="middle" font-size="9" font-weight="bold">11</text>
<text x="1090" y="310">PMOD pair on gated +3V3_PMOD rail</text>
<circle cx="1074" cy="328" r="8" fill="white" stroke="#111827" stroke-width="1.2"/>
<text x="1074" y="331" text-anchor="middle" font-size="9" font-weight="bold">12</text>
<text x="1090" y="332">10 load switches: gated-rail star points</text>
<circle cx="1074" cy="350" r="8" fill="white" stroke="#111827" stroke-width="1.2"/>
<text x="1074" y="353" text-anchor="middle" font-size="9" font-weight="bold">13</text>
<text x="1090" y="354">rail-EN DIPs + PG LEDs: human access</text>
<circle cx="1074" cy="372" r="8" fill="white" stroke="#111827" stroke-width="1.2"/>
<text x="1074" y="375" text-anchor="middle" font-size="9" font-weight="bold">14</text>
<text x="1090" y="376">JTAG/SWD headers vertical: probe clearance</text>
<circle cx="1074" cy="394" r="8" fill="white" stroke="#111827" stroke-width="1.2"/>
<text x="1074" y="397" text-anchor="middle" font-size="9" font-weight="bold">15</text>
<text x="1090" y="398">magnetics keep-out: no planes line-side; 100R MDI</text>
<circle cx="1074" cy="416" r="8" fill="white" stroke="#111827" stroke-width="1.2"/>
<text x="1074" y="419" text-anchor="middle" font-size="9" font-weight="bold">16</text>
<text x="1090" y="420">bank-35 IO header: VADJ LDO copper</text>
<circle cx="1074" cy="438" r="8" fill="white" stroke="#111827" stroke-width="1.2"/>
<text x="1074" y="441" text-anchor="middle" font-size="9" font-weight="bold">17</text>
<text x="1090" y="442">2 bucks: thermal copper + vias; keep SW loops tight</text>
<circle cx="1074" cy="460" r="8" fill="white" stroke="#111827" stroke-width="1.2"/>
<text x="1074" y="463" text-anchor="middle" font-size="9" font-weight="bold">18</text>
<text x="1090" y="464">INA3221 shunts sit IN the rail path</text>
<circle cx="1074" cy="482" r="8" fill="white" stroke="#111827" stroke-width="1.2"/>
<text x="1074" y="485" text-anchor="middle" font-size="9" font-weight="bold">19</text>
<text x="1090" y="486">USB-UART conn deferred; TPs on TX/RX</text>
<circle cx="1074" cy="504" r="8" fill="white" stroke="#111827" stroke-width="1.2"/>
<text x="1074" y="507" text-anchor="middle" font-size="9" font-weight="bold">20</text>
<text x="1090" y="508">FUSB302 beside inlet: short CC stubs</text>
<circle cx="1074" cy="526" r="8" fill="white" stroke="#111827" stroke-width="1.2"/>
<text x="1074" y="529" text-anchor="middle" font-size="9" font-weight="bold">21</text>
<text x="1090" y="530">LEDs + buttons human-facing</text>
<text x="1066" y="564" fill="#6b7280" font-size="10">block area = courtyards (big parts raw, small x3.5) — see FLOORPLAN.md</text>
</svg>
