<svg xmlns="http://www.w3.org/2000/svg" viewBox="0 0 1766 1086" font-family="ui-monospace, SFMono-Regular, Menlo, monospace" font-size="11">
<defs><pattern id="keepout" width="6" height="6" patternUnits="userSpaceOnUse" patternTransform="rotate(45)"><line x1="0" y1="0" x2="0" y2="6" stroke="#dc2626" stroke-width="1.2"/></pattern></defs>
<rect width="1766" height="1086" fill="white"/>
<text x="46.0" y="26" font-size="16" font-weight="bold">carrier floorplan — SUGGESTION, not constraint</text>
<text x="46.0" y="44" fill="#6b7280">to scale; derived from the netlists + som/Zynq_SoM.kicad_pcb — regenerate with `schgen floorplan`; the user owns the outline (PLAN.md round 2)</text>
<rect x="46.0" y="64.0" width="1290" height="966" fill="#fcfcfd" stroke="#111827" stroke-width="2" stroke-dasharray="9,5"/>
<line x1="106.0" y1="64.0" x2="106.0" y2="1030.0" stroke="#eceef1" stroke-width="1"/>
<text x="106.0" y="60.0" fill="#9ca3af" font-size="8" text-anchor="middle">10</text>
<line x1="166.0" y1="64.0" x2="166.0" y2="1030.0" stroke="#eceef1" stroke-width="1"/>
<text x="166.0" y="60.0" fill="#9ca3af" font-size="8" text-anchor="middle">20</text>
<line x1="226.0" y1="64.0" x2="226.0" y2="1030.0" stroke="#eceef1" stroke-width="1"/>
<text x="226.0" y="60.0" fill="#9ca3af" font-size="8" text-anchor="middle">30</text>
<line x1="286.0" y1="64.0" x2="286.0" y2="1030.0" stroke="#eceef1" stroke-width="1"/>
<text x="286.0" y="60.0" fill="#9ca3af" font-size="8" text-anchor="middle">40</text>
<line x1="346.0" y1="64.0" x2="346.0" y2="1030.0" stroke="#eceef1" stroke-width="1"/>
<text x="346.0" y="60.0" fill="#9ca3af" font-size="8" text-anchor="middle">50</text>
<line x1="406.0" y1="64.0" x2="406.0" y2="1030.0" stroke="#eceef1" stroke-width="1"/>
<text x="406.0" y="60.0" fill="#9ca3af" font-size="8" text-anchor="middle">60</text>
<line x1="466.0" y1="64.0" x2="466.0" y2="1030.0" stroke="#eceef1" stroke-width="1"/>
<text x="466.0" y="60.0" fill="#9ca3af" font-size="8" text-anchor="middle">70</text>
<line x1="526.0" y1="64.0" x2="526.0" y2="1030.0" stroke="#eceef1" stroke-width="1"/>
<text x="526.0" y="60.0" fill="#9ca3af" font-size="8" text-anchor="middle">80</text>
<line x1="586.0" y1="64.0" x2="586.0" y2="1030.0" stroke="#eceef1" stroke-width="1"/>
<text x="586.0" y="60.0" fill="#9ca3af" font-size="8" text-anchor="middle">90</text>
<line x1="646.0" y1="64.0" x2="646.0" y2="1030.0" stroke="#eceef1" stroke-width="1"/>
<text x="646.0" y="60.0" fill="#9ca3af" font-size="8" text-anchor="middle">100</text>
<line x1="706.0" y1="64.0" x2="706.0" y2="1030.0" stroke="#eceef1" stroke-width="1"/>
<text x="706.0" y="60.0" fill="#9ca3af" font-size="8" text-anchor="middle">110</text>
<line x1="766.0" y1="64.0" x2="766.0" y2="1030.0" stroke="#eceef1" stroke-width="1"/>
<text x="766.0" y="60.0" fill="#9ca3af" font-size="8" text-anchor="middle">120</text>
<line x1="826.0" y1="64.0" x2="826.0" y2="1030.0" stroke="#eceef1" stroke-width="1"/>
<text x="826.0" y="60.0" fill="#9ca3af" font-size="8" text-anchor="middle">130</text>
<line x1="886.0" y1="64.0" x2="886.0" y2="1030.0" stroke="#eceef1" stroke-width="1"/>
<text x="886.0" y="60.0" fill="#9ca3af" font-size="8" text-anchor="middle">140</text>
<line x1="946.0" y1="64.0" x2="946.0" y2="1030.0" stroke="#eceef1" stroke-width="1"/>
<text x="946.0" y="60.0" fill="#9ca3af" font-size="8" text-anchor="middle">150</text>
<line x1="1006.0" y1="64.0" x2="1006.0" y2="1030.0" stroke="#eceef1" stroke-width="1"/>
<text x="1006.0" y="60.0" fill="#9ca3af" font-size="8" text-anchor="middle">160</text>
<line x1="1066.0" y1="64.0" x2="1066.0" y2="1030.0" stroke="#eceef1" stroke-width="1"/>
<text x="1066.0" y="60.0" fill="#9ca3af" font-size="8" text-anchor="middle">170</text>
<line x1="1126.0" y1="64.0" x2="1126.0" y2="1030.0" stroke="#eceef1" stroke-width="1"/>
<text x="1126.0" y="60.0" fill="#9ca3af" font-size="8" text-anchor="middle">180</text>
<line x1="1186.0" y1="64.0" x2="1186.0" y2="1030.0" stroke="#eceef1" stroke-width="1"/>
<text x="1186.0" y="60.0" fill="#9ca3af" font-size="8" text-anchor="middle">190</text>
<line x1="1246.0" y1="64.0" x2="1246.0" y2="1030.0" stroke="#eceef1" stroke-width="1"/>
<text x="1246.0" y="60.0" fill="#9ca3af" font-size="8" text-anchor="middle">200</text>
<line x1="1306.0" y1="64.0" x2="1306.0" y2="1030.0" stroke="#eceef1" stroke-width="1"/>
<text x="1306.0" y="60.0" fill="#9ca3af" font-size="8" text-anchor="middle">210</text>
<line x1="46.0" y1="124.0" x2="1336.0" y2="124.0" stroke="#eceef1" stroke-width="1"/>
<text x="40.0" y="127.0" fill="#9ca3af" font-size="8" text-anchor="end">10</text>
<line x1="46.0" y1="184.0" x2="1336.0" y2="184.0" stroke="#eceef1" stroke-width="1"/>
<text x="40.0" y="187.0" fill="#9ca3af" font-size="8" text-anchor="end">20</text>
<line x1="46.0" y1="244.0" x2="1336.0" y2="244.0" stroke="#eceef1" stroke-width="1"/>
<text x="40.0" y="247.0" fill="#9ca3af" font-size="8" text-anchor="end">30</text>
<line x1="46.0" y1="304.0" x2="1336.0" y2="304.0" stroke="#eceef1" stroke-width="1"/>
<text x="40.0" y="307.0" fill="#9ca3af" font-size="8" text-anchor="end">40</text>
<line x1="46.0" y1="364.0" x2="1336.0" y2="364.0" stroke="#eceef1" stroke-width="1"/>
<text x="40.0" y="367.0" fill="#9ca3af" font-size="8" text-anchor="end">50</text>
<line x1="46.0" y1="424.0" x2="1336.0" y2="424.0" stroke="#eceef1" stroke-width="1"/>
<text x="40.0" y="427.0" fill="#9ca3af" font-size="8" text-anchor="end">60</text>
<line x1="46.0" y1="484.0" x2="1336.0" y2="484.0" stroke="#eceef1" stroke-width="1"/>
<text x="40.0" y="487.0" fill="#9ca3af" font-size="8" text-anchor="end">70</text>
<line x1="46.0" y1="544.0" x2="1336.0" y2="544.0" stroke="#eceef1" stroke-width="1"/>
<text x="40.0" y="547.0" fill="#9ca3af" font-size="8" text-anchor="end">80</text>
<line x1="46.0" y1="604.0" x2="1336.0" y2="604.0" stroke="#eceef1" stroke-width="1"/>
<text x="40.0" y="607.0" fill="#9ca3af" font-size="8" text-anchor="end">90</text>
<line x1="46.0" y1="664.0" x2="1336.0" y2="664.0" stroke="#eceef1" stroke-width="1"/>
<text x="40.0" y="667.0" fill="#9ca3af" font-size="8" text-anchor="end">100</text>
<line x1="46.0" y1="724.0" x2="1336.0" y2="724.0" stroke="#eceef1" stroke-width="1"/>
<text x="40.0" y="727.0" fill="#9ca3af" font-size="8" text-anchor="end">110</text>
<line x1="46.0" y1="784.0" x2="1336.0" y2="784.0" stroke="#eceef1" stroke-width="1"/>
<text x="40.0" y="787.0" fill="#9ca3af" font-size="8" text-anchor="end">120</text>
<line x1="46.0" y1="844.0" x2="1336.0" y2="844.0" stroke="#eceef1" stroke-width="1"/>
<text x="40.0" y="847.0" fill="#9ca3af" font-size="8" text-anchor="end">130</text>
<line x1="46.0" y1="904.0" x2="1336.0" y2="904.0" stroke="#eceef1" stroke-width="1"/>
<text x="40.0" y="907.0" fill="#9ca3af" font-size="8" text-anchor="end">140</text>
<line x1="46.0" y1="964.0" x2="1336.0" y2="964.0" stroke="#eceef1" stroke-width="1"/>
<text x="40.0" y="967.0" fill="#9ca3af" font-size="8" text-anchor="end">150</text>
<line x1="46.0" y1="1024.0" x2="1336.0" y2="1024.0" stroke="#eceef1" stroke-width="1"/>
<text x="40.0" y="1027.0" fill="#9ca3af" font-size="8" text-anchor="end">160</text>
<text x="46.0" y="1046.0" fill="#6b7280">derived outline 215 x 161 mm (SoM + connector bands + component area + perimeter keepout)</text>
<rect x="988.0" y="532.0" width="70.08" height="94.464" rx="3" fill="#f9fafb" stroke="#374151" stroke-width="1.4"/>
<text x="1023.0" y="579.2" text-anchor="middle" font-size="11.0" font-weight="bold">board_aux</text>
<text x="1023.0" y="589.2" text-anchor="middle" font-size="7.5" fill="#6b7280">18p</text>
<rect x="1258.0" y="202.0" width="69.8106" height="41.9994" rx="3" fill="#eff6ff" stroke="#1e3a8a" stroke-width="1.4"/>
<text x="1292.9" y="223.0" text-anchor="middle" font-size="9.4" font-weight="bold">board_qwiic</text>
<text x="1292.9" y="233.0" text-anchor="middle" font-size="7.5" fill="#6b7280">2p</text>
<rect x="1084.0" y="748.0" width="136.8" height="140.898" rx="3" fill="#f9fafb" stroke="#374151" stroke-width="1.4"/>
<text x="1152.4" y="818.4" text-anchor="middle" font-size="11.0" font-weight="bold">board_services</text>
<text x="1152.4" y="828.4" text-anchor="middle" font-size="7.5" fill="#6b7280">9p</text>
<rect x="298.0" y="460.0" width="52.08" height="91.8" rx="3" fill="#ecfdf5" stroke="#047857" stroke-width="1.4"/>
<text x="324.0" y="505.9" text-anchor="middle" font-size="7.4" font-weight="bold">bringup_en</text>
<text x="324.0" y="515.9" text-anchor="middle" font-size="7.5" fill="#6b7280">15p</text>
<rect x="904.0" y="322.0" width="105.42" height="151.2" rx="3" fill="#ecfdf5" stroke="#047857" stroke-width="1.4"/>
<text x="956.7" y="397.6" text-anchor="middle" font-size="8.9" font-weight="bold">bringup_en_modules</text>
<text x="956.7" y="407.6" text-anchor="middle" font-size="7.5" fill="#6b7280">54p</text>
<rect x="1018.0" y="412.0" width="115.8" height="110.796" rx="3" fill="#ecfdf5" stroke="#047857" stroke-width="1.4"/>
<text x="1075.9" y="467.4" text-anchor="middle" font-size="11.0" font-weight="bold">bringup_modules</text>
<text x="1075.9" y="477.4" text-anchor="middle" font-size="7.5" fill="#6b7280">71p</text>
<circle cx="1018" cy="412" r="7" fill="white" stroke="#111827" stroke-width="1.2"/>
<text x="1018" y="415" text-anchor="middle" font-size="9" font-weight="bold">12</text>
<rect x="484.0" y="316.0" width="410.82" height="115.8" rx="3" fill="#ecfdf5" stroke="#047857" stroke-width="1.4"/>
<text x="689.4" y="373.9" text-anchor="middle" font-size="11.0" font-weight="bold">bringup_rails</text>
<text x="689.4" y="383.9" text-anchor="middle" font-size="7.5" fill="#6b7280">23p</text>
<circle cx="484" cy="316" r="7" fill="white" stroke="#111827" stroke-width="1.2"/>
<text x="484" y="319" text-anchor="middle" font-size="9" font-weight="bold">13</text>
<rect x="55.0" y="688.0" width="96.1806" height="175.351" rx="3" fill="#eff6ff" stroke="#1e3a8a" stroke-width="1.4"/>
<rect x="55.0" y="713.3" width="39.3" height="124.8" fill="#bfdbfe" stroke="#1e3a8a" stroke-width="1.2"/>
<text x="100.1" y="775.7" text-anchor="middle" font-size="11.0" font-weight="bold" transform="rotate(-90 100.1 775.7)">camera</text>
<text x="111.1" y="775.7" text-anchor="middle" font-size="7.5" fill="#6b7280" transform="rotate(-90 111.1 775.7)">13p</text>
<circle cx="55" cy="688" r="7" fill="white" stroke="#111827" stroke-width="1.2"/>
<text x="55" y="691" text-anchor="middle" font-size="9" font-weight="bold">7</text>
<rect x="562.0" y="808.0" width="159.84" height="102.264" rx="3" fill="#f9fafb" stroke="#374151" stroke-width="1.4"/>
<text x="641.9" y="859.1" text-anchor="middle" font-size="11.0" font-weight="bold">debug_boot</text>
<text x="641.9" y="869.1" text-anchor="middle" font-size="7.5" fill="#6b7280">10p</text>
<circle cx="562" cy="808" r="7" fill="white" stroke="#111827" stroke-width="1.2"/>
<text x="562" y="811" text-anchor="middle" font-size="9" font-weight="bold">14</text>
<rect x="226.0" y="268.0" width="151.546" height="130.47" rx="3" fill="#f9fafb" stroke="#374151" stroke-width="1.4" stroke-dasharray="5,4"/>
<rect x="226" y="268" width="151.546" height="65.235" fill="url(#keepout)" opacity="0.5"/>
<text x="301.8" y="333.2" text-anchor="middle" font-size="11.0" font-weight="bold">ethernet</text>
<text x="301.8" y="343.2" text-anchor="middle" font-size="7.5" fill="#6b7280">10p</text>
<circle cx="226" cy="268" r="7" fill="white" stroke="#111827" stroke-width="1.2"/>
<text x="226" y="271" text-anchor="middle" font-size="9" font-weight="bold">15</text>
<rect x="358.0" y="418.0" width="112.11" height="369.78" rx="3" fill="#f9fafb" stroke="#374151" stroke-width="1.4"/>
<text x="414.1" y="602.9" text-anchor="middle" font-size="11.0" font-weight="bold">fmc</text>
<text x="414.1" y="612.9" text-anchor="middle" font-size="7.5" fill="#6b7280">8p</text>
<circle cx="358" cy="418" r="7" fill="white" stroke="#111827" stroke-width="1.2"/>
<text x="358" y="421" text-anchor="middle" font-size="9" font-weight="bold">16</text>
<rect x="391.0" y="874.0" width="99.5994" height="145.537" rx="3" fill="#eff6ff" stroke="#1e3a8a" stroke-width="1.4"/>
<rect x="395.7" y="949.8" width="90.18" height="69.78" fill="#bfdbfe" stroke="#1e3a8a" stroke-width="1.2"/>
<text x="440.8" y="946.8" text-anchor="middle" font-size="11.0" font-weight="bold">hdmi_rx</text>
<text x="440.8" y="956.8" text-anchor="middle" font-size="7.5" fill="#6b7280">10p</text>
<circle cx="391" cy="874" r="7" fill="white" stroke="#111827" stroke-width="1.2"/>
<text x="391" y="877" text-anchor="middle" font-size="9" font-weight="bold">9</text>
<rect x="610.0" y="733.5" width="70.83" height="46.83" rx="3" fill="#f9fafb" stroke="#374151" stroke-width="1.4"/>
<text x="645.4" y="757.0" text-anchor="middle" font-size="8.7" font-weight="bold">hdmi_rx_term</text>
<text x="645.4" y="767.0" text-anchor="middle" font-size="7.5" fill="#6b7280">10p</text>
<rect x="169.0" y="850.0" width="102.928" height="171.436" rx="3" fill="#eff6ff" stroke="#1e3a8a" stroke-width="1.4"/>
<rect x="175.4" y="951.7" width="90.18" height="69.78" fill="#bfdbfe" stroke="#1e3a8a" stroke-width="1.2"/>
<text x="220.5" y="935.7" text-anchor="middle" font-size="11.0" font-weight="bold">hdmi_tx</text>
<text x="220.5" y="945.7" text-anchor="middle" font-size="7.5" fill="#6b7280">12p</text>
<circle cx="169" cy="850" r="7" fill="white" stroke="#111827" stroke-width="1.2"/>
<text x="169" y="853" text-anchor="middle" font-size="9" font-weight="bold">8</text>
<rect x="55.0" y="400.0" width="142.26" height="277.35" rx="3" fill="#eff6ff" stroke="#1e3a8a" stroke-width="1.4"/>
<rect x="55.0" y="460.4" width="38.4" height="156.6" fill="#bfdbfe" stroke="#1e3a8a" stroke-width="1.2"/>
<text x="123.1" y="538.7" text-anchor="middle" font-size="11.0" font-weight="bold" transform="rotate(-90 123.1 538.7)">lcd</text>
<text x="134.1" y="538.7" text-anchor="middle" font-size="7.5" fill="#6b7280" transform="rotate(-90 134.1 538.7)">20p</text>
<circle cx="55" cy="400" r="7" fill="white" stroke="#111827" stroke-width="1.2"/>
<text x="55" y="403" text-anchor="middle" font-size="9" font-weight="bold">6</text>
<rect x="820.0" y="232.0" width="78" height="78" rx="3" fill="#f9fafb" stroke="#374151" stroke-width="1.4"/>
<text x="859.0" y="271.0" text-anchor="middle" font-size="11.0" font-weight="bold">mechanical</text>
<text x="859.0" y="281.0" text-anchor="middle" font-size="7.5" fill="#6b7280">4p</text>
<rect x="433.0" y="73.0" width="103.92" height="180.157" rx="3" fill="#eff6ff" stroke="#1e3a8a" stroke-width="1.4"/>
<rect x="438.6" y="73.0" width="92.76" height="90.3" fill="#bfdbfe" stroke="#1e3a8a" stroke-width="1.2"/>
<text x="485.0" y="163.1" text-anchor="middle" font-size="11.0" font-weight="bold">microsd</text>
<text x="485.0" y="173.1" text-anchor="middle" font-size="7.5" fill="#6b7280">15p</text>
<circle cx="433" cy="73" r="7" fill="white" stroke="#111827" stroke-width="1.2"/>
<text x="433" y="76" text-anchor="middle" font-size="9" font-weight="bold">1</text>
<rect x="1087.0" y="625.0" width="239.881" height="109.794" rx="3" fill="#eff6ff" stroke="#1e3a8a" stroke-width="1.4"/>
<text x="1206.9" y="679.9" text-anchor="middle" font-size="11.0" font-weight="bold">motor_pwm</text>
<text x="1206.9" y="689.9" text-anchor="middle" font-size="7.5" fill="#6b7280">13p</text>
<rect x="1222.0" y="259.0" width="104.55" height="358.124" rx="3" fill="#eff6ff" stroke="#1e3a8a" stroke-width="1.4"/>
<rect x="1233.6" y="305.8" width="92.94" height="108.9" fill="#bfdbfe" stroke="#1e3a8a" stroke-width="1.2"/>
<rect x="1233.6" y="461.4" width="92.94" height="108.9" fill="#bfdbfe" stroke="#1e3a8a" stroke-width="1.2"/>
<text x="1271.3" y="438.1" text-anchor="middle" font-size="11.0" font-weight="bold" transform="rotate(-90 1271.3 438.1)">motor_sense</text>
<text x="1282.3" y="438.1" text-anchor="middle" font-size="7.5" fill="#6b7280" transform="rotate(-90 1282.3 438.1)">10p</text>
<rect x="550.0" y="73.0" width="146.732" height="132.158" rx="3" fill="#eff6ff" stroke="#1e3a8a" stroke-width="1.4"/>
<rect x="596.5" y="73.0" width="53.82" height="47.1" fill="#bfdbfe" stroke="#1e3a8a" stroke-width="1.2"/>
<text x="623.4" y="139.1" text-anchor="middle" font-size="11.0" font-weight="bold">pd_input</text>
<text x="623.4" y="149.1" text-anchor="middle" font-size="7.5" fill="#6b7280">13p</text>
<circle cx="550" cy="73" r="7" fill="white" stroke="#111827" stroke-width="1.2"/>
<text x="550" y="76" text-anchor="middle" font-size="9" font-weight="bold">2</text>
<rect x="610.0" y="934.0" width="250.59" height="87.504" rx="3" fill="#eff6ff" stroke="#1e3a8a" stroke-width="1.4"/>
<rect x="630.6" y="943.3" width="94.44" height="78.24" fill="#bfdbfe" stroke="#1e3a8a" stroke-width="1.2"/>
<rect x="745.6" y="943.3" width="94.44" height="78.24" fill="#bfdbfe" stroke="#1e3a8a" stroke-width="1.2"/>
<text x="735.3" y="977.8" text-anchor="middle" font-size="11.0" font-weight="bold">pmod</text>
<text x="735.3" y="987.8" text-anchor="middle" font-size="7.5" fill="#6b7280">26p</text>
<circle cx="610" cy="934" r="7" fill="white" stroke="#111827" stroke-width="1.2"/>
<text x="610" y="937" text-anchor="middle" font-size="9" font-weight="bold">10</text>
<rect x="868.0" y="886.0" width="204.09" height="135.138" rx="3" fill="#eff6ff" stroke="#1e3a8a" stroke-width="1.4"/>
<rect x="922.8" y="942.9" width="94.44" height="78.24" fill="#bfdbfe" stroke="#1e3a8a" stroke-width="1.2"/>
<text x="970.0" y="953.6" text-anchor="middle" font-size="11.0" font-weight="bold">pmod_expansion</text>
<text x="970.0" y="963.6" text-anchor="middle" font-size="7.5" fill="#6b7280">15p</text>
<circle cx="868" cy="886" r="7" fill="white" stroke="#111827" stroke-width="1.2"/>
<text x="868" y="889" text-anchor="middle" font-size="9" font-weight="bold">11</text>
<rect x="1028.5" y="70.0" width="143.609" height="330.902" rx="3" fill="#ecfdf5" stroke="#047857" stroke-width="1.4"/>
<text x="1100.3" y="235.5" text-anchor="middle" font-size="11.0" font-weight="bold">power</text>
<text x="1100.3" y="245.5" text-anchor="middle" font-size="7.5" fill="#6b7280">51p</text>
<circle cx="1028.5" cy="70" r="7" fill="white" stroke="#111827" stroke-width="1.2"/>
<text x="1028.5" y="73" text-anchor="middle" font-size="9" font-weight="bold">17</text>
<rect x="659.3" y="227.9" width="158.932" height="86.283" rx="3" fill="#ecfdf5" stroke="#047857" stroke-width="1.4"/>
<text x="738.7" y="271.1" text-anchor="middle" font-size="11.0" font-weight="bold">power_mon</text>
<text x="738.7" y="281.1" text-anchor="middle" font-size="7.5" fill="#6b7280">10p</text>
<circle cx="659.3" cy="227.9" r="7" fill="white" stroke="#111827" stroke-width="1.2"/>
<text x="659.3" y="230.9" text-anchor="middle" font-size="9" font-weight="bold">18</text>
<rect x="832.0" y="475.0" width="143.609" height="146.01" rx="3" fill="#ecfdf5" stroke="#047857" stroke-width="1.4"/>
<text x="903.8" y="548.0" text-anchor="middle" font-size="11.0" font-weight="bold">power_som</text>
<text x="903.8" y="558.0" text-anchor="middle" font-size="7.5" fill="#6b7280">23p</text>
<rect x="55.0" y="274.0" width="164.22" height="116.4" rx="3" fill="#eff6ff" stroke="#1e3a8a" stroke-width="1.4"/>
<text x="137.1" y="332.2" text-anchor="middle" font-size="11.0" font-weight="bold">rj45_connector</text>
<text x="137.1" y="342.2" text-anchor="middle" font-size="7.5" fill="#6b7280">3p</text>
<rect x="964.0" y="208.0" width="55.6506" height="91.2" rx="3" fill="#f9fafb" stroke="#374151" stroke-width="1.4" stroke-dasharray="5,4"/>
<text x="991.8" y="253.6" text-anchor="middle" font-size="7.3" font-weight="bold">uart_bridge</text>
<text x="991.8" y="263.6" text-anchor="middle" font-size="7.5" fill="#6b7280">10p</text>
<circle cx="964" cy="208" r="7" fill="white" stroke="#111827" stroke-width="1.2"/>
<text x="964" y="211" text-anchor="middle" font-size="9" font-weight="bold">19</text>
<rect x="886.0" y="670.0" width="174.211" height="165.822" rx="3" fill="#f9fafb" stroke="#374151" stroke-width="1.4"/>
<text x="973.1" y="752.9" text-anchor="middle" font-size="11.0" font-weight="bold">usb_jtag</text>
<text x="973.1" y="762.9" text-anchor="middle" font-size="7.5" fill="#6b7280">19p</text>
<rect x="877.0" y="73.0" width="62.7006" height="114.793" rx="3" fill="#eff6ff" stroke="#1e3a8a" stroke-width="1.4"/>
<rect x="881.4" y="73.0" width="53.82" height="47.1" fill="#bfdbfe" stroke="#1e3a8a" stroke-width="1.2"/>
<text x="908.4" y="130.4" text-anchor="middle" font-size="7.0" font-weight="bold">usb_jtag_connector</text>
<text x="908.4" y="140.4" text-anchor="middle" font-size="7.5" fill="#6b7280">6p</text>
<circle cx="877" cy="73" r="7" fill="white" stroke="#111827" stroke-width="1.2"/>
<text x="877" y="76" text-anchor="middle" font-size="9" font-weight="bold">4</text>
<rect x="604.0" y="208.0" width="49.08" height="61.68" rx="3" fill="#f9fafb" stroke="#374151" stroke-width="1.4"/>
<text x="628.5" y="238.8" text-anchor="middle" font-size="11.0" font-weight="bold">usb_pd</text>
<text x="628.5" y="248.8" text-anchor="middle" font-size="7.5" fill="#6b7280">6p</text>
<circle cx="604" cy="208" r="7" fill="white" stroke="#111827" stroke-width="1.2"/>
<text x="604" y="211" text-anchor="middle" font-size="9" font-weight="bold">20</text>
<rect x="964.0" y="73.0" width="62.7006" height="114.793" rx="3" fill="#eff6ff" stroke="#1e3a8a" stroke-width="1.4"/>
<rect x="968.4" y="73.0" width="53.82" height="47.1" fill="#bfdbfe" stroke="#1e3a8a" stroke-width="1.2"/>
<text x="995.4" y="130.4" text-anchor="middle" font-size="7.0" font-weight="bold">usb_uart_connector</text>
<text x="995.4" y="140.4" text-anchor="middle" font-size="7.5" fill="#6b7280">5p</text>
<circle cx="964" cy="73" r="7" fill="white" stroke="#111827" stroke-width="1.2"/>
<text x="964" y="76" text-anchor="middle" font-size="9" font-weight="bold">5</text>
<rect x="718.0" y="73.0" width="139.259" height="133.609" rx="3" fill="#eff6ff" stroke="#1e3a8a" stroke-width="1.4"/>
<rect x="760.7" y="73.0" width="53.82" height="47.1" fill="#bfdbfe" stroke="#1e3a8a" stroke-width="1.2"/>
<text x="787.6" y="139.8" text-anchor="middle" font-size="11.0" font-weight="bold">usbc_otg</text>
<text x="787.6" y="149.8" text-anchor="middle" font-size="7.5" fill="#6b7280">12p</text>
<circle cx="718" cy="73" r="7" fill="white" stroke="#111827" stroke-width="1.2"/>
<text x="718" y="76" text-anchor="middle" font-size="9" font-weight="bold">3</text>
<rect x="736.0" y="724.0" width="138.66" height="109.8" rx="3" fill="#f9fafb" stroke="#374151" stroke-width="1.4"/>
<text x="805.3" y="778.9" text-anchor="middle" font-size="11.0" font-weight="bold">user_io</text>
<text x="805.3" y="788.9" text-anchor="middle" font-size="7.5" fill="#6b7280">17p</text>
<circle cx="736" cy="724" r="7" fill="white" stroke="#111827" stroke-width="1.2"/>
<text x="736" y="727" text-anchor="middle" font-size="9" font-weight="bold">21</text>
<rect x="493.0" y="457.0" width="300" height="252" rx="8" fill="#fef3c7" stroke="#92400e" stroke-width="2" opacity="0.95"/>
<text x="643" y="577" text-anchor="middle" font-size="13" font-weight="bold" fill="#92400e">Zynq SoM 50 x 42</text>
<text x="643" y="593" text-anchor="middle" font-size="8.5" fill="#92400e">(bottom view: DF40 positions mirrored from the SoM PCB)</text>
<rect x="559.6" y="466.7" width="118.8" height="22.68" fill="#92400e"/>
<text x="619.0" y="481.5" text-anchor="middle" font-size="10" font-weight="bold" fill="white">J1</text>
<rect x="559.6" y="676.7" width="118.8" height="22.68" fill="#92400e"/>
<text x="619.0" y="691.5" text-anchor="middle" font-size="10" font-weight="bold" fill="white">J2</text>
<rect x="499.7" y="523.6" width="22.68" height="118.8" fill="#92400e"/>
<text x="511.0" y="586.5" text-anchor="middle" font-size="10" font-weight="bold" fill="white" transform="rotate(-90 511.0 586.5)">J3</text>
<line x1="46.0" y1="1060.0" x2="166.0" y2="1060.0" stroke="#111827" stroke-width="3"/>
<text x="106.0" y="1074.0" text-anchor="middle" fill="#6b7280">20 mm</text>
<text x="1366" y="68" font-size="13" font-weight="bold">placement notes (derived)</text>
<circle cx="1374" cy="86" r="8" fill="white" stroke="#111827" stroke-width="1.2"/>
<text x="1374" y="89" text-anchor="middle" font-size="9" font-weight="bold">1</text>
<text x="1390" y="90">SDIO 1.8V island: TXS02612 splits 1.8V / 3.3V sides</text>
<circle cx="1374" cy="108" r="8" fill="white" stroke="#111827" stroke-width="1.2"/>
<text x="1374" y="111" text-anchor="middle" font-size="9" font-weight="bold">2</text>
<text x="1390" y="112">power inlet: VBUS-&gt;TVS-&gt;bulk-&gt;+VIN; CC pair to FUSB302</text>
<circle cx="1374" cy="130" r="8" fill="white" stroke="#111827" stroke-width="1.2"/>
<text x="1374" y="133" text-anchor="middle" font-size="9" font-weight="bold">3</text>
<text x="1390" y="134">USB-C OTG: 90R HS pair short + matched; ESD at conn</text>
<circle cx="1374" cy="152" r="8" fill="white" stroke="#111827" stroke-width="1.2"/>
<text x="1374" y="155" text-anchor="middle" font-size="9" font-weight="bold">4</text>
<text x="1390" y="156">USB-C OTG: 90R HS pair short + matched; ESD at conn</text>
<circle cx="1374" cy="174" r="8" fill="white" stroke="#111827" stroke-width="1.2"/>
<text x="1374" y="177" text-anchor="middle" font-size="9" font-weight="bold">5</text>
<text x="1390" y="178">USB-C OTG: 90R HS pair short + matched; ESD at conn</text>
<circle cx="1374" cy="196" r="8" fill="white" stroke="#111827" stroke-width="1.2"/>
<text x="1374" y="199" text-anchor="middle" font-size="9" font-weight="bold">6</text>
<text x="1390" y="200">LCD FFC exit; backlight boost loop tight</text>
<circle cx="1374" cy="218" r="8" fill="white" stroke="#111827" stroke-width="1.2"/>
<text x="1374" y="221" text-anchor="middle" font-size="9" font-weight="bold">7</text>
<text x="1390" y="222">camera FFC: 3 CSI-2 pairs 100R to J3 side</text>
<circle cx="1374" cy="240" r="8" fill="white" stroke="#111827" stroke-width="1.2"/>
<text x="1374" y="243" text-anchor="middle" font-size="9" font-weight="bold">8</text>
<text x="1390" y="244">4 TMDS pairs 100R; companion IC at connector</text>
<circle cx="1374" cy="262" r="8" fill="white" stroke="#111827" stroke-width="1.2"/>
<text x="1374" y="265" text-anchor="middle" font-size="9" font-weight="bold">9</text>
<text x="1390" y="266">4 TMDS pairs 100R; companion IC at connector</text>
<circle cx="1374" cy="284" r="8" fill="white" stroke="#111827" stroke-width="1.2"/>
<text x="1374" y="287" text-anchor="middle" font-size="9" font-weight="bold">10</text>
<text x="1390" y="288">PMOD pair on gated +3V3_PMOD rail</text>
<circle cx="1374" cy="306" r="8" fill="white" stroke="#111827" stroke-width="1.2"/>
<text x="1374" y="309" text-anchor="middle" font-size="9" font-weight="bold">11</text>
<text x="1390" y="310">PMOD pair on gated +3V3_PMOD rail</text>
<circle cx="1374" cy="328" r="8" fill="white" stroke="#111827" stroke-width="1.2"/>
<text x="1374" y="331" text-anchor="middle" font-size="9" font-weight="bold">12</text>
<text x="1390" y="332">10 load switches: gated-rail star points</text>
<circle cx="1374" cy="350" r="8" fill="white" stroke="#111827" stroke-width="1.2"/>
<text x="1374" y="353" text-anchor="middle" font-size="9" font-weight="bold">13</text>
<text x="1390" y="354">rail-EN DIPs + PG LEDs: human access</text>
<circle cx="1374" cy="372" r="8" fill="white" stroke="#111827" stroke-width="1.2"/>
<text x="1374" y="375" text-anchor="middle" font-size="9" font-weight="bold">14</text>
<text x="1390" y="376">JTAG/SWD headers vertical: probe clearance</text>
<circle cx="1374" cy="394" r="8" fill="white" stroke="#111827" stroke-width="1.2"/>
<text x="1374" y="397" text-anchor="middle" font-size="9" font-weight="bold">15</text>
<text x="1390" y="398">magnetics keep-out: no planes line-side; 100R MDI</text>
<circle cx="1374" cy="416" r="8" fill="white" stroke="#111827" stroke-width="1.2"/>
<text x="1374" y="419" text-anchor="middle" font-size="9" font-weight="bold">16</text>
<text x="1390" y="420">bank-35 IO header: VADJ LDO copper</text>
<circle cx="1374" cy="438" r="8" fill="white" stroke="#111827" stroke-width="1.2"/>
<text x="1374" y="441" text-anchor="middle" font-size="9" font-weight="bold">17</text>
<text x="1390" y="442">2 bucks: thermal copper + vias; keep SW loops tight</text>
<circle cx="1374" cy="460" r="8" fill="white" stroke="#111827" stroke-width="1.2"/>
<text x="1374" y="463" text-anchor="middle" font-size="9" font-weight="bold">18</text>
<text x="1390" y="464">INA3221 shunts sit IN the rail path</text>
<circle cx="1374" cy="482" r="8" fill="white" stroke="#111827" stroke-width="1.2"/>
<text x="1374" y="485" text-anchor="middle" font-size="9" font-weight="bold">19</text>
<text x="1390" y="486">USB-UART conn deferred; TPs on TX/RX</text>
<circle cx="1374" cy="504" r="8" fill="white" stroke="#111827" stroke-width="1.2"/>
<text x="1374" y="507" text-anchor="middle" font-size="9" font-weight="bold">20</text>
<text x="1390" y="508">FUSB302 beside inlet: short CC stubs</text>
<circle cx="1374" cy="526" r="8" fill="white" stroke="#111827" stroke-width="1.2"/>
<text x="1374" y="529" text-anchor="middle" font-size="9" font-weight="bold">21</text>
<text x="1390" y="530">LEDs + buttons human-facing</text>
<text x="1366" y="564" fill="#6b7280" font-size="10">block area = courtyards (big parts raw, small x3.5) — see FLOORPLAN.md</text>
</svg>
