<svg xmlns="http://www.w3.org/2000/svg" viewBox="0 0 940 702" font-family="ui-monospace, SFMono-Regular, Menlo, monospace" font-size="11">
<rect width="940" height="702" fill="white"/>
<text x="30" y="28" font-size="15" font-weight="bold">carrier power tree — budget gate (PASS)</text>
<path d="M220,136 C280,136 250,70 360,70" fill="none" stroke="#2563eb" stroke-width="2"/>
<rect x="254" y="54" width="105" height="14" fill="white" fill-opacity="0.85"/>
<text x="256" y="65" fill="#2563eb">(13) 1.34/3.53A</text>
<line x1="550" y1="70" x2="690" y2="70" stroke="#9ca3af" stroke-width="1.5" stroke-dasharray="5,4"/>
<rect x="30" y="50" width="190" height="40" rx="8" fill="#fef3c7" stroke="#92400e" stroke-width="1.5"/>
<text x="40" y="66" font-weight="bold" font-size="12">+3V3_SC (3.3 V)</text>
<text x="40" y="82" fill="#374151">load 0.021 A / 0.3 A</text>
<rect x="30" y="116" width="190" height="40" rx="8" fill="#fef3c7" stroke="#92400e" stroke-width="1.5"/>
<text x="40" y="132" font-weight="bold" font-size="12">+VBUS_IN (20 V)</text>
<text x="40" y="148" fill="#374151">load 1.337 A / 3 A</text>
<rect x="360" y="50" width="190" height="40" rx="8" fill="#eff6ff" stroke="#1e3a8a" stroke-width="1.5"/>
<text x="370" y="66" font-weight="bold" font-size="12">+VIN (20 V)</text>
<text x="370" y="82" fill="#374151">load 1.337 A</text>
<rect x="690" y="50" width="190" height="40" rx="8" fill="#eff6ff" stroke="#1e3a8a" stroke-width="1.5"/>
<text x="700" y="66" font-weight="bold" font-size="12">+VIN_SYS (20 V)</text>
<text x="700" y="82" fill="#374151">load 1.337 A</text>
<text x="30" y="212" font-weight="bold" fill="#6b7280">unsourced rails (PLAN deferrals / findings):</text>
<text x="30" y="230" fill="#6b7280">+1V8 (0.006 A)</text>
<text x="230" y="230" fill="#6b7280">+1V8_REG (0.006 A)</text>
<text x="430" y="230" fill="#6b7280">+2V5_VADJ (0.400 A)</text>
<text x="630" y="230" fill="#6b7280">+3V3 (2.635 A)</text>
<text x="30" y="248" fill="#6b7280">+3V3_AUX (0.211 A)</text>
<text x="230" y="248" fill="#6b7280">+3V3_CAM (0.304 A)</text>
<text x="430" y="248" fill="#6b7280">+3V3_HDMI_RX (0.005 A)</text>
<text x="630" y="248" fill="#6b7280">+3V3_HDMI_TX (0.006 A)</text>
<text x="30" y="266" fill="#6b7280">+3V3_LCD (0.104 A)</text>
<text x="230" y="266" fill="#6b7280">+3V3_PMOD (0.204 A)</text>
<text x="430" y="266" fill="#6b7280">+3V3_REG (2.635 A)</text>
<text x="630" y="266" fill="#6b7280">+3V3_SD (0.254 A)</text>
<text x="30" y="284" fill="#6b7280">+3V3_USER_LED (0.010 A)</text>
<text x="230" y="284" fill="#6b7280">+5V (2.950 A)</text>
<text x="430" y="284" fill="#6b7280">+5V_HDMI_TX (0.058 A)</text>
<text x="630" y="284" fill="#6b7280">+5V_LCD (0.453 A)</text>
<text x="30" y="302" fill="#6b7280">+5V_REG (2.950 A)</text>
<text x="230" y="302" fill="#6b7280">+5V_SOM (2.004 A)</text>
<text x="430" y="302" fill="#6b7280">+5V_USB (0.503 A)</text>
<text x="30" y="362" font-weight="bold">regulators:</text>
<text x="30" y="380" fill="#374151">(1) board_aux:U1 SY6280AAC +3V3 -&gt; +3V3_AUX — load 0.211 A / limit 0.523 A [load_switch]</text>
<text x="30" y="396" fill="#374151">(2) bringup_modules:U1 SY6280AAC +3V3 -&gt; +3V3_HDMI_TX — load 0.006 A / limit 0.523 A [load_switch]</text>
<text x="30" y="412" fill="#374151">(3) bringup_modules:U10 SY6280AAC +5V -&gt; +5V_LCD — load 0.453 A / limit 1.000 A [load_switch]</text>
<text x="30" y="428" fill="#374151">(4) bringup_modules:U2 SY6280AAC +3V3 -&gt; +3V3_HDMI_RX — load 0.005 A / limit 0.523 A [load_switch]</text>
<text x="30" y="444" fill="#374151">(5) bringup_modules:U3 SY6280AAC +3V3 -&gt; +3V3_LCD — load 0.104 A / limit 1.000 A [load_switch]</text>
<text x="30" y="460" fill="#374151">(6) bringup_modules:U4 SY6280AAC +3V3 -&gt; +3V3_CAM — load 0.304 A / limit 0.523 A [load_switch]</text>
<text x="30" y="476" fill="#374151">(7) bringup_modules:U5 SY6280AAC +3V3 -&gt; +3V3_SD — load 0.254 A / limit 1.000 A [load_switch]</text>
<text x="30" y="492" fill="#374151">(8) bringup_modules:U6 SY6280AAC +5V -&gt; +5V_USB — load 0.503 A / limit 1.000 A [load_switch]</text>
<text x="30" y="508" fill="#374151">(9) bringup_modules:U7 SY6280AAC +3V3 -&gt; +3V3_PMOD — load 0.204 A / limit 0.523 A [load_switch]</text>
<text x="30" y="524" fill="#374151">(10) bringup_modules:U8 SY6280AAC +3V3 -&gt; +3V3_USER_LED — load 0.010 A / limit 0.523 A [load_switch]</text>
<text x="30" y="540" fill="#374151">(11) bringup_modules:U9 SY6280AAC +5V -&gt; +5V_HDMI_TX — load 0.058 A / limit 0.523 A [load_switch]</text>
<text x="30" y="556" fill="#374151">(12) fmc:U1 TLV75725PDYDR +3V3 -&gt; +2V5_VADJ — load 0.400 A / limit 0.400 A [ldo]</text>
<text x="30" y="572" fill="#374151">(13) pd_input:U1 TPS26631PWPR +VBUS_IN -&gt; +VIN — load 1.337 A / limit 3.529 A [efuse]</text>
<text x="30" y="588" fill="#374151">(14) power:U1 LM61460AANRJRR +VIN_SYS -&gt; +5V_REG — load 2.950 A / limit 6.000 A [buck]</text>
<text x="30" y="604" fill="#374151">(15) power:U2 TPS54302DDCR +5V -&gt; +3V3_REG — load 2.635 A / limit 3.000 A [buck]</text>
<text x="30" y="620" fill="#374151">(16) power:U3 AP2112K-1.8 +3V3 -&gt; +1V8_REG — load 0.006 A / limit 0.600 A [ldo]</text>
<text x="30" y="636" fill="#374151">(17) power_som:U4 TPS54302DDCR +VIN_SYS -&gt; +5V_SOM — load 2.004 A / limit 3.000 A [buck]</text>
</svg>
