<svg xmlns="http://www.w3.org/2000/svg" viewBox="0 0 720 1248" font-family="ui-monospace, SFMono-Regular, Menlo, monospace" font-size="11">
<rect width="720" height="1248" fill="white"/>
<text x="40" y="30" font-size="15" font-weight="bold">carrier power-up sequence — staged bring-up (PASS)</text>
<text x="40" y="52" font-size="11" fill="#6b7280">derived from the power-tree netlist; matches carrier/docs/BRINGUP.md staging. Arrows = rail dependency (parent -&gt; child).</text>
<text x="40" y="76" font-size="12" font-weight="bold" fill="#92400e">stage 0 — always-on (pre-DIP / pre-PD)</text>
<text x="40" y="450" font-size="12" font-weight="bold" fill="#1e3a8a">stages 1-3 — rail chain (close one DIP at a time)</text>
<text x="410" y="436" font-size="12" font-weight="bold" fill="#065f46">stage 4 — gated module rails (SY6280 load switches)</text>
<rect x="40" y="84" width="250" height="46" rx="8" fill="#fef3c7" stroke="#92400e" stroke-width="1.5"/>
<text x="50" y="101" font-weight="bold" font-size="12">+2V5_VADJ  (2.5 V)</text>
<text x="50" y="118" fill="#374151" font-size="10">load 0.000 A / lim 0.00 A</text>
<rect x="40" y="156" width="250" height="46" rx="8" fill="#fef3c7" stroke="#92400e" stroke-width="1.5"/>
<text x="50" y="173" font-weight="bold" font-size="12">+3V3_SC  (3.3 V)</text>
<text x="50" y="190" fill="#374151" font-size="10">load 0.000 A / lim 0.30 A</text>
<rect x="40" y="228" width="250" height="46" rx="8" fill="#fef3c7" stroke="#92400e" stroke-width="1.5"/>
<text x="50" y="245" font-weight="bold" font-size="12">+5V_SOM  (4.65 V)</text>
<text x="50" y="262" fill="#374151" font-size="10">load 0.000 A / lim 0.00 A</text>
<rect x="40" y="300" width="250" height="46" rx="8" fill="#fef3c7" stroke="#92400e" stroke-width="1.5"/>
<text x="50" y="317" font-weight="bold" font-size="12">+VBUS_IN  (20 V)</text>
<text x="50" y="334" fill="#374151" font-size="10">load 0.000 A / lim 3.00 A</text>
<rect x="40" y="372" width="250" height="46" rx="8" fill="#fef3c7" stroke="#92400e" stroke-width="1.5"/>
<text x="50" y="389" font-weight="bold" font-size="12">+VIN  (20 V)</text>
<text x="50" y="406" fill="#374151" font-size="10">load 0.000 A / lim 0.00 A</text>
<rect x="40" y="458" width="250" height="46" rx="8" fill="#eff6ff" stroke="#1e3a8a" stroke-width="1.5"/>
<text x="50" y="475" font-weight="bold" font-size="12">+5V_REG  (5 V)</text>
<text x="50" y="492" fill="#374151" font-size="10">load 2.664 A / lim 6.00 A  ·  EN_5V0</text>
<rect x="40" y="530" width="250" height="46" rx="8" fill="#eff6ff" stroke="#1e3a8a" stroke-width="1.5"/>
<text x="50" y="547" font-weight="bold" font-size="12">+3V3_REG  (3.3 V)</text>
<text x="50" y="564" fill="#374151" font-size="10">load 2.245 A / lim 6.00 A  ·  EN_3V3</text>
<rect x="40" y="602" width="250" height="46" rx="8" fill="#eff6ff" stroke="#1e3a8a" stroke-width="1.5"/>
<text x="50" y="619" font-weight="bold" font-size="12">+1V8_REG  (1.8 V)</text>
<text x="50" y="636" fill="#374151" font-size="10">load 0.006 A / lim 0.60 A  ·  EN_1V8</text>
<rect x="40" y="674" width="250" height="46" rx="8" fill="#eff6ff" stroke="#1e3a8a" stroke-width="1.5"/>
<text x="50" y="691" font-weight="bold" font-size="12">+3V3_DBG  (3.3 V)</text>
<text x="50" y="708" fill="#374151" font-size="10">load 0.045 A / lim 0.60 A</text>
<rect x="410" y="458" width="250" height="46" rx="8" fill="#ecfdf5" stroke="#065f46" stroke-width="1.5"/>
<text x="420" y="475" font-weight="bold" font-size="12">+3V3_AUX  (3.3 V)</text>
<text x="420" y="492" fill="#374151" font-size="10">load 0.211 A / lim 0.52 A</text>
<rect x="410" y="518" width="250" height="46" rx="8" fill="#ecfdf5" stroke="#065f46" stroke-width="1.5"/>
<text x="420" y="535" font-weight="bold" font-size="12">+3V3_CAM  (3.3 V)</text>
<text x="420" y="552" fill="#374151" font-size="10">load 0.304 A / lim 0.52 A  ·  EN_CAM</text>
<rect x="410" y="578" width="250" height="46" rx="8" fill="#ecfdf5" stroke="#065f46" stroke-width="1.5"/>
<text x="420" y="595" font-weight="bold" font-size="12">+3V3_HDMI_RX  (3.3 V)</text>
<text x="420" y="612" fill="#374151" font-size="10">load 0.005 A / lim 0.52 A  ·  EN_HDMI_RX</text>
<rect x="410" y="638" width="250" height="46" rx="8" fill="#ecfdf5" stroke="#065f46" stroke-width="1.5"/>
<text x="420" y="655" font-weight="bold" font-size="12">+3V3_HDMI_TX  (3.3 V)</text>
<text x="420" y="672" fill="#374151" font-size="10">load 0.006 A / lim 0.52 A  ·  EN_HDMI_TX</text>
<rect x="410" y="698" width="250" height="46" rx="8" fill="#ecfdf5" stroke="#065f46" stroke-width="1.5"/>
<text x="420" y="715" font-weight="bold" font-size="12">+3V3_LCD  (3.3 V)</text>
<text x="420" y="732" fill="#374151" font-size="10">load 0.104 A / lim 1.00 A  ·  EN_LCD</text>
<rect x="410" y="758" width="250" height="46" rx="8" fill="#ecfdf5" stroke="#065f46" stroke-width="1.5"/>
<text x="420" y="775" font-weight="bold" font-size="12">+3V3_PMOD  (3.3 V)</text>
<text x="420" y="792" fill="#374151" font-size="10">load 0.204 A / lim 0.52 A  ·  EN_PMOD</text>
<rect x="410" y="818" width="250" height="46" rx="8" fill="#ecfdf5" stroke="#065f46" stroke-width="1.5"/>
<text x="420" y="835" font-weight="bold" font-size="12">+3V3_PMODX  (3.3 V)</text>
<text x="420" y="852" fill="#374151" font-size="10">load 0.104 A / lim 0.52 A</text>
<rect x="410" y="878" width="250" height="46" rx="8" fill="#ecfdf5" stroke="#065f46" stroke-width="1.5"/>
<text x="420" y="895" font-weight="bold" font-size="12">+3V3_SD  (3.3 V)</text>
<text x="420" y="912" fill="#374151" font-size="10">load 0.254 A / lim 1.00 A  ·  EN_SD</text>
<rect x="410" y="938" width="250" height="46" rx="8" fill="#ecfdf5" stroke="#065f46" stroke-width="1.5"/>
<text x="420" y="955" font-weight="bold" font-size="12">+3V3_USER_LED  (3.3 V)</text>
<text x="420" y="972" fill="#374151" font-size="10">load 0.016 A / lim 0.52 A  ·  EN_USER_LED</text>
<rect x="410" y="998" width="250" height="46" rx="8" fill="#ecfdf5" stroke="#065f46" stroke-width="1.5"/>
<text x="420" y="1015" font-weight="bold" font-size="12">+5V_HDMI_TX  (5 V)</text>
<text x="420" y="1032" fill="#374151" font-size="10">load 0.058 A / lim 0.52 A  ·  EN_HDMI_TX_5V</text>
<rect x="410" y="1058" width="250" height="46" rx="8" fill="#ecfdf5" stroke="#065f46" stroke-width="1.5"/>
<text x="420" y="1075" font-weight="bold" font-size="12">+5V_LCD  (5 V)</text>
<text x="420" y="1092" fill="#374151" font-size="10">load 0.453 A / lim 1.00 A  ·  EN_LCD_5V</text>
<rect x="410" y="1118" width="250" height="46" rx="8" fill="#ecfdf5" stroke="#065f46" stroke-width="1.5"/>
<text x="420" y="1135" font-weight="bold" font-size="12">+5V_USB  (5 V)</text>
<text x="420" y="1152" fill="#374151" font-size="10">load 0.503 A / lim 1.00 A  ·  EN_USB</text>
</svg>
