#VRML V2.0 utf8
# generated by schgen part add
Shape{appearance Appearance{material Material{diffuseColor 0.14901960784313725 0.14901960784313725 0.14901960784313725 transparency 0.0}}geometry IndexedFaceSet{ccw TRUE solid FALSE coord Coordinate{point [2.6969 -2.5669 1.9409, 2.6575 -2.5276 1.9016, 2.6969 -2.5669 1.5472, 2.6575 -2.5276 1.5866, 2.3425 -2.5276 1.9016, 2.3031 -2.5669 1.9409, 2.3031 -2.5669 1.5472, 2.3425 -2.5276 1.5866, 2.6575 -1.7795 1.5866, 2.3425 -1.7795 1.5866, 2.6575 -1.7795 1.9016, 2.3425 -1.7795 1.9016, 1.6969 -2.5669 1.9409, 1.6575 -2.5276 1.9016, 1.6969 -2.5669 1.5472, 1.6575 -2.5276 1.5866, 1.3425 -2.5276 1.9016, 1.3031 -2.5669 1.9409, 1.3031 -2.5669 1.5472, 1.3425 -2.5276 1.5866, 1.6575 -1.7795 1.5866, 1.3425 -1.7795 1.5866, 1.6575 -1.7795 1.9016, 1.3425 -1.7795 1.9016, 0.6969 -2.5669 1.9409, 0.6575 -2.5276 1.9016, 0.6969 -2.5669 1.5472, 0.6575 -2.5276 1.5866, 0.3425 -2.5276 1.9016, 0.3031 -2.5669 1.9409, 0.3031 -2.5669 1.5472, 0.3425 -2.5276 1.5866, 0.6575 -1.7795 1.5866, 0.3425 -1.7795 1.5866, 0.6575 -1.7795 1.9016, 0.3425 -1.7795 1.9016, -0.3031 -2.5669 1.9409, -0.3425 -2.5276 1.9016, -0.3031 -2.5669 1.5472, -0.3425 -2.5276 1.5866, -0.6575 -2.5276 1.9016, -0.6969 -2.5669 1.9409, -0.6969 -2.5669 1.5472, -0.6575 -2.5276 1.5866, -0.3425 -1.7795 1.5866, -0.6575 -1.7795 1.5866, -0.3425 -1.7795 1.9016, -0.6575 -1.7795 1.9016, -3.0984 -2.5669 1.4035, -3.0984 -2.5669 1.2598, -2.8976 -2.5669 1.2598, -2.8976 -2.5669 1.4035, -3.0984 -2.5669 2.2441, -2.8976 -2.5669 2.2441, -3.0984 -2.5669 3.2283, -2.8976 -2.5669 3.2283, -2.3031 -2.5669 2.9409, -2.0 -2.5669 3.2283, -2.6969 -2.5669 2.9409, -2.6969 -2.5669 2.5472, -2.3031 -2.5669 2.5472, -2.0 -2.5669 2.2441, -2.3031 -2.5669 1.9409, -2.6969 -2.5669 1.9409, -2.6969 -2.5669 1.5472, -2.3031 -2.5669 1.5472, -2.0 -2.5669 1.4035, -1.6969 -2.5669 2.9409, -1.6969 -2.5669 2.5472, -1.3031 -2.5669 2.5472, -1.0 -2.5669 2.2441, -1.3031 -2.5669 2.9409, -1.0 -2.5669 3.2283, -1.3031 -2.5669 1.9409, -1.6969 -2.5669 1.9409, -1.6969 -2.5669 1.5472, -1.3031 -2.5669 1.5472, -1.0 -2.5669 1.4035, -0.6969 -2.5669 2.9409, -0.6969 -2.5669 2.5472, -0.3031 -2.5669 2.5472, -0.0 -2.5669 2.2441, -0.3031 -2.5669 2.9409, -0.0 -2.5669 3.2283, -0.0 -2.5669 1.4035, 0.3031 -2.5669 2.9409, 0.3031 -2.5669 2.5472, 0.6969 -2.5669 2.5472, 1.0 -2.5669 2.2441, 0.6969 -2.5669 2.9409, 1.0 -2.5669 3.2283, 1.0 -2.5669 1.4035, 1.3031 -2.5669 2.9409, 1.3031 -2.5669 2.5472, 1.6969 -2.5669 2.5472, 2.0 -2.5669 2.2441, 1.6969 -2.5669 2.9409, 2.0 -2.5669 3.2283, 2.0 -2.5669 1.4035, 2.3031 -2.5669 2.9409, 2.3031 -2.5669 2.5472, 2.6969 -2.5669 2.5472, 3.0984 -2.5669 2.2441, 2.6969 -2.5669 2.9409, 3.0984 -2.5669 3.2283, 3.0984 -2.5669 1.4035, -2.0 -2.5669 1.2598, -1.0 -2.5669 1.2598, -0.0 -2.5669 1.2598, 1.0 -2.5669 1.2598, 2.0 -2.5669 1.2598, 3.0984 -2.5669 1.2598, 2.6575 -2.5276 2.9016, 2.6575 -2.5276 2.5866, 2.3425 -2.5276 2.9016, 2.3425 -2.5276 2.5866, 2.3425 -1.7795 2.5866, 2.3425 -1.7795 2.9016, 2.6575 -1.7795 2.9016, 2.6575 -1.7795 2.5866, 1.6575 -2.5276 2.9016, 1.6575 -2.5276 2.5866, 1.3425 -2.5276 2.9016, 1.3425 -2.5276 2.5866, 1.3425 -1.7795 2.5866, 1.3425 -1.7795 2.9016, 1.6575 -1.7795 2.9016, 1.6575 -1.7795 2.5866, 0.6575 -2.5276 2.9016, 0.6575 -2.5276 2.5866, 0.3425 -2.5276 2.9016, 0.3425 -2.5276 2.5866, 0.3425 -1.7795 2.5866, 0.3425 -1.7795 2.9016, 0.6575 -1.7795 2.9016, 0.6575 -1.7795 2.5866, -0.3425 -2.5276 2.9016, -0.3425 -2.5276 2.5866, -0.6575 -2.5276 2.9016, -0.6575 -2.5276 2.5866, -0.6575 -1.7795 2.5866, -0.6575 -1.7795 2.9016, -0.3425 -1.7795 2.9016, -0.3425 -1.7795 2.5866, -0.3533 -0.8962 1.2598, -0.3331 -0.8575 1.2598, -0.2954 -0.8885 1.2598, -0.3331 -0.733 1.2598, -0.3177 -0.7448 1.2598, -0.3177 -0.8457 1.2598, -0.2025 -0.7228 1.2598, -0.172 -0.7503 1.2598, -0.2461 -0.712 1.2598, -0.1593 -0.7875 1.2598, -0.159 -0.7955 1.2598, -0.1692 -0.836 1.2598, -0.1963 -0.8645 1.2598, -0.235 -0.8779 1.2598, -0.2863 -0.8702 1.2598, -0.2858 -0.7201 1.2598, -0.2474 -0.8786 1.2598, -0.2672 -0.7141 1.2598, -0.2543 -0.7123 1.2598, -0.1186 -0.8735 1.2598, -0.1413 -0.7941 1.2598, -0.3533 0.7795 1.2598, -0.154 -0.7438 1.2598, -0.1877 -0.7083 1.2598, -0.2385 -0.6921 1.2598, -0.2472 -0.6918 1.2598, -0.2953 -0.7019 1.2598, -0.3154 -0.7144 1.2598, -0.3269 -0.7253 1.2598, -0.0252 -0.8937 1.2598, -0.2334 -0.8962 1.2598, -0.1186 -0.8937 1.2598, -0.2029 -0.8907 1.2598, -0.1837 -0.8803 1.2598, -0.1725 -0.871 1.2598, -0.1663 -0.8643 1.2598, -0.1473 -0.8316 1.2598, -0.3533 -2.5669 1.2598, -0.2475 -0.8987 1.2598, -0.273 -0.8961 1.2598, -0.2723 -0.8962 1.2598, -0.2573 -0.8984 1.2598, -0.0429 -0.8735 1.2598, -0.0429 -0.6969 1.2598, -0.0252 -0.6969 1.2598, 3.0984 0.7795 1.2598, 3.0984 -0.8962 1.2598, -0.4846 -0.717 1.2598, -0.3912 -0.717 1.2598, -0.3912 -0.7776 1.2598, -0.4846 -0.7776 1.2598, -0.4846 -0.7978 1.2598, -0.5199 -0.8937 1.2598, -0.4846 -0.8937 1.2598, -0.3735 -0.8937 1.2598, -0.3735 -0.6969 1.2598, -0.4846 -0.6969 1.2598, -0.6221 -0.7039 1.2598, -0.6576 -0.7278 1.2598, -0.8 -0.6969 1.2598, -0.6777 -0.7668 1.2598, -0.6814 -0.7978 1.2598, -0.7066 -0.8937 1.2598, -0.6703 -0.8473 1.2598, -0.6418 -0.8799 1.2598, -0.5199 -0.6969 1.2598, -0.5596 -0.6969 1.2598, -0.5912 -0.6981 1.2598, -3.0984 0.7795 1.2598, -0.8025 -0.6969 1.2598, -3.0984 -0.8962 1.2598, -0.8934 -0.8937 1.2598, -0.8742 -0.8937 1.2598, -0.8451 -0.8306 1.2598, -0.7559 -0.8306 1.2598, -0.7259 -0.8937 1.2598, -0.6022 -0.8926 1.2598, -0.5809 -0.8937 1.2598, -0.3912 -0.7978 1.2598, -0.3912 -0.8735 1.2598, -0.4846 -0.8735 1.2598, -3.0984 0.7795 1.4961, 3.0984 0.7795 1.4961, 3.0984 0.4252 2.9921, 3.0984 0.7795 2.9921, 3.0984 0.7795 3.2283, 3.0984 0.4252 1.4961, -3.0984 0.7795 2.9921, -3.0984 0.7795 3.2283, -3.0984 0.4252 1.4961, -3.0984 0.4252 2.9921, -3.0984 0.4252 2.9075, -2.8622 0.4252 2.9921, -2.8622 0.4252 2.9075, -3.0984 0.4252 2.2441, -2.8622 0.4252 2.2441, -2.8622 0.4252 1.4961, -2.374 0.4252 1.6654, -2.0 0.4252 1.4961, -2.626 0.4252 1.6654, -2.626 0.4252 1.8228, -2.374 0.4252 1.8228, -2.0 0.4252 2.2441, -2.374 0.4252 2.6654, -2.626 0.4252 2.6654, -2.626 0.4252 2.8228, -2.374 0.4252 2.8228, -2.0 0.4252 2.9075, -1.374 0.4252 1.6654, -1.0 0.4252 1.4961, -1.626 0.4252 1.6654, -1.626 0.4252 1.8228, -1.374 0.4252 1.8228, -1.0 0.4252 2.2441, -1.374 0.4252 2.6654, -1.626 0.4252 2.6654, -1.626 0.4252 2.8228, -1.374 0.4252 2.8228, -1.0 0.4252 2.9075, -0.374 0.4252 1.6654, -0.0 0.4252 1.4961, -0.626 0.4252 1.6654, -0.626 0.4252 1.8228, -0.374 0.4252 1.8228, -0.0 0.4252 2.2441, -0.374 0.4252 2.6654, -0.626 0.4252 2.6654, -0.626 0.4252 2.8228, -0.374 0.4252 2.8228, -0.0 0.4252 2.9075, 0.626 0.4252 1.6654, 1.0 0.4252 1.4961, 0.374 0.4252 1.6654, 0.374 0.4252 1.8228, 0.626 0.4252 1.8228, 1.0 0.4252 2.2441, 0.626 0.4252 2.6654, 0.374 0.4252 2.6654, 0.374 0.4252 2.8228, 0.626 0.4252 2.8228, 1.0 0.4252 2.9075, 1.626 0.4252 1.6654, 2.0 0.4252 1.4961, 1.374 0.4252 1.6654, 1.374 0.4252 1.8228, 1.626 0.4252 1.8228, 2.0 0.4252 2.2441, 1.626 0.4252 2.6654, 1.374 0.4252 2.6654, 1.374 0.4252 2.8228, 1.626 0.4252 2.8228, 2.0 0.4252 2.9075, 2.626 0.4252 1.6654, 2.374 0.4252 1.6654, 2.374 0.4252 1.8228, 2.626 0.4252 1.8228, 3.0984 0.4252 2.2441, 2.626 0.4252 2.6654, 2.374 0.4252 2.6654, 2.374 0.4252 2.8228, 2.626 0.4252 2.8228, 3.0984 0.4252 2.9075, -2.0 0.4252 2.9921, -1.0 0.4252 2.9921, -0.0 0.4252 2.9921, 1.0 0.4252 2.9921, 2.0 0.4252 2.9921, -2.6575 -2.5276 1.5866, -2.6575 -1.7795 1.5866, -2.6575 -2.5276 1.9016, -2.6575 -1.7795 1.9016, -2.3425 -2.5276 1.9016, -2.3425 -1.7795 1.9016, -2.3425 -2.5276 1.5866, -2.3425 -1.7795 1.5866, -2.3425 -2.5276 2.9016, -2.3425 -1.7795 2.9016, -2.3425 -2.5276 2.5866, -2.3425 -1.7795 2.5866, -2.6575 -2.5276 2.5866, -2.6575 -1.7795 2.5866, -2.6575 -2.5276 2.9016, -2.6575 -1.7795 2.9016]} coordIndex [0,1,2,-1,2,1,3,-1,1,0,4,-1,4,0,5,-1,6,7,5,-1,5,7,4,-1,2,3,6,-1,6,3,7,-1,3,8,7,-1,7,8,9,-1,8,10,9,-1,9,10,11,-1,1,10,3,-1,3,10,8,-1,4,11,1,-1,1,11,10,-1,7,9,4,-1,4,9,11,-1,12,13,14,-1,14,13,15,-1,13,12,16,-1,16,12,17,-1,18,19,17,-1,17,19,16,-1,14,15,18,-1,18,15,19,-1,15,20,19,-1,19,20,21,-1,20,22,21,-1,21,22,23,-1,13,22,15,-1,15,22,20,-1,16,23,13,-1,13,23,22,-1,19,21,16,-1,16,21,23,-1,24,25,26,-1,26,25,27,-1,25,24,28,-1,28,24,29,-1,30,31,29,-1,29,31,28,-1,26,27,30,-1,30,27,31,-1,27,32,31,-1,31,32,33,-1,32,34,33,-1,33,34,35,-1,25,34,27,-1,27,34,32,-1,28,35,25,-1,25,35,34,-1,31,33,28,-1,28,33,35,-1,36,37,38,-1,38,37,39,-1,37,36,40,-1,40,36,41,-1,42,43,41,-1,41,43,40,-1,38,39,42,-1,42,39,43,-1,39,44,43,-1,43,44,45,-1,44,46,45,-1,45,46,47,-1,37,46,39,-1,39,46,44,-1,40,47,37,-1,37,47,46,-1,43,45,40,-1,40,45,47,-1,48,49,50,-1,48,51,52,-1,52,51,53,-1,52,53,54,-1,54,53,55,-1,56,57,58,-1,58,57,55,-1,58,55,59,-1,59,55,53,-1,59,53,60,-1,60,53,61,-1,60,61,56,-1,56,61,57,-1,62,61,63,-1,63,61,53,-1,63,53,64,-1,64,53,51,-1,64,51,65,-1,65,51,66,-1,65,66,62,-1,62,66,61,-1,67,57,68,-1,68,57,61,-1,68,61,69,-1,69,61,70,-1,69,70,71,-1,71,70,72,-1,71,72,67,-1,67,72,57,-1,73,70,74,-1,74,70,61,-1,74,61,75,-1,75,61,66,-1,75,66,76,-1,76,66,77,-1,76,77,73,-1,73,77,70,-1,78,72,79,-1,79,72,70,-1,79,70,80,-1,80,70,81,-1,80,81,82,-1,82,81,83,-1,82,83,78,-1,78,83,72,-1,36,81,41,-1,41,81,70,-1,41,70,42,-1,42,70,77,-1,42,77,38,-1,38,77,84,-1,38,84,36,-1,36,84,81,-1,85,83,86,-1,86,83,81,-1,86,81,87,-1,87,81,88,-1,87,88,89,-1,89,88,90,-1,89,90,85,-1,85,90,83,-1,24,88,29,-1,29,88,81,-1,29,81,30,-1,30,81,84,-1,30,84,26,-1,26,84,91,-1,26,91,24,-1,24,91,88,-1,92,90,93,-1,93,90,88,-1,93,88,94,-1,94,88,95,-1,94,95,96,-1,96,95,97,-1,96,97,92,-1,92,97,90,-1,12,95,17,-1,17,95,88,-1,17,88,18,-1,18,88,91,-1,18,91,14,-1,14,91,98,-1,14,98,12,-1,12,98,95,-1,99,97,100,-1,100,97,95,-1,100,95,101,-1,101,95,102,-1,101,102,103,-1,103,102,104,-1,103,104,99,-1,99,104,97,-1,0,102,5,-1,5,102,95,-1,5,95,6,-1,6,95,98,-1,6,98,2,-1,2,98,105,-1,2,105,0,-1,0,105,102,-1,48,50,51,-1,51,50,106,-1,51,106,66,-1,66,106,107,-1,66,107,77,-1,77,107,108,-1,77,108,84,-1,84,108,109,-1,84,109,91,-1,91,109,110,-1,91,110,98,-1,98,110,111,-1,98,111,105,-1,103,112,101,-1,101,112,113,-1,112,103,114,-1,114,103,99,-1,100,115,99,-1,99,115,114,-1,101,113,100,-1,100,113,115,-1,115,116,114,-1,114,116,117,-1,117,116,118,-1,118,116,119,-1,114,117,112,-1,112,117,118,-1,112,118,113,-1,113,118,119,-1,113,119,115,-1,115,119,116,-1,96,120,94,-1,94,120,121,-1,120,96,122,-1,122,96,92,-1,93,123,92,-1,92,123,122,-1,94,121,93,-1,93,121,123,-1,123,124,122,-1,122,124,125,-1,125,124,126,-1,126,124,127,-1,122,125,120,-1,120,125,126,-1,120,126,121,-1,121,126,127,-1,121,127,123,-1,123,127,124,-1,89,128,87,-1,87,128,129,-1,128,89,130,-1,130,89,85,-1,86,131,85,-1,85,131,130,-1,87,129,86,-1,86,129,131,-1,131,132,130,-1,130,132,133,-1,133,132,134,-1,134,132,135,-1,130,133,128,-1,128,133,134,-1,128,134,129,-1,129,134,135,-1,129,135,131,-1,131,135,132,-1,82,136,80,-1,80,136,137,-1,136,82,138,-1,138,82,78,-1,79,139,78,-1,78,139,138,-1,80,137,79,-1,79,137,139,-1,139,140,138,-1,138,140,141,-1,141,140,142,-1,142,140,143,-1,138,141,136,-1,136,141,142,-1,136,142,137,-1,137,142,143,-1,137,143,139,-1,139,143,140,-1,144,145,146,-1,147,148,149,-1,150,151,152,-1,152,151,153,-1,152,153,154,-1,154,155,152,-1,152,155,156,-1,152,156,157,-1,149,148,158,-1,158,148,159,-1,158,159,160,-1,160,159,161,-1,160,161,157,-1,157,161,162,-1,157,162,152,-1,163,164,165,-1,165,164,166,-1,165,166,167,-1,167,168,165,-1,165,168,169,-1,165,169,170,-1,170,171,165,-1,165,171,172,-1,165,172,147,-1,173,174,175,-1,175,174,176,-1,175,176,177,-1,177,178,175,-1,175,178,179,-1,175,179,163,-1,163,179,180,-1,163,180,164,-1,181,182,174,-1,146,183,144,-1,144,183,184,-1,144,184,181,-1,181,184,185,-1,181,185,182,-1,186,163,187,-1,187,163,165,-1,187,165,188,-1,188,165,189,-1,188,189,173,-1,173,189,190,-1,173,190,174,-1,174,190,111,-1,174,111,181,-1,191,192,193,-1,194,195,196,-1,197,198,144,-1,144,198,199,-1,149,145,147,-1,147,145,144,-1,147,144,165,-1,165,144,199,-1,165,199,200,-1,201,202,203,-1,202,204,203,-1,203,204,205,-1,203,205,206,-1,206,205,207,-1,206,207,208,-1,193,194,191,-1,191,194,196,-1,191,196,200,-1,200,196,209,-1,200,209,165,-1,165,209,210,-1,165,210,211,-1,211,201,165,-1,165,201,203,-1,165,203,212,-1,212,203,213,-1,212,213,214,-1,214,213,215,-1,214,215,216,-1,217,218,216,-1,216,218,219,-1,216,219,214,-1,214,219,206,-1,208,220,206,-1,206,220,221,-1,206,221,214,-1,214,221,196,-1,222,223,195,-1,195,223,224,-1,195,224,196,-1,196,224,197,-1,196,197,214,-1,214,197,144,-1,214,144,49,-1,49,144,181,-1,212,225,165,-1,165,225,226,-1,165,226,189,-1,227,228,229,-1,104,111,190,-1,229,104,227,-1,227,104,190,-1,227,190,230,-1,230,190,189,-1,230,189,226,-1,231,232,228,-1,228,232,229,-1,233,225,212,-1,214,49,54,-1,212,214,233,-1,233,214,54,-1,233,54,234,-1,234,54,232,-1,234,232,231,-1,232,54,229,-1,229,54,104,-1,230,226,233,-1,233,226,225,-1,228,227,231,-1,231,227,234,-1,235,234,236,-1,235,237,238,-1,238,237,239,-1,238,239,233,-1,233,239,240,-1,241,242,243,-1,243,242,240,-1,243,240,244,-1,244,240,239,-1,244,239,245,-1,245,239,246,-1,245,246,241,-1,241,246,242,-1,247,246,248,-1,248,246,239,-1,248,239,249,-1,249,239,237,-1,249,237,250,-1,250,237,251,-1,250,251,247,-1,247,251,246,-1,252,253,254,-1,254,253,242,-1,254,242,255,-1,255,242,246,-1,255,246,256,-1,256,246,257,-1,256,257,252,-1,252,257,253,-1,258,257,259,-1,259,257,246,-1,259,246,260,-1,260,246,251,-1,260,251,261,-1,261,251,262,-1,261,262,258,-1,258,262,257,-1,263,264,265,-1,265,264,253,-1,265,253,266,-1,266,253,257,-1,266,257,267,-1,267,257,268,-1,267,268,263,-1,263,268,264,-1,269,268,270,-1,270,268,257,-1,270,257,271,-1,271,257,262,-1,271,262,272,-1,272,262,273,-1,272,273,269,-1,269,273,268,-1,274,275,276,-1,276,275,264,-1,276,264,277,-1,277,264,268,-1,277,268,278,-1,278,268,279,-1,278,279,274,-1,274,279,275,-1,280,279,281,-1,281,279,268,-1,281,268,282,-1,282,268,273,-1,282,273,283,-1,283,273,284,-1,283,284,280,-1,280,284,279,-1,285,286,287,-1,287,286,275,-1,287,275,288,-1,288,275,279,-1,288,279,289,-1,289,279,290,-1,289,290,285,-1,285,290,286,-1,291,290,292,-1,292,290,279,-1,292,279,293,-1,293,279,284,-1,293,284,294,-1,294,284,295,-1,294,295,291,-1,291,295,290,-1,296,230,297,-1,297,230,286,-1,297,286,298,-1,298,286,290,-1,298,290,299,-1,299,290,300,-1,299,300,296,-1,296,300,230,-1,301,300,302,-1,302,300,290,-1,302,290,303,-1,303,290,295,-1,303,295,304,-1,304,295,305,-1,304,305,301,-1,301,305,300,-1,235,236,237,-1,237,236,306,-1,237,306,251,-1,251,306,307,-1,251,307,262,-1,262,307,308,-1,262,308,273,-1,273,308,309,-1,273,309,284,-1,284,309,310,-1,284,310,295,-1,295,310,227,-1,295,227,305,-1,311,312,313,-1,313,312,314,-1,313,314,315,-1,315,314,316,-1,315,316,317,-1,317,316,318,-1,317,318,311,-1,311,318,312,-1,318,316,312,-1,312,316,314,-1,319,320,321,-1,321,320,322,-1,321,322,323,-1,323,322,324,-1,323,324,325,-1,325,324,326,-1,325,326,319,-1,319,326,320,-1,326,324,320,-1,320,324,322,-1,64,311,63,-1,63,311,313,-1,65,317,64,-1,64,317,311,-1,315,62,313,-1,313,62,63,-1,62,315,65,-1,65,315,317,-1,59,323,58,-1,58,323,325,-1,60,321,59,-1,59,321,323,-1,319,56,325,-1,325,56,58,-1,56,319,60,-1,60,319,321,-1]}}
Shape{appearance Appearance{material Material{diffuseColor 0.7529411764705882 0.7529411764705882 0.7529411764705882 transparency 0.0}}geometry IndexedFaceSet{ccw TRUE solid FALSE coord Coordinate{point [-2.626 1.4882 1.8228, -2.626 0.4252 1.8228, -2.374 1.4882 1.8228, -2.374 0.4252 1.8228, -2.374 1.5183 1.8168, -2.626 1.5183 1.8168, -2.374 1.5439 1.7998, -2.626 1.5439 1.7998, -2.374 1.5609 1.7742, -2.626 1.5609 1.7742, -2.374 1.5669 1.7441, -2.626 1.5669 1.7441, -2.626 1.5669 0.0591, -2.374 1.5669 0.0591, -2.626 1.5079 0.0, -2.374 1.5079 0.0, -2.626 1.4685 0.0, -2.374 1.4685 0.0, -2.626 1.4094 0.0591, -2.374 1.4094 0.0591, -2.626 1.4094 1.5866, -2.374 1.4094 1.5866, -2.626 1.4035 1.6167, -2.374 1.4035 1.6167, -2.626 1.3864 1.6423, -2.374 1.3864 1.6423, -2.626 1.3608 1.6594, -2.374 1.3608 1.6594, -2.626 1.3307 1.6654, -2.374 1.3307 1.6654, -2.626 0.4252 1.6654, -2.374 0.4252 1.6654, -2.626 2.4882 2.8228, -2.626 0.4252 2.8228, -2.374 2.4882 2.8228, -2.374 0.4252 2.8228, -2.374 2.5183 2.8168, -2.626 2.5183 2.8168, -2.374 2.5439 2.7998, -2.626 2.5439 2.7998, -2.374 2.5609 2.7742, -2.626 2.5609 2.7742, -2.374 2.5669 2.7441, -2.626 2.5669 2.7441, -2.626 2.5669 0.0591, -2.374 2.5669 0.0591, -2.626 2.5079 0.0, -2.374 2.5079 0.0, -2.626 2.4685 0.0, -2.374 2.4685 0.0, -2.626 2.4094 0.0591, -2.374 2.4094 0.0591, -2.626 2.4094 2.5866, -2.374 2.4094 2.5866, -2.626 2.4035 2.6167, -2.374 2.4035 2.6167, -2.626 2.3864 2.6423, -2.374 2.3864 2.6423, -2.626 2.3608 2.6594, -2.374 2.3608 2.6594, -2.626 2.3307 2.6654, -2.374 2.3307 2.6654, -2.626 0.4252 2.6654, -2.374 0.4252 2.6654, -0.8 -0.6969 1.2992, -0.8025 -0.6969 1.2992, -0.8 -0.6969 1.2598, -0.8025 -0.6969 1.2598, -0.8934 -0.8937 1.2992, -0.8934 -0.8937 1.2598, -0.8742 -0.8937 1.2992, -0.8742 -0.8937 1.2598, -0.8451 -0.8306 1.2992, -0.8451 -0.8306 1.2598, -0.7559 -0.8306 1.2992, -0.7559 -0.8306 1.2598, -0.7259 -0.8937 1.2992, -0.7259 -0.8937 1.2598, -0.7066 -0.8937 1.2992, -0.7066 -0.8937 1.2598, -0.8358 -0.8104 1.2992, -0.7654 -0.8104 1.2992, -0.8011 -0.7352 1.2992, -0.8358 -0.8104 1.2598, -0.8011 -0.7352 1.2598, -0.7654 -0.8104 1.2598, -0.5809 -0.8937 1.2992, -0.5199 -0.8937 1.2992, -0.5809 -0.8937 1.2598, -0.5199 -0.8937 1.2598, -0.5199 -0.6969 1.2992, -0.5199 -0.6969 1.2598, -0.5596 -0.6969 1.2992, -0.5596 -0.6969 1.2598, -0.6221 -0.7039 1.2992, -0.6221 -0.7039 1.2598, -0.5912 -0.6981 1.2598, -0.5912 -0.6981 1.2992, -0.6814 -0.7978 1.2992, -0.6814 -0.7978 1.2598, -0.6777 -0.7668 1.2598, -0.6777 -0.7668 1.2992, -0.6576 -0.7278 1.2598, -0.6576 -0.7278 1.2992, -0.6022 -0.8926 1.2598, -0.6022 -0.8926 1.2992, -0.6418 -0.8799 1.2598, -0.6418 -0.8799 1.2992, -0.6703 -0.8473 1.2598, -0.6703 -0.8473 1.2992, -0.6606 -0.8222 1.2992, -0.6445 -0.851 1.2992, -0.6164 -0.8685 1.2992, -0.5885 -0.8727 1.2992, -0.5601 -0.8735 1.2992, -0.5376 -0.8735 1.2992, -0.5376 -0.717 1.2992, -0.5514 -0.717 1.2992, -0.5818 -0.718 1.2992, -0.6119 -0.7226 1.2992, -0.6337 -0.7331 1.2992, -0.6551 -0.7584 1.2992, -0.6637 -0.7977 1.2992, -0.5376 -0.717 1.2598, -0.5376 -0.8735 1.2598, -0.5514 -0.717 1.2598, -0.5818 -0.718 1.2598, -0.6119 -0.7226 1.2598, -0.6337 -0.7331 1.2598, -0.6551 -0.7584 1.2598, -0.6637 -0.7977 1.2598, -0.6606 -0.8222 1.2598, -0.6445 -0.851 1.2598, -0.6164 -0.8685 1.2598, -0.5885 -0.8727 1.2598, -0.5601 -0.8735 1.2598, -0.3735 -0.8937 1.2992, -0.3735 -0.6969 1.2992, -0.3735 -0.8937 1.2598, -0.3735 -0.6969 1.2598, -0.4846 -0.6969 1.2992, -0.4846 -0.6969 1.2598, -0.4846 -0.717 1.2992, -0.4846 -0.717 1.2598, -0.3912 -0.717 1.2992, -0.3912 -0.717 1.2598, -0.3912 -0.7776 1.2992, -0.3912 -0.7776 1.2598, -0.4846 -0.7776 1.2992, -0.4846 -0.7776 1.2598, -0.4846 -0.7978 1.2992, -0.4846 -0.7978 1.2598, -0.3912 -0.7978 1.2992, -0.3912 -0.7978 1.2598, -0.3912 -0.8735 1.2992, -0.3912 -0.8735 1.2598, -0.4846 -0.8735 1.2992, -0.4846 -0.8735 1.2598, -0.4846 -0.8937 1.2992, -0.4846 -0.8937 1.2598, -0.3331 -0.733 1.2992, -0.3331 -0.733 1.2598, -0.3269 -0.7253 1.2598, -0.3269 -0.7253 1.2992, -0.3154 -0.7144 1.2598, -0.3154 -0.7144 1.2992, -0.2953 -0.7019 1.2598, -0.2953 -0.7019 1.2992, -0.2472 -0.6918 1.2598, -0.2472 -0.6918 1.2992, -0.3177 -0.7448 1.2992, -0.3177 -0.7448 1.2598, -0.2461 -0.712 1.2992, -0.2461 -0.712 1.2598, -0.2543 -0.7123 1.2598, -0.2543 -0.7123 1.2992, -0.2672 -0.7141 1.2598, -0.2672 -0.7141 1.2992, -0.2858 -0.7201 1.2598, -0.2858 -0.7201 1.2992, -0.159 -0.7955 1.2992, -0.159 -0.7955 1.2598, -0.1593 -0.7875 1.2598, -0.1593 -0.7875 1.2992, -0.172 -0.7503 1.2598, -0.172 -0.7503 1.2992, -0.2025 -0.7228 1.2598, -0.2025 -0.7228 1.2992, -0.2474 -0.8786 1.2992, -0.2474 -0.8786 1.2598, -0.235 -0.8779 1.2598, -0.235 -0.8779 1.2992, -0.1963 -0.8645 1.2598, -0.1963 -0.8645 1.2992, -0.1692 -0.836 1.2598, -0.1692 -0.836 1.2992, -0.3177 -0.8457 1.2992, -0.3177 -0.8457 1.2598, -0.2863 -0.8702 1.2598, -0.2863 -0.8702 1.2992, -0.3331 -0.8575 1.2992, -0.3331 -0.8575 1.2598, -0.2475 -0.8987 1.2992, -0.2475 -0.8987 1.2598, -0.2573 -0.8984 1.2598, -0.2573 -0.8984 1.2992, -0.2723 -0.8962 1.2598, -0.273 -0.8961 1.2992, -0.273 -0.8961 1.2598, -0.2954 -0.8885 1.2598, -0.2954 -0.8885 1.2992, -0.2334 -0.8962 1.2598, -0.2029 -0.8907 1.2992, -0.2029 -0.8907 1.2598, -0.1837 -0.8803 1.2992, -0.1837 -0.8803 1.2598, -0.1725 -0.871 1.2992, -0.1725 -0.871 1.2598, -0.1663 -0.8643 1.2992, -0.1663 -0.8643 1.2598, -0.1413 -0.7941 1.2992, -0.1413 -0.7941 1.2598, -0.1473 -0.8316 1.2598, -0.1473 -0.8316 1.2992, -0.2385 -0.6921 1.2598, -0.2385 -0.6921 1.2992, -0.1877 -0.7083 1.2598, -0.1877 -0.7083 1.2992, -0.154 -0.7438 1.2598, -0.154 -0.7438 1.2992, -0.0252 -0.8937 1.2992, -0.0252 -0.6969 1.2992, -0.0252 -0.8937 1.2598, -0.0252 -0.6969 1.2598, -0.0429 -0.6969 1.2992, -0.0429 -0.6969 1.2598, -0.0429 -0.8735 1.2992, -0.0429 -0.8735 1.2598, -0.1186 -0.8735 1.2992, -0.1186 -0.8735 1.2598, -0.1186 -0.8937 1.2992, -0.1186 -0.8937 1.2598]} coordIndex [0,1,2,-1,2,1,3,-1,0,2,4,-1,0,4,5,-1,5,4,6,-1,5,6,7,-1,7,6,8,-1,7,8,9,-1,9,8,10,-1,9,10,11,-1,12,11,13,-1,13,11,10,-1,14,12,15,-1,15,12,13,-1,16,14,17,-1,17,14,15,-1,18,16,19,-1,19,16,17,-1,20,18,21,-1,21,18,19,-1,20,21,22,-1,22,21,23,-1,22,23,24,-1,24,23,25,-1,24,25,26,-1,26,25,27,-1,26,27,28,-1,28,27,29,-1,30,28,31,-1,31,28,29,-1,24,9,22,-1,22,9,11,-1,22,11,20,-1,16,18,14,-1,14,18,20,-1,14,20,12,-1,12,20,11,-1,30,1,28,-1,28,1,0,-1,28,0,26,-1,26,0,5,-1,26,5,24,-1,24,5,7,-1,24,7,9,-1,2,3,31,-1,31,29,2,-1,2,29,27,-1,2,27,4,-1,4,27,25,-1,17,15,19,-1,19,15,13,-1,19,13,21,-1,21,13,10,-1,21,10,23,-1,23,10,8,-1,23,8,25,-1,25,8,6,-1,25,6,4,-1,32,33,34,-1,34,33,35,-1,32,34,36,-1,32,36,37,-1,37,36,38,-1,37,38,39,-1,39,38,40,-1,39,40,41,-1,41,40,42,-1,41,42,43,-1,44,43,45,-1,45,43,42,-1,46,44,47,-1,47,44,45,-1,48,46,49,-1,49,46,47,-1,50,48,51,-1,51,48,49,-1,52,50,53,-1,53,50,51,-1,52,53,54,-1,54,53,55,-1,54,55,56,-1,56,55,57,-1,56,57,58,-1,58,57,59,-1,58,59,60,-1,60,59,61,-1,62,60,63,-1,63,60,61,-1,48,50,46,-1,46,50,52,-1,62,33,60,-1,60,33,32,-1,60,32,58,-1,58,32,37,-1,58,37,56,-1,37,39,56,-1,56,39,41,-1,56,41,54,-1,54,41,43,-1,54,43,52,-1,52,43,44,-1,52,44,46,-1,34,35,63,-1,49,47,51,-1,51,47,45,-1,51,45,53,-1,53,45,42,-1,53,42,55,-1,55,42,40,-1,55,40,57,-1,63,61,34,-1,34,61,59,-1,34,59,36,-1,36,59,57,-1,36,57,38,-1,38,57,40,-1,64,65,66,-1,66,65,67,-1,65,68,67,-1,67,68,69,-1,68,70,69,-1,69,70,71,-1,70,72,71,-1,71,72,73,-1,72,74,73,-1,73,74,75,-1,74,76,75,-1,75,76,77,-1,76,78,77,-1,77,78,79,-1,78,64,79,-1,79,64,66,-1,80,68,65,-1,64,81,65,-1,65,81,82,-1,65,82,80,-1,78,76,74,-1,70,68,72,-1,72,68,80,-1,72,80,74,-1,74,80,81,-1,74,81,78,-1,78,81,64,-1,80,82,83,-1,83,82,84,-1,81,80,85,-1,85,80,83,-1,82,81,84,-1,84,81,85,-1,86,87,88,-1,88,87,89,-1,87,90,89,-1,89,90,91,-1,90,92,91,-1,91,92,93,-1,94,95,96,-1,94,96,97,-1,97,96,93,-1,97,93,92,-1,98,99,100,-1,98,100,101,-1,101,100,102,-1,101,102,103,-1,103,102,95,-1,103,95,94,-1,86,88,104,-1,86,104,105,-1,105,104,106,-1,105,106,107,-1,107,106,108,-1,107,108,109,-1,109,108,99,-1,109,99,98,-1,110,111,107,-1,107,111,112,-1,107,112,105,-1,105,112,113,-1,105,113,86,-1,86,113,114,-1,86,114,87,-1,87,114,115,-1,87,115,90,-1,90,115,116,-1,90,116,92,-1,92,116,117,-1,92,117,97,-1,97,117,118,-1,97,118,94,-1,94,118,119,-1,94,119,103,-1,103,119,120,-1,103,120,101,-1,101,120,121,-1,101,121,98,-1,98,121,122,-1,98,122,109,-1,109,122,110,-1,109,110,107,-1,116,115,123,-1,123,115,124,-1,117,116,125,-1,125,116,123,-1,117,125,126,-1,117,126,118,-1,118,126,127,-1,118,127,119,-1,119,127,128,-1,119,128,120,-1,120,128,129,-1,120,129,121,-1,121,129,130,-1,121,130,122,-1,122,130,131,-1,122,131,110,-1,110,131,132,-1,110,132,111,-1,111,132,133,-1,111,133,112,-1,112,133,134,-1,112,134,113,-1,113,134,135,-1,113,135,114,-1,115,114,124,-1,124,114,135,-1,136,137,138,-1,138,137,139,-1,137,140,139,-1,139,140,141,-1,140,142,141,-1,141,142,143,-1,142,144,143,-1,143,144,145,-1,144,146,145,-1,145,146,147,-1,146,148,147,-1,147,148,149,-1,148,150,149,-1,149,150,151,-1,150,152,151,-1,151,152,153,-1,152,154,153,-1,153,154,155,-1,154,156,155,-1,155,156,157,-1,156,158,157,-1,157,158,159,-1,158,136,159,-1,159,136,138,-1,136,158,156,-1,156,154,136,-1,136,154,152,-1,136,152,137,-1,142,140,144,-1,144,140,137,-1,144,137,146,-1,146,137,152,-1,146,152,148,-1,148,152,150,-1,160,161,162,-1,160,162,163,-1,163,162,164,-1,163,164,165,-1,165,164,166,-1,165,166,167,-1,167,166,168,-1,167,168,169,-1,160,170,161,-1,161,170,171,-1,172,173,174,-1,172,174,175,-1,175,174,176,-1,175,176,177,-1,177,176,178,-1,177,178,179,-1,179,178,171,-1,179,171,170,-1,180,181,182,-1,180,182,183,-1,183,182,184,-1,183,184,185,-1,185,184,186,-1,185,186,187,-1,187,186,173,-1,187,173,172,-1,188,189,190,-1,188,190,191,-1,191,190,192,-1,191,192,193,-1,193,192,194,-1,193,194,195,-1,195,194,181,-1,195,181,180,-1,196,197,198,-1,196,198,199,-1,199,198,189,-1,199,189,188,-1,196,200,197,-1,197,200,201,-1,202,203,204,-1,202,204,205,-1,205,204,206,-1,205,206,207,-1,206,208,207,-1,207,208,209,-1,207,209,210,-1,210,209,201,-1,210,201,200,-1,203,202,211,-1,211,202,212,-1,211,212,213,-1,213,212,214,-1,213,214,215,-1,215,214,216,-1,215,216,217,-1,217,216,218,-1,217,218,219,-1,220,221,222,-1,220,222,223,-1,223,222,219,-1,223,219,218,-1,169,168,224,-1,169,224,225,-1,225,224,226,-1,225,226,227,-1,227,226,228,-1,227,228,229,-1,229,228,221,-1,229,221,220,-1,200,196,210,-1,210,196,199,-1,220,223,195,-1,195,223,193,-1,193,223,218,-1,193,218,216,-1,170,160,163,-1,170,163,179,-1,179,163,165,-1,179,165,167,-1,216,214,193,-1,193,214,212,-1,193,212,191,-1,191,212,202,-1,191,202,188,-1,188,202,205,-1,188,205,199,-1,199,205,207,-1,199,207,210,-1,195,180,220,-1,220,180,183,-1,220,183,229,-1,229,183,185,-1,229,185,227,-1,227,185,187,-1,227,187,225,-1,225,187,172,-1,225,172,169,-1,169,172,175,-1,169,175,167,-1,167,175,177,-1,167,177,179,-1,230,231,232,-1,232,231,233,-1,231,234,233,-1,233,234,235,-1,234,236,235,-1,235,236,237,-1,236,238,237,-1,237,238,239,-1,238,240,239,-1,239,240,241,-1,240,230,241,-1,241,230,232,-1,234,231,236,-1,236,231,230,-1,236,230,238,-1,238,230,240,-1]}}
Shape{appearance Appearance{material Material{diffuseColor 0.14901960784313725 0.14901960784313725 0.14901960784313725 transparency 0.0}}geometry IndexedFaceSet{ccw TRUE solid FALSE coord Coordinate{point [-0.8358 -0.8104 1.2598, -0.8011 -0.7352 1.2598, -0.7654 -0.8104 1.2598, -0.5376 -0.717 1.2598, -0.5376 -0.8735 1.2598, -0.5514 -0.717 1.2598, -0.5601 -0.8735 1.2598, -0.5818 -0.718 1.2598, -0.5885 -0.8727 1.2598, -0.6119 -0.7226 1.2598, -0.6164 -0.8685 1.2598, -0.6445 -0.851 1.2598, -0.6606 -0.8222 1.2598, -0.6637 -0.7977 1.2598, -0.6551 -0.7584 1.2598, -0.6337 -0.7331 1.2598, -1.3425 -2.5276 2.5866, -1.3425 -1.7795 2.5866, -1.6575 -2.5276 2.5866, -1.6575 -1.7795 2.5866, -1.3425 -2.5276 2.9016, -1.3425 -1.7795 2.9016, -1.6575 -2.5276 2.9016, -1.6575 -1.7795 2.9016, -1.3031 -2.5669 2.5472, -1.6969 -2.5669 2.5472, -1.6969 -2.5669 2.9409, -1.3031 -2.5669 2.9409, -1.6575 -2.5276 1.5866, -1.6575 -1.7795 1.5866, -1.6575 -2.5276 1.9016, -1.6575 -1.7795 1.9016, -1.3425 -2.5276 1.9016, -1.3425 -1.7795 1.9016, -1.3425 -2.5276 1.5866, -1.3425 -1.7795 1.5866, -1.3031 -2.5669 1.5472, -1.6969 -2.5669 1.5472, -1.6969 -2.5669 1.9409, -1.3031 -2.5669 1.9409]} coordIndex [0,1,2,-1,3,4,5,-1,5,4,6,-1,5,6,7,-1,7,6,8,-1,7,8,9,-1,10,11,8,-1,8,11,12,-1,8,12,13,-1,13,14,8,-1,8,14,15,-1,8,15,9,-1,16,17,18,-1,18,17,19,-1,20,21,16,-1,16,21,17,-1,22,23,20,-1,20,23,21,-1,23,19,21,-1,21,19,17,-1,18,19,22,-1,22,19,23,-1,24,16,25,-1,25,16,18,-1,25,18,26,-1,26,18,22,-1,20,27,22,-1,22,27,26,-1,27,20,24,-1,24,20,16,-1,28,29,30,-1,30,29,31,-1,30,31,32,-1,32,31,33,-1,32,33,34,-1,34,33,35,-1,35,33,29,-1,29,33,31,-1,34,35,28,-1,28,35,29,-1,36,34,37,-1,37,34,28,-1,37,28,38,-1,38,28,30,-1,32,39,30,-1,30,39,38,-1,39,32,36,-1,36,32,34,-1]}}
Shape{appearance Appearance{material Material{diffuseColor 0.7529411764705882 0.7529411764705882 0.7529411764705882 transparency 0.0}}geometry IndexedFaceSet{ccw TRUE solid FALSE coord Coordinate{point [-1.626 1.4882 1.8228, -1.626 0.4252 1.8228, -1.374 1.4882 1.8228, -1.374 0.4252 1.8228, -1.374 1.5057 1.8209, -1.626 1.5057 1.8209, -1.374 1.5224 1.815, -1.626 1.5224 1.815, -1.374 1.5373 1.8057, -1.626 1.5373 1.8057, -1.374 1.5498 1.7932, -1.626 1.5498 1.7932, -1.374 1.5591 1.7783, -1.626 1.5591 1.7783, -1.374 1.565 1.7616, -1.626 1.565 1.7616, -1.374 1.5669 1.7441, -1.626 1.5669 1.7441, -1.626 1.5669 0.0591, -1.374 1.5669 0.0591, -1.626 1.5079 0.0, -1.374 1.5079 0.0, -1.626 1.4685 0.0, -1.374 1.4685 0.0, -1.626 1.4094 0.0591, -1.374 1.4094 0.0591, -1.626 1.4094 1.5866, -1.374 1.4094 1.5866, -1.626 1.4075 1.6041, -1.374 1.4075 1.6041, -1.626 1.4017 1.6208, -1.374 1.4017 1.6208, -1.626 1.3923 1.6357, -1.374 1.3923 1.6357, -1.626 1.3798 1.6482, -1.374 1.3798 1.6482, -1.626 1.3649 1.6576, -1.374 1.3649 1.6576, -1.626 1.3482 1.6634, -1.374 1.3482 1.6634, -1.626 1.3307 1.6654, -1.374 1.3307 1.6654, -1.626 0.4252 1.6654, -1.374 0.4252 1.6654, -1.626 2.4882 2.8228, -1.626 0.4252 2.8228, -1.374 2.4882 2.8228, -1.374 0.4252 2.8228, -1.374 2.5057 2.8209, -1.626 2.5057 2.8209, -1.374 2.5224 2.815, -1.626 2.5224 2.815, -1.374 2.5373 2.8057, -1.626 2.5373 2.8057, -1.374 2.5498 2.7932, -1.626 2.5498 2.7932, -1.374 2.5591 2.7783, -1.626 2.5591 2.7783, -1.374 2.565 2.7616, -1.626 2.565 2.7616, -1.374 2.5669 2.7441, -1.626 2.5669 2.7441, -1.626 2.5669 0.0591, -1.374 2.5669 0.0591, -1.626 2.5079 0.0, -1.374 2.5079 0.0, -1.626 2.4685 0.0, -1.374 2.4685 0.0, -1.626 2.4094 0.0591, -1.374 2.4094 0.0591, -1.626 2.4094 2.5866, -1.374 2.4094 2.5866, -1.626 2.4075 2.6041, -1.374 2.4075 2.6041, -1.626 2.4017 2.6208, -1.374 2.4017 2.6208, -1.626 2.3923 2.6357, -1.374 2.3923 2.6357, -1.626 2.3798 2.6482, -1.374 2.3798 2.6482, -1.626 2.3649 2.6576, -1.374 2.3649 2.6576, -1.626 2.3482 2.6634, -1.374 2.3482 2.6634, -1.626 2.3307 2.6654, -1.374 2.3307 2.6654, -1.626 0.4252 2.6654, -1.374 0.4252 2.6654, -0.626 1.4882 1.8228, -0.626 0.4252 1.8228, -0.374 1.4882 1.8228, -0.374 0.4252 1.8228, -0.374 1.5057 1.8209, -0.626 1.5057 1.8209, -0.374 1.5224 1.815, -0.626 1.5224 1.815, -0.374 1.5373 1.8057, -0.626 1.5373 1.8057, -0.374 1.5498 1.7932, -0.626 1.5498 1.7932, -0.374 1.5591 1.7783, -0.626 1.5591 1.7783, -0.374 1.565 1.7616, -0.626 1.565 1.7616, -0.374 1.5669 1.7441, -0.626 1.5669 1.7441, -0.626 1.5669 0.0591, -0.374 1.5669 0.0591, -0.626 1.5079 0.0, -0.374 1.5079 0.0, -0.626 1.4685 0.0, -0.374 1.4685 0.0, -0.626 1.4094 0.0591, -0.374 1.4094 0.0591, -0.626 1.4094 1.5866, -0.374 1.4094 1.5866, -0.626 1.4075 1.6041, -0.374 1.4075 1.6041, -0.626 1.4017 1.6208, -0.374 1.4017 1.6208, -0.626 1.3923 1.6357, -0.374 1.3923 1.6357, -0.626 1.3798 1.6482, -0.374 1.3798 1.6482, -0.626 1.3649 1.6576, -0.374 1.3649 1.6576, -0.626 1.3482 1.6634, -0.374 1.3482 1.6634, -0.626 1.3307 1.6654, -0.374 1.3307 1.6654, -0.626 0.4252 1.6654, -0.374 0.4252 1.6654, -0.626 2.4882 2.8228, -0.626 0.4252 2.8228, -0.374 2.4882 2.8228, -0.374 0.4252 2.8228, -0.374 2.5057 2.8209, -0.626 2.5057 2.8209, -0.374 2.5224 2.815, -0.626 2.5224 2.815, -0.374 2.5373 2.8057, -0.626 2.5373 2.8057, -0.374 2.5498 2.7932, -0.626 2.5498 2.7932, -0.374 2.5591 2.7783, -0.626 2.5591 2.7783, -0.374 2.565 2.7616, -0.626 2.565 2.7616, -0.374 2.5669 2.7441, -0.626 2.5669 2.7441, -0.626 2.5669 0.0591, -0.374 2.5669 0.0591, -0.626 2.5079 0.0, -0.374 2.5079 0.0, -0.626 2.4685 0.0, -0.374 2.4685 0.0, -0.626 2.4094 0.0591, -0.374 2.4094 0.0591, -0.626 2.4094 2.5866, -0.374 2.4094 2.5866, -0.626 2.4075 2.6041, -0.374 2.4075 2.6041, -0.626 2.4017 2.6208, -0.374 2.4017 2.6208, -0.626 2.3923 2.6357, -0.374 2.3923 2.6357, -0.626 2.3798 2.6482, -0.374 2.3798 2.6482, -0.626 2.3649 2.6576, -0.374 2.3649 2.6576, -0.626 2.3482 2.6634, -0.374 2.3482 2.6634, -0.626 2.3307 2.6654, -0.374 2.3307 2.6654, -0.626 0.4252 2.6654, -0.374 0.4252 2.6654, 0.374 1.4882 1.8228, 0.374 0.4252 1.8228, 0.626 1.4882 1.8228, 0.626 0.4252 1.8228, 0.626 1.5057 1.8209, 0.374 1.5057 1.8209, 0.626 1.5224 1.815, 0.374 1.5224 1.815, 0.626 1.5373 1.8057, 0.374 1.5373 1.8057, 0.626 1.5498 1.7932, 0.374 1.5498 1.7932, 0.626 1.5591 1.7783, 0.374 1.5591 1.7783, 0.626 1.565 1.7616, 0.374 1.565 1.7616, 0.626 1.5669 1.7441, 0.374 1.5669 1.7441, 0.374 1.5669 0.0591, 0.626 1.5669 0.0591, 0.374 1.5079 0.0, 0.626 1.5079 0.0, 0.374 1.4685 0.0, 0.626 1.4685 0.0, 0.374 1.4094 0.0591, 0.626 1.4094 0.0591, 0.374 1.4094 1.5866, 0.626 1.4094 1.5866, 0.374 1.4075 1.6041, 0.626 1.4075 1.6041, 0.374 1.4017 1.6208, 0.626 1.4017 1.6208, 0.374 1.3923 1.6357, 0.626 1.3923 1.6357, 0.374 1.3798 1.6482, 0.626 1.3798 1.6482, 0.374 1.3649 1.6576, 0.626 1.3649 1.6576, 0.374 1.3482 1.6634, 0.626 1.3482 1.6634, 0.374 1.3307 1.6654, 0.626 1.3307 1.6654, 0.374 0.4252 1.6654, 0.626 0.4252 1.6654, 0.374 2.4882 2.8228, 0.374 0.4252 2.8228, 0.626 2.4882 2.8228, 0.626 0.4252 2.8228, 0.626 2.5057 2.8209, 0.374 2.5057 2.8209, 0.626 2.5224 2.815, 0.374 2.5224 2.815, 0.626 2.5373 2.8057, 0.374 2.5373 2.8057, 0.626 2.5498 2.7932, 0.374 2.5498 2.7932, 0.626 2.5591 2.7783, 0.374 2.5591 2.7783, 0.626 2.565 2.7616, 0.374 2.565 2.7616, 0.626 2.5669 2.7441, 0.374 2.5669 2.7441, 0.374 2.5669 0.0591, 0.626 2.5669 0.0591, 0.374 2.5079 0.0, 0.626 2.5079 0.0, 0.374 2.4685 0.0, 0.626 2.4685 0.0, 0.374 2.4094 0.0591, 0.626 2.4094 0.0591, 0.374 2.4094 2.5866, 0.626 2.4094 2.5866, 0.374 2.4075 2.6041, 0.626 2.4075 2.6041, 0.374 2.4017 2.6208, 0.626 2.4017 2.6208, 0.374 2.3923 2.6357, 0.626 2.3923 2.6357, 0.374 2.3798 2.6482, 0.626 2.3798 2.6482, 0.374 2.3649 2.6576, 0.626 2.3649 2.6576, 0.374 2.3482 2.6634, 0.626 2.3482 2.6634, 0.374 2.3307 2.6654, 0.626 2.3307 2.6654, 0.374 0.4252 2.6654, 0.626 0.4252 2.6654, 1.374 1.4882 1.8228, 1.374 0.4252 1.8228, 1.626 1.4882 1.8228, 1.626 0.4252 1.8228, 1.626 1.5057 1.8209, 1.374 1.5057 1.8209, 1.626 1.5224 1.815, 1.374 1.5224 1.815, 1.626 1.5373 1.8057, 1.374 1.5373 1.8057, 1.626 1.5498 1.7932, 1.374 1.5498 1.7932, 1.626 1.5591 1.7783, 1.374 1.5591 1.7783, 1.626 1.565 1.7616, 1.374 1.565 1.7616, 1.626 1.5669 1.7441, 1.374 1.5669 1.7441, 1.374 1.5669 0.0591, 1.626 1.5669 0.0591, 1.374 1.5079 0.0, 1.626 1.5079 0.0, 1.374 1.4685 0.0, 1.626 1.4685 0.0, 1.374 1.4094 0.0591, 1.626 1.4094 0.0591, 1.374 1.4094 1.5866, 1.626 1.4094 1.5866, 1.374 1.4075 1.6041, 1.626 1.4075 1.6041, 1.374 1.4017 1.6208, 1.626 1.4017 1.6208, 1.374 1.3923 1.6357, 1.626 1.3923 1.6357, 1.374 1.3798 1.6482, 1.626 1.3798 1.6482, 1.374 1.3649 1.6576, 1.626 1.3649 1.6576, 1.374 1.3482 1.6634, 1.626 1.3482 1.6634, 1.374 1.3307 1.6654, 1.626 1.3307 1.6654, 1.374 0.4252 1.6654, 1.626 0.4252 1.6654, 1.374 2.4882 2.8228, 1.374 0.4252 2.8228, 1.626 2.4882 2.8228, 1.626 0.4252 2.8228, 1.626 2.5057 2.8209, 1.374 2.5057 2.8209, 1.626 2.5224 2.815, 1.374 2.5224 2.815, 1.626 2.5373 2.8057, 1.374 2.5373 2.8057, 1.626 2.5498 2.7932, 1.374 2.5498 2.7932, 1.626 2.5591 2.7783, 1.374 2.5591 2.7783, 1.626 2.565 2.7616, 1.374 2.565 2.7616, 1.626 2.5669 2.7441, 1.374 2.5669 2.7441, 1.374 2.5669 0.0591, 1.626 2.5669 0.0591, 1.374 2.5079 0.0, 1.626 2.5079 0.0, 1.374 2.4685 0.0, 1.626 2.4685 0.0, 1.374 2.4094 0.0591, 1.626 2.4094 0.0591, 1.374 2.4094 2.5866, 1.626 2.4094 2.5866, 1.374 2.4075 2.6041, 1.626 2.4075 2.6041, 1.374 2.4017 2.6208, 1.626 2.4017 2.6208, 1.374 2.3923 2.6357, 1.626 2.3923 2.6357, 1.374 2.3798 2.6482, 1.626 2.3798 2.6482, 1.374 2.3649 2.6576, 1.626 2.3649 2.6576, 1.374 2.3482 2.6634, 1.626 2.3482 2.6634, 1.374 2.3307 2.6654, 1.626 2.3307 2.6654, 1.374 0.4252 2.6654, 1.626 0.4252 2.6654, 2.374 1.4882 1.8228, 2.374 0.4252 1.8228, 2.626 1.4882 1.8228, 2.626 0.4252 1.8228, 2.626 1.5057 1.8209, 2.374 1.5057 1.8209, 2.626 1.5224 1.815, 2.374 1.5224 1.815, 2.626 1.5373 1.8057, 2.374 1.5373 1.8057, 2.626 1.5498 1.7932, 2.374 1.5498 1.7932, 2.626 1.5591 1.7783, 2.374 1.5591 1.7783, 2.626 1.565 1.7616, 2.374 1.565 1.7616, 2.626 1.5669 1.7441, 2.374 1.5669 1.7441, 2.374 1.5669 0.0591, 2.626 1.5669 0.0591, 2.374 1.5079 0.0, 2.626 1.5079 0.0, 2.374 1.4685 0.0, 2.626 1.4685 0.0, 2.374 1.4094 0.0591, 2.626 1.4094 0.0591, 2.374 1.4094 1.5866, 2.626 1.4094 1.5866, 2.374 1.4075 1.6041, 2.626 1.4075 1.6041, 2.374 1.4017 1.6208, 2.626 1.4017 1.6208, 2.374 1.3923 1.6357, 2.626 1.3923 1.6357, 2.374 1.3798 1.6482, 2.626 1.3798 1.6482, 2.374 1.3649 1.6576, 2.626 1.3649 1.6576, 2.374 1.3482 1.6634, 2.626 1.3482 1.6634, 2.374 1.3307 1.6654, 2.626 1.3307 1.6654, 2.374 0.4252 1.6654, 2.626 0.4252 1.6654, 2.374 2.4882 2.8228, 2.374 0.4252 2.8228, 2.626 2.4882 2.8228, 2.626 0.4252 2.8228, 2.626 2.5057 2.8209, 2.374 2.5057 2.8209, 2.626 2.5224 2.815, 2.374 2.5224 2.815, 2.626 2.5373 2.8057, 2.374 2.5373 2.8057, 2.626 2.5498 2.7932, 2.374 2.5498 2.7932, 2.626 2.5591 2.7783, 2.374 2.5591 2.7783, 2.626 2.565 2.7616, 2.374 2.565 2.7616, 2.626 2.5669 2.7441, 2.374 2.5669 2.7441, 2.374 2.5669 0.0591, 2.626 2.5669 0.0591, 2.374 2.5079 0.0, 2.626 2.5079 0.0, 2.374 2.4685 0.0, 2.626 2.4685 0.0, 2.374 2.4094 0.0591, 2.626 2.4094 0.0591, 2.374 2.4094 2.5866, 2.626 2.4094 2.5866, 2.374 2.4075 2.6041, 2.626 2.4075 2.6041, 2.374 2.4017 2.6208, 2.626 2.4017 2.6208, 2.374 2.3923 2.6357, 2.626 2.3923 2.6357, 2.374 2.3798 2.6482, 2.626 2.3798 2.6482, 2.374 2.3649 2.6576, 2.626 2.3649 2.6576, 2.374 2.3482 2.6634, 2.626 2.3482 2.6634, 2.374 2.3307 2.6654, 2.626 2.3307 2.6654, 2.374 0.4252 2.6654, 2.626 0.4252 2.6654]} coordIndex [0,1,2,-1,2,1,3,-1,0,2,4,-1,0,4,5,-1,5,4,6,-1,5,6,7,-1,7,6,8,-1,7,8,9,-1,9,8,10,-1,9,10,11,-1,11,10,12,-1,11,12,13,-1,13,12,14,-1,13,14,15,-1,15,14,16,-1,15,16,17,-1,18,17,19,-1,19,17,16,-1,20,18,21,-1,21,18,19,-1,22,20,23,-1,23,20,21,-1,24,22,25,-1,25,22,23,-1,26,24,27,-1,27,24,25,-1,26,27,28,-1,28,27,29,-1,28,29,30,-1,30,29,31,-1,30,31,32,-1,32,31,33,-1,32,33,34,-1,34,33,35,-1,34,35,36,-1,36,35,37,-1,36,37,38,-1,38,37,39,-1,38,39,40,-1,40,39,41,-1,42,40,43,-1,43,40,41,-1,42,1,40,-1,40,1,0,-1,40,0,38,-1,38,0,36,-1,26,28,17,-1,17,28,30,-1,17,30,15,-1,15,30,32,-1,7,9,34,-1,34,9,11,-1,34,11,32,-1,32,11,13,-1,32,13,15,-1,36,0,34,-1,34,0,5,-1,34,5,7,-1,22,24,20,-1,20,24,26,-1,20,26,18,-1,18,26,17,-1,3,43,2,-1,2,43,41,-1,33,31,16,-1,41,39,2,-1,2,39,37,-1,2,37,4,-1,4,37,35,-1,4,35,6,-1,6,35,8,-1,16,14,33,-1,33,14,12,-1,33,12,35,-1,35,12,10,-1,35,10,8,-1,23,21,25,-1,25,21,19,-1,25,19,27,-1,27,19,16,-1,27,16,29,-1,29,16,31,-1,44,45,46,-1,46,45,47,-1,44,46,48,-1,44,48,49,-1,49,48,50,-1,49,50,51,-1,51,50,52,-1,51,52,53,-1,53,52,54,-1,53,54,55,-1,55,54,56,-1,55,56,57,-1,57,56,58,-1,57,58,59,-1,59,58,60,-1,59,60,61,-1,62,61,63,-1,63,61,60,-1,64,62,65,-1,65,62,63,-1,66,64,67,-1,67,64,65,-1,68,66,69,-1,69,66,67,-1,70,68,71,-1,71,68,69,-1,70,71,72,-1,72,71,73,-1,72,73,74,-1,74,73,75,-1,74,75,76,-1,76,75,77,-1,76,77,78,-1,78,77,79,-1,78,79,80,-1,80,79,81,-1,80,81,82,-1,82,81,83,-1,82,83,84,-1,84,83,85,-1,86,84,87,-1,87,84,85,-1,70,72,61,-1,61,72,74,-1,61,74,59,-1,59,74,76,-1,66,68,64,-1,64,68,70,-1,64,70,62,-1,62,70,61,-1,51,53,78,-1,78,53,55,-1,78,55,76,-1,76,55,57,-1,76,57,59,-1,86,45,84,-1,84,45,44,-1,84,44,82,-1,82,44,80,-1,80,44,78,-1,78,44,49,-1,78,49,51,-1,77,75,60,-1,60,58,77,-1,77,58,56,-1,77,56,79,-1,79,56,54,-1,79,54,52,-1,67,65,69,-1,69,65,63,-1,69,63,71,-1,71,63,60,-1,71,60,73,-1,73,60,75,-1,47,87,46,-1,46,87,85,-1,85,83,46,-1,46,83,81,-1,46,81,48,-1,48,81,79,-1,48,79,50,-1,50,79,52,-1,88,89,90,-1,90,89,91,-1,88,90,92,-1,88,92,93,-1,93,92,94,-1,93,94,95,-1,95,94,96,-1,95,96,97,-1,97,96,98,-1,97,98,99,-1,99,98,100,-1,99,100,101,-1,101,100,102,-1,101,102,103,-1,103,102,104,-1,103,104,105,-1,106,105,107,-1,107,105,104,-1,108,106,109,-1,109,106,107,-1,110,108,111,-1,111,108,109,-1,112,110,113,-1,113,110,111,-1,114,112,115,-1,115,112,113,-1,114,115,116,-1,116,115,117,-1,116,117,118,-1,118,117,119,-1,118,119,120,-1,120,119,121,-1,120,121,122,-1,122,121,123,-1,122,123,124,-1,124,123,125,-1,124,125,126,-1,126,125,127,-1,126,127,128,-1,128,127,129,-1,130,128,131,-1,131,128,129,-1,130,89,128,-1,128,89,88,-1,128,88,126,-1,126,88,124,-1,114,116,105,-1,105,116,118,-1,105,118,103,-1,103,118,120,-1,95,97,122,-1,122,97,99,-1,122,99,120,-1,120,99,101,-1,120,101,103,-1,124,88,122,-1,122,88,93,-1,122,93,95,-1,110,112,108,-1,108,112,114,-1,108,114,106,-1,106,114,105,-1,91,131,90,-1,90,131,129,-1,121,119,104,-1,129,127,90,-1,90,127,125,-1,90,125,92,-1,92,125,123,-1,92,123,94,-1,94,123,96,-1,104,102,121,-1,121,102,100,-1,121,100,123,-1,123,100,98,-1,123,98,96,-1,111,109,113,-1,113,109,107,-1,113,107,115,-1,115,107,104,-1,115,104,117,-1,117,104,119,-1,132,133,134,-1,134,133,135,-1,132,134,136,-1,132,136,137,-1,137,136,138,-1,137,138,139,-1,139,138,140,-1,139,140,141,-1,141,140,142,-1,141,142,143,-1,143,142,144,-1,143,144,145,-1,145,144,146,-1,145,146,147,-1,147,146,148,-1,147,148,149,-1,150,149,151,-1,151,149,148,-1,152,150,153,-1,153,150,151,-1,154,152,155,-1,155,152,153,-1,156,154,157,-1,157,154,155,-1,158,156,159,-1,159,156,157,-1,158,159,160,-1,160,159,161,-1,160,161,162,-1,162,161,163,-1,162,163,164,-1,164,163,165,-1,164,165,166,-1,166,165,167,-1,166,167,168,-1,168,167,169,-1,168,169,170,-1,170,169,171,-1,170,171,172,-1,172,171,173,-1,174,172,175,-1,175,172,173,-1,158,160,149,-1,149,160,162,-1,149,162,147,-1,147,162,164,-1,154,156,152,-1,152,156,158,-1,152,158,150,-1,150,158,149,-1,139,141,166,-1,166,141,143,-1,166,143,164,-1,164,143,145,-1,164,145,147,-1,174,133,172,-1,172,133,132,-1,172,132,170,-1,170,132,168,-1,168,132,166,-1,166,132,137,-1,166,137,139,-1,165,163,148,-1,148,146,165,-1,165,146,144,-1,165,144,167,-1,167,144,142,-1,167,142,140,-1,155,153,157,-1,157,153,151,-1,157,151,159,-1,159,151,148,-1,159,148,161,-1,161,148,163,-1,135,175,134,-1,134,175,173,-1,173,171,134,-1,134,171,169,-1,134,169,136,-1,136,169,167,-1,136,167,138,-1,138,167,140,-1,176,177,178,-1,178,177,179,-1,176,178,180,-1,176,180,181,-1,181,180,182,-1,181,182,183,-1,183,182,184,-1,183,184,185,-1,185,184,186,-1,185,186,187,-1,187,186,188,-1,187,188,189,-1,189,188,190,-1,189,190,191,-1,191,190,192,-1,191,192,193,-1,194,193,195,-1,195,193,192,-1,196,194,197,-1,197,194,195,-1,198,196,199,-1,199,196,197,-1,200,198,201,-1,201,198,199,-1,202,200,203,-1,203,200,201,-1,202,203,204,-1,204,203,205,-1,204,205,206,-1,206,205,207,-1,206,207,208,-1,208,207,209,-1,208,209,210,-1,210,209,211,-1,210,211,212,-1,212,211,213,-1,212,213,214,-1,214,213,215,-1,214,215,216,-1,216,215,217,-1,218,216,219,-1,219,216,217,-1,218,177,216,-1,216,177,176,-1,216,176,214,-1,214,176,212,-1,202,204,193,-1,193,204,206,-1,193,206,191,-1,191,206,208,-1,183,185,210,-1,210,185,187,-1,210,187,208,-1,208,187,189,-1,208,189,191,-1,212,176,210,-1,210,176,181,-1,210,181,183,-1,198,200,196,-1,196,200,202,-1,196,202,194,-1,194,202,193,-1,179,219,178,-1,178,219,217,-1,209,207,192,-1,217,215,178,-1,178,215,213,-1,178,213,180,-1,180,213,211,-1,180,211,182,-1,182,211,184,-1,192,190,209,-1,209,190,188,-1,209,188,211,-1,211,188,186,-1,211,186,184,-1,199,197,201,-1,201,197,195,-1,201,195,203,-1,203,195,192,-1,203,192,205,-1,205,192,207,-1,220,221,222,-1,222,221,223,-1,220,222,224,-1,220,224,225,-1,225,224,226,-1,225,226,227,-1,227,226,228,-1,227,228,229,-1,229,228,230,-1,229,230,231,-1,231,230,232,-1,231,232,233,-1,233,232,234,-1,233,234,235,-1,235,234,236,-1,235,236,237,-1,238,237,239,-1,239,237,236,-1,240,238,241,-1,241,238,239,-1,242,240,243,-1,243,240,241,-1,244,242,245,-1,245,242,243,-1,246,244,247,-1,247,244,245,-1,246,247,248,-1,248,247,249,-1,248,249,250,-1,250,249,251,-1,250,251,252,-1,252,251,253,-1,252,253,254,-1,254,253,255,-1,254,255,256,-1,256,255,257,-1,256,257,258,-1,258,257,259,-1,258,259,260,-1,260,259,261,-1,262,260,263,-1,263,260,261,-1,246,248,237,-1,237,248,250,-1,237,250,235,-1,235,250,252,-1,242,244,240,-1,240,244,246,-1,240,246,238,-1,238,246,237,-1,227,229,254,-1,254,229,231,-1,254,231,252,-1,252,231,233,-1,252,233,235,-1,262,221,260,-1,260,221,220,-1,260,220,258,-1,258,220,256,-1,256,220,254,-1,254,220,225,-1,254,225,227,-1,253,251,236,-1,236,234,253,-1,253,234,232,-1,253,232,255,-1,255,232,230,-1,255,230,228,-1,243,241,245,-1,245,241,239,-1,245,239,247,-1,247,239,236,-1,247,236,249,-1,249,236,251,-1,223,263,222,-1,222,263,261,-1,261,259,222,-1,222,259,257,-1,222,257,224,-1,224,257,255,-1,224,255,226,-1,226,255,228,-1,264,265,266,-1,266,265,267,-1,264,266,268,-1,264,268,269,-1,269,268,270,-1,269,270,271,-1,271,270,272,-1,271,272,273,-1,273,272,274,-1,273,274,275,-1,275,274,276,-1,275,276,277,-1,277,276,278,-1,277,278,279,-1,279,278,280,-1,279,280,281,-1,282,281,283,-1,283,281,280,-1,284,282,285,-1,285,282,283,-1,286,284,287,-1,287,284,285,-1,288,286,289,-1,289,286,287,-1,290,288,291,-1,291,288,289,-1,290,291,292,-1,292,291,293,-1,292,293,294,-1,294,293,295,-1,294,295,296,-1,296,295,297,-1,296,297,298,-1,298,297,299,-1,298,299,300,-1,300,299,301,-1,300,301,302,-1,302,301,303,-1,302,303,304,-1,304,303,305,-1,306,304,307,-1,307,304,305,-1,306,265,304,-1,304,265,264,-1,304,264,302,-1,302,264,300,-1,290,292,281,-1,281,292,294,-1,281,294,279,-1,279,294,296,-1,271,273,298,-1,298,273,275,-1,298,275,296,-1,296,275,277,-1,296,277,279,-1,300,264,298,-1,298,264,269,-1,298,269,271,-1,286,288,284,-1,284,288,290,-1,284,290,282,-1,282,290,281,-1,267,307,266,-1,266,307,305,-1,297,295,280,-1,305,303,266,-1,266,303,301,-1,266,301,268,-1,268,301,299,-1,268,299,270,-1,270,299,272,-1,280,278,297,-1,297,278,276,-1,297,276,299,-1,299,276,274,-1,299,274,272,-1,287,285,289,-1,289,285,283,-1,289,283,291,-1,291,283,280,-1,291,280,293,-1,293,280,295,-1,308,309,310,-1,310,309,311,-1,308,310,312,-1,308,312,313,-1,313,312,314,-1,313,314,315,-1,315,314,316,-1,315,316,317,-1,317,316,318,-1,317,318,319,-1,319,318,320,-1,319,320,321,-1,321,320,322,-1,321,322,323,-1,323,322,324,-1,323,324,325,-1,326,325,327,-1,327,325,324,-1,328,326,329,-1,329,326,327,-1,330,328,331,-1,331,328,329,-1,332,330,333,-1,333,330,331,-1,334,332,335,-1,335,332,333,-1,334,335,336,-1,336,335,337,-1,336,337,338,-1,338,337,339,-1,338,339,340,-1,340,339,341,-1,340,341,342,-1,342,341,343,-1,342,343,344,-1,344,343,345,-1,344,345,346,-1,346,345,347,-1,346,347,348,-1,348,347,349,-1,350,348,351,-1,351,348,349,-1,334,336,325,-1,325,336,338,-1,325,338,323,-1,323,338,340,-1,330,332,328,-1,328,332,334,-1,328,334,326,-1,326,334,325,-1,315,317,342,-1,342,317,319,-1,342,319,340,-1,340,319,321,-1,340,321,323,-1,350,309,348,-1,348,309,308,-1,348,308,346,-1,346,308,344,-1,344,308,342,-1,342,308,313,-1,342,313,315,-1,341,339,324,-1,324,322,341,-1,341,322,320,-1,341,320,343,-1,343,320,318,-1,343,318,316,-1,331,329,333,-1,333,329,327,-1,333,327,335,-1,335,327,324,-1,335,324,337,-1,337,324,339,-1,311,351,310,-1,310,351,349,-1,349,347,310,-1,310,347,345,-1,310,345,312,-1,312,345,343,-1,312,343,314,-1,314,343,316,-1,352,353,354,-1,354,353,355,-1,352,354,356,-1,352,356,357,-1,357,356,358,-1,357,358,359,-1,359,358,360,-1,359,360,361,-1,361,360,362,-1,361,362,363,-1,363,362,364,-1,363,364,365,-1,365,364,366,-1,365,366,367,-1,367,366,368,-1,367,368,369,-1,370,369,371,-1,371,369,368,-1,372,370,373,-1,373,370,371,-1,374,372,375,-1,375,372,373,-1,376,374,377,-1,377,374,375,-1,378,376,379,-1,379,376,377,-1,378,379,380,-1,380,379,381,-1,380,381,382,-1,382,381,383,-1,382,383,384,-1,384,383,385,-1,384,385,386,-1,386,385,387,-1,386,387,388,-1,388,387,389,-1,388,389,390,-1,390,389,391,-1,390,391,392,-1,392,391,393,-1,394,392,395,-1,395,392,393,-1,394,353,392,-1,392,353,352,-1,392,352,390,-1,390,352,388,-1,378,380,369,-1,369,380,382,-1,369,382,367,-1,367,382,384,-1,359,361,386,-1,386,361,363,-1,386,363,384,-1,384,363,365,-1,384,365,367,-1,388,352,386,-1,386,352,357,-1,386,357,359,-1,374,376,372,-1,372,376,378,-1,372,378,370,-1,370,378,369,-1,355,395,354,-1,354,395,393,-1,385,383,368,-1,393,391,354,-1,354,391,389,-1,354,389,356,-1,356,389,387,-1,356,387,358,-1,358,387,360,-1,368,366,385,-1,385,366,364,-1,385,364,387,-1,387,364,362,-1,387,362,360,-1,375,373,377,-1,377,373,371,-1,377,371,379,-1,379,371,368,-1,379,368,381,-1,381,368,383,-1,396,397,398,-1,398,397,399,-1,396,398,400,-1,396,400,401,-1,401,400,402,-1,401,402,403,-1,403,402,404,-1,403,404,405,-1,405,404,406,-1,405,406,407,-1,407,406,408,-1,407,408,409,-1,409,408,410,-1,409,410,411,-1,411,410,412,-1,411,412,413,-1,414,413,415,-1,415,413,412,-1,416,414,417,-1,417,414,415,-1,418,416,419,-1,419,416,417,-1,420,418,421,-1,421,418,419,-1,422,420,423,-1,423,420,421,-1,422,423,424,-1,424,423,425,-1,424,425,426,-1,426,425,427,-1,426,427,428,-1,428,427,429,-1,428,429,430,-1,430,429,431,-1,430,431,432,-1,432,431,433,-1,432,433,434,-1,434,433,435,-1,434,435,436,-1,436,435,437,-1,438,436,439,-1,439,436,437,-1,422,424,413,-1,413,424,426,-1,413,426,411,-1,411,426,428,-1,418,420,416,-1,416,420,422,-1,416,422,414,-1,414,422,413,-1,403,405,430,-1,430,405,407,-1,430,407,428,-1,428,407,409,-1,428,409,411,-1,438,397,436,-1,436,397,396,-1,436,396,434,-1,434,396,432,-1,432,396,430,-1,430,396,401,-1,430,401,403,-1,429,427,412,-1,412,410,429,-1,429,410,408,-1,429,408,431,-1,431,408,406,-1,431,406,404,-1,419,417,421,-1,421,417,415,-1,421,415,423,-1,423,415,412,-1,423,412,425,-1,425,412,427,-1,399,439,398,-1,398,439,437,-1,437,435,398,-1,398,435,433,-1,398,433,400,-1,400,433,431,-1,400,431,402,-1,402,431,404,-1]}}